<?xml version="1.0" encoding="UTF-8" standalone="no"?>
<!-- Created with Inkscape (http://www.inkscape.org/) -->

<svg
   xmlns:dc="http://purl.org/dc/elements/1.1/"
   xmlns:cc="http://creativecommons.org/ns#"
   xmlns:rdf="http://www.w3.org/1999/02/22-rdf-syntax-ns#"
   xmlns:svg="http://www.w3.org/2000/svg"
   xmlns="http://www.w3.org/2000/svg"
   xmlns:sodipodi="http://sodipodi.sourceforge.net/DTD/sodipodi-0.dtd"
   xmlns:inkscape="http://www.inkscape.org/namespaces/inkscape"
   id="svg3033"
   version="1.1"
   inkscape:version="0.48.3.1 r9886"
   width="204.5"
   height="127.4375"
   preserveAspectRatio="xMinYMin meet"
   viewBox="0 0 204.5 127.4375"
   xml:space="preserve"
   sodipodi:docname="DEVL_Logo_RGB.eps"><metadata
     id="metadata3039"><rdf:RDF><cc:Work
         rdf:about=""><dc:format>image/svg+xml</dc:format><dc:type
           rdf:resource="http://purl.org/dc/dcmitype/StillImage" /><dc:title></dc:title></cc:Work></rdf:RDF></metadata><defs
     id="defs3037"><clipPath
       clipPathUnits="userSpaceOnUse"
       id="clipPath3049"><path
         d="m 0,0 1636,0 0,1019.52 -1636,0 L 0,0 z"
         id="path3051" /></clipPath><clipPath
       clipPathUnits="userSpaceOnUse"
       id="clipPath3075"><path
         d="M 1140.62,942.695 C 587.793,935.07 124.539,532.098 7.74219,0 2.55469,39.4727 -0.113281,79.7656 0.00390625,120.801 1.14844,610.516 389.742,1012.84 867.898,1019.44 c 132.192,1.83 257.382,-26.835 369.322,-79.534 -31.86,2.242 -64.07,3.239 -96.6,2.789"
         id="path3077" /></clipPath></defs><sodipodi:namedview
     pagecolor="#ffffff"
     bordercolor="#666666"
     borderopacity="1"
     objecttolerance="10"
     gridtolerance="10"
     guidetolerance="10"
     inkscape:pageopacity="0"
     inkscape:pageshadow="2"
     inkscape:window-width="640"
     inkscape:window-height="480"
     id="namedview3035"
     showgrid="false"
     inkscape:zoom="1.6577017"
     inkscape:cx="102.25"
     inkscape:cy="63.71875"
     inkscape:window-x="7"
     inkscape:window-y="24"
     inkscape:window-maximized="0"
     inkscape:current-layer="g3041" /><g
     id="g3041"
     inkscape:groupmode="layer"
     inkscape:label="ink_ext_XXXXXX"
     transform="matrix(1.25,0,0,-1.25,0,127.4375)"><g
       id="g3043"
       transform="scale(0.1,0.1)"><g
         id="g3045"><g
           id="g3047"
           clip-path="url(#clipPath3049)"><path
             d="m 1119.93,86.5234 c -6.09,-6.289 -3.98,-16.9336 -0.66,-25.5273 3.34,-8.6328 10.58,-13.8867 23.2,-19.5508 14.02,-6.3086 56.29,-22.5469 56.29,-22.5469 l -28.13,61.3164 -20.97,-8.2812 c 0,0 11.7,-23.5547 -8.01,-20.4688 -13.67,2.129 -18.18,19.7461 -21.72,35.0586"
             style="fill:#3f61b3;fill-opacity:1;fill-rule:nonzero;stroke:none"
             id="path3053" /><path
             d="m 1119.93,86.5234 -0.96,0.9336 c -3.13,-3.2265 -4.27,-7.4726 -4.27,-11.8242 0.01,-5.0742 1.5,-10.4101 3.31,-15.1211 3.54,-9.1367 11.23,-14.6094 23.91,-20.2929 14.11,-6.3477 56.34,-22.5586 56.36,-22.5704 l 3.08,-1.1796 -30.03,65.4648 -23.53,-9.2891 0.65,-1.3086 c 0.01,-0.0078 0.83,-1.6601 1.66,-4.0507 0.84,-2.3829 1.66,-5.4805 1.65,-8.1446 0,-1.957 -0.43,-3.6015 -1.38,-4.7031 -0.95,-1.0937 -2.52,-1.8945 -5.44,-1.9063 -0.9,0 -1.93,0.0821 -3.08,0.2618 -6.25,0.9726 -10.46,5.4453 -13.67,11.8554 -3.18,6.3828 -5.19,14.5352 -6.95,22.1758 l -0.55,2.4102 -1.72,-1.7774 0.96,-0.9336 -1.31,-0.3046 c 1.78,-7.668 3.79,-15.9844 7.17,-22.7696 3.34,-6.7617 8.23,-12.1601 15.65,-13.3125 1.27,-0.1992 2.43,-0.2969 3.5,-0.2969 3.41,-0.0156 5.93,1.0313 7.48,2.8477 1.54,1.8086 2.03,4.1406 2.03,6.4531 -0.03,6.3399 -3.56,13.2969 -3.59,13.3906 l -1.2,-0.5976 0.49,-1.2539 19.79,7.8164 27.6,-60.1563 1.22,0.5586 0.48,1.2618 c -0.02,0.0078 -10.56,4.0546 -22.87,8.8984 -12.31,4.8437 -26.39,10.4805 -33.35,13.6133 -12.55,5.6445 -19.35,10.6758 -22.5,18.8086 -1.75,4.5234 -3.13,9.6093 -3.13,14.1523 0.01,3.9219 1,7.3594 3.51,9.9531 l -0.97,0.9375 -1.31,-0.3046 1.31,0.3046"
             style="fill:#3f61b3;fill-opacity:1;fill-rule:nonzero;stroke:none"
             id="path3055" /><path
             d="m 1198.7,120.391 c 8.73,0.078 15.04,-8.77 18.95,-17.129 3.94,-8.3597 2.75,-17.1878 -1.84,-30.2737 -5.08,-14.4727 -15.45,-53.5391 -15.45,-53.5391 l -29.73,60.7656 19.42,8.2032 c 0,0 9.18,-24.2383 19.12,-7.9297 7.17,11.7578 -1.8,26.7777 -10.47,39.9027"
             style="fill:#3f61b3;fill-opacity:1;fill-rule:nonzero;stroke:none"
             id="path3057" /><path
             d="m 1198.7,120.391 0.01,-1.348 0.11,0.004 c 3.85,0 7.24,-1.949 10.24,-5.035 2.98,-3.078 5.47,-7.246 7.37,-11.321 l 0,-0.003 c 1.54,-3.2778 2.25,-6.5825 2.25,-10.2896 0.01,-5.2617 -1.46,-11.3437 -4.14,-18.9648 -5.12,-14.5938 -15.47,-53.6172 -15.48,-53.6367 l 1.3,-0.3477 1.21,0.5938 -29.1,59.4843 18.1,7.6524 -0.52,1.2383 -1.26,-0.4766 c 0.02,-0.0469 1.32,-3.5 3.53,-7.0234 2.23,-3.4688 5.28,-7.3086 9.62,-7.418 2.95,0.0078 5.79,2.0078 8.38,6.2852 1.97,3.2265 2.81,6.7148 2.8,10.2617 -0.04,10.3551 -6.84,21.2651 -13.3,31.0821 l -1.12,-0.738 0.01,-1.348 -0.01,1.348 -1.12,-0.743 c 6.46,-9.73 12.9,-20.4644 12.85,-29.6011 0,-3.1367 -0.72,-6.0781 -2.41,-8.8594 -2.41,-3.9336 -4.48,-5.0039 -6.08,-4.9961 -2.41,-0.1094 -5.31,2.8359 -7.34,6.1563 -1.02,1.6289 -1.85,3.2773 -2.42,4.5117 -0.57,1.2344 -0.87,2.0312 -0.87,2.0351 l -0.5,1.3047 -22.01,-9.3008 31.94,-65.2773 0.92,3.4883 c 0.01,0.0195 2.59,9.7539 5.82,21.3203 3.22,11.5625 7.09,24.9492 9.6,32.1133 2.71,7.7461 4.29,14.0898 4.29,19.8554 0.01,4.0508 -0.79,7.8086 -2.51,11.4376 l 0,-0.008 c -1.98,4.25 -4.58,8.645 -7.87,12.055 -3.28,3.394 -7.36,5.851 -12.17,5.851 l -0.13,0 -2.47,-0.023 1.36,-2.063 1.12,0.743"
             style="fill:#3f61b3;fill-opacity:1;fill-rule:nonzero;stroke:none"
             id="path3059" /><path
             d="m 1198.38,58.5977 c -2.34,31.5078 -18.6,61.5973 -45.77,83.0973 -27.18,21.586 -65,34.633 -110.66,34.61 -3.67,0 -7.39,-0.086 -11.16,-0.254 l 2.07,-46.285 c 3.1,0.14 6.13,0.207 9.09,0.207 36.99,-0.028 63.97,-10.379 81.86,-24.567 17.89,-14.2732 26.98,-32.324 28.37,-50.2966 l 46.2,3.4883"
             style="fill:#3f61b3;fill-opacity:1;fill-rule:nonzero;stroke:none"
             id="path3061" /><path
             d="m 686.309,322.539 c 0,56.191 -46.032,102.215 -102.754,102.215 -56.192,0 -102.223,-46.024 -102.223,-102.215 0,-56.719 46.031,-102.754 102.223,-102.754 56.722,0 102.754,46.035 102.754,102.754 z m 114.527,-135.41 -32.66,-32.637 -72.762,72.793 c -26.777,-31.055 -66.898,-51.914 -111.859,-51.914 -80.278,0 -147.184,66.895 -147.184,147.168 0,80.293 66.906,147.168 147.184,147.168 40.152,0 76,-16.582 102.754,-43.359 l 0,163.781 44.41,0 0,-333.41 70.117,-69.59"
             style="fill:#3f61b3;fill-opacity:1;fill-rule:nonzero;stroke:none"
             id="path3063" /><path
             d="m 984.91,424.754 c -53.515,0 -96.324,-40.125 -102.222,-93.641 l 205.002,0 c -5.9,53.516 -49.26,93.641 -102.78,93.641 z M 882.688,277.578 c 0,-56.211 46.035,-102.207 102.222,-102.207 5.883,0 7.5,0 13.383,0 l 0,-44.961 c -5.883,0 -7.5,0 -13.383,0 -80.293,0 -147.152,66.895 -147.152,147.168 l 0,44.961 c 0,80.293 66.859,147.168 147.152,147.168 80.3,0 147.19,-66.875 147.19,-147.168 0,-5.898 0,-35.84 0,-35.84 l -249.412,0 0,-9.121"
             style="fill:#3f61b3;fill-opacity:1;fill-rule:nonzero;stroke:none"
             id="path3065" /><path
             d="m 1200.46,468.457 139.43,-224.863 139.65,224.98 53.03,0.137 -192.68,-311.816 -192.54,311.679 53.11,-0.117"
             style="fill:#3f61b3;fill-opacity:1;fill-rule:nonzero;stroke:none"
             id="path3067" /><path
             d="m 1635.71,216.602 0.33,-44.395 -44.7,0 0,423.777 44.37,0 0,-379.382"
             style="fill:#3f61b3;fill-opacity:1;fill-rule:nonzero;stroke:none"
             id="path3069" /></g></g><g
         id="g3071"><g
           id="g3073"
           clip-path="url(#clipPath3075)"><path
             d="m 303.035,-1477.16 5.449,-182.8 c 196.254,5.82 383.418,51.94 552.704,130.11 254.042,117.32 468.112,306.13 619.112,540.1 150.99,233.891 238.98,513.961 238.95,812.148 0,6.461 -0.05,12.934 -0.13,19.403 l 0.02,-0.992 -0.02,1.023 c -2.51,197.2149 -43.39,385.293 -115.56,555.844 -108.25,255.886 -286.58,472.504 -510.96,625.474 -112.198,76.48 -235.959,137.04 -368.053,178.44 -132.074,41.4 -272.488,63.61 -417.379,63.59 -14.078,0 -28.203,-0.21 -42.363,-0.63 l 0.633,0.02 -0.622,-0.02 C 68.5586,1258.76 -118.602,1212.65 -287.891,1134.5 -541.93,1017.2 -756.004,828.398 -907.012,594.441 -1058.01,360.555 -1146,80.4922 -1145.96,-217.68 c 0,-6.492 0.04,-12.98 0.12,-19.488 2.51,-197.242 43.39,-385.332 115.55,-555.891 108.251,-255.911 286.571,-472.541 510.962,-625.511 112.195,-76.48 235.961,-137.03 368.062,-178.43 132.0785,-41.4 272.496,-63.6 417.395,-63.59 14.07,0 28.183,0.21 42.328,0.63 l 0.027,0 -5.449,182.8 -5.418,182.79 c -10.539,-0.31 -21.039,-0.47 -31.488,-0.47 -143.461,0.04 -279.1524,29.12 -403.133,81.95 -185.855,79.23 -345.254,212.38 -458.84,381.691 -113.543,169.398 -181.316,374.129 -184.265,598.73 -0.067,4.93 -0.098,9.86 -0.098,14.789 0.016,150.7816 29.527,294.5472 83,426.246 80.164,197.5 214.645,367.539 383.324,489.067 84.328,60.781 177.121,109.472 276.0353,143.781 98.9375,34.305 203.9767,54.285 313.5117,57.547 l 2.344,0.066 -2.336,-0.066 c 10.539,0.312 21.039,0.469 31.496,0.469 143.441,-0.032 279.129,-29.118 403.102,-81.95 185.855,-79.23 345.26,-212.39 458.85,-381.699 113.55,-169.386 181.32,-374.1052 184.28,-598.652 l 0,0.019 c 0.06,-4.929 0.09,-9.839 0.09,-14.75 -0.02,-150.796 -29.53,-294.57 -83,-426.277 -80.16,-197.512 -214.64,-367.551 -383.326,-489.101 -84.332,-60.79 -177.125,-109.49 -276.047,-143.81 -98.941,-34.31 -203.984,-54.3 -313.527,-57.58 l 0.027,0 5.418,-182.79"
             style="fill:#160911;fill-opacity:1;fill-rule:nonzero;stroke:none"
             id="path3079" /><path
             d="m 301.016,-1322.93 5.429,-182.79 c 175.641,5.19 343.211,46.46 494.703,116.41 227.352,104.98 418.782,273.85 553.812,483.06 135.02,209.141 213.7,459.641 213.67,726.25 0,5.77 -0.04,11.551 -0.11,17.328 l -0.02,1.121 0.02,-1.097 c -2.25,176.3082 -38.8,344.562 -103.36,497.148 -96.85,228.938 -256.38,422.781 -457.23,559.719 -100.422,68.465 -211.227,122.681 -329.5,159.751 -118.254,37.08 -243.989,56.95 -373.664,56.94 -12.645,0 -25.332,-0.19 -38.051,-0.57 l 0.469,0.02 -0.446,-0.02 C 91.1055,1105.16 -76.457,1063.88 -227.941,993.922 -455.277,888.941 -646.691,720.062 -781.715,510.852 -916.723,301.707 -995.398,51.2109 -995.367,-215.391 c 0,-5.75 0.039,-11.519 0.109,-17.3 l -0.019,1.652 0.023,-1.66 c 2.246,-176.321 38.801,-344.582 103.363,-497.172 96.852,-228.949 256.391,-422.789 457.235,-559.729 100.422,-68.46 211.222,-122.68 329.492,-159.75 118.2499,-37.07 243.976,-56.95 373.641,-56.94 12.628,0 25.285,0.19 37.972,0.57 l -0.004,0 -5.429,182.79 -5.434,182.8 c -9.074,-0.27 -18.109,-0.4 -27.105,-0.4 -123.141,0.03 -239.477,24.98 -345.8325,70.3 -159.4255,67.96 -296.2855,182.261 -393.8475,327.691 -97.52,145.508 -155.774,321.34 -158.328,514.551 l 0.011,-0.821 -0.011,0.797 c -0.051,4.211 -0.078,8.41 -0.078,12.621 0.015,129.7426 25.39,253.3558 71.371,366.629 68.926,169.864 184.617,316.137 329.582,420.578 72.472,52.243 152.1716,94.067 237.0935,123.524 84.9492,29.457 175.0895,46.605 269.1565,49.41 l 0.937,0.027 -0.91,-0.027 c 9.086,0.273 18.133,0.406 27.145,0.406 123.156,-0.031 239.5,-24.98 345.859,-70.304 159.434,-67.965 296.293,-182.266 393.855,-327.692 97.51,-145.508 155.76,-321.3202 158.31,-514.512 l 0.03,-2.277 -0.03,2.301 c 0.06,-4.231 0.08,-8.453 0.08,-12.672 -0.01,-129.75 -25.39,-253.359 -71.37,-366.629 -68.93,-169.859 -184.633,-316.133 -329.605,-420.57 -72.477,-52.241 -152.188,-94.061 -237.118,-123.521 -84.957,-29.45 -175.109,-46.6 -269.191,-49.41 l -4.57,-0.13 4.566,0.13 5.434,-182.8"
             style="fill:#330f2b;fill-opacity:1;fill-rule:nonzero;stroke:none"
             id="path3081" /><path
             d="m 299.062,-1166.29 5.434,-182.79 c 154.66,4.57 302.297,40.94 435.688,102.53 200.199,92.45 368.606,241.04 487.406,425.07 118.79,183.96 188.03,404.39 188,638.871 0,5.129 -0.04,10.257 -0.1,15.39 -1.97,155.0588 -34.12,303.192 -90.96,437.531 -85.27,201.575 -225.73,372.286 -402.675,492.938 -88.468,60.316 -186.113,108.102 -290.351,140.773 -104.219,32.68 -215.039,50.196 -329.258,50.184 -11.133,0 -22.297,-0.164 -33.492,-0.5 l 0.238,0.008 -0.219,-0.008 C 114.094,949.141 -33.5547,912.766 -166.953,851.16 -367.16,758.695 -535.566,610.086 -654.363,426.035 -773.148,242.051 -842.383,21.6055 -842.348,-212.891 c 0,-5.07 0.032,-10.148 0.098,-15.25 l 0.008,-0.789 -0.008,0.782 c 1.973,-155.071 34.137,-303.211 90.977,-437.551 85.269,-201.571 225.734,-372.291 402.679,-492.931 88.473,-60.32 186.114,-108.1 290.3557,-140.77 104.2188,-32.68 215.0433,-50.19 329.2613,-50.18 11.133,0 22.293,0.17 33.477,0.5 l -0.004,0 -5.434,182.79 -5.437,182.802 c -7.57,-0.223 -15.102,-0.34 -22.602,-0.34 -102.55,0.027 -199.2574,20.777 -287.73,58.476 -132.598,56.524 -246.57,151.672 -327.852,272.84 -81.242,121.25 -129.82,267.723 -131.968,429.071 l 0.011,-0.797 -0.011,0.777 c -0.043,3.52 -0.067,7.051 -0.067,10.57 0.016,108.34 21.196,211.44959 59.567,305.9926 57.515,141.7504 154.129,263.8674 275.007,350.9454 60.4302,43.562 126.8403,78.398 197.5512,102.93 70.7388,24.523 145.7498,38.8 224.1058,41.136 l 0.312,0.012 -0.297,-0.008 c 7.563,0.223 15.094,0.336 22.594,0.336 102.543,-0.031 199.242,-20.781 287.715,-58.476 132.598,-56.528 246.578,-151.68 327.855,-272.852 81.239,-121.254 129.814,-267.7031 131.944,-429.035 0.05,-3.578 0.07,-7.141 0.07,-10.699 -0.01,-108.321 -21.19,-211.422 -59.564,-305.942 -57.516,-141.719 -154.125,-263.82 -275.008,-350.89 -60.43,-43.547 -126.836,-78.387 -197.543,-102.911 -70.735,-24.527 -145.742,-38.796 -224.086,-41.136 l 4.941,0.148 -4.945,-0.148 5.437,-182.802"
             style="fill:#53174b;fill-opacity:1;fill-rule:nonzero;stroke:none"
             id="path3083" /><path
             d="m 297.109,-1017.79 5.442,-182.8 c 134.804,3.99 263.562,35.71 379.812,89.38 174.489,80.58 321.077,209.948 424.487,370.132 103.4,160.117 163.68,352.058 163.65,556.109 0,4.481 -0.03,8.957 -0.09,13.438 l 0,-0.028 c -1.69,134.9301 -29.68,263.9848 -79.2,381.032 -74.29,175.629 -196.683,324.414 -350.976,429.621 -77.14,52.597 -162.316,94.281 -253.254,122.785 -90.918,28.508 -187.609,43.785 -287.179,43.773 -9.692,0 -19.414,-0.144 -29.16,-0.433 l 1.062,0.031 -1.062,-0.031 C 135.828,801.23 7.06641,769.5 -109.188,715.809 c -174.484,-80.598 -321.074,-210 -424.48,-370.2 -103.394,-160.132 -163.676,-352.07775 -163.641,-556.14 0,-4.43 0.028,-8.867 0.086,-13.321 l 0,0.012 c 1.7,-134.93 29.7,-263.98 79.227,-381.019 74.293,-175.621 196.687,-324.403 350.976,-429.611 77.137,-52.59 162.305,-94.27 253.2388,-122.78 90.9101,-28.51 187.5902,-43.78 287.1522,-43.77 9.703,0 19.43,0.14 29.176,0.43 l -5.438,182.8 -5.437,182.802 c -6.133,-0.192 -12.234,-0.282 -18.301,-0.282 -82.996,0.032 -161.07,16.801 -232.5898,47.27 -107.164,45.68 -199.4612,122.68 -265.3162,220.852 -65.813,98.257 -105.219,216.867 -106.961,347.988 l -0.02,1.398 0.02,-1.386 c -0.039,2.867 -0.059,5.738 -0.059,8.617 0.02,88.043 17.215,171.7302 48.375,248.5037 46.692,115.1053 125.215,214.3203 223.2581,284.9373 49.0157,35.332 102.8203,63.551 160.0589,83.41 57.261,19.852 117.933,31.403 181.386,33.305 l 7.95,0.234 -7.946,-0.234 c 6.118,0.18 12.207,0.273 18.274,0.27 83.015,-0.028 161.105,-16.801 232.629,-47.266 107.172,-45.684 199.465,-122.68 265.312,-220.852 65.809,-98.2575 105.207,-216.8668 106.946,-347.988 l -0.008,0.402 0.008,-0.429 c 0.035,-2.922 0.054,-5.832 0.054,-8.731 -0.015,-88.043 -17.211,-171.722 -48.367,-248.472 -46.691,-115.09 -125.199,-214.27 -223.242,-284.868 -49.012,-35.32 -102.817,-63.531 -160.059,-83.39 -57.265,-19.84 -117.941,-31.391 -181.402,-33.289 l 5.437,-182.802"
             style="fill:#771c6f;fill-opacity:1;fill-rule:nonzero;stroke:none"
             id="path3085" /><path
             d="m 295.121,-861.09 5.457,-182.8 c 113.856,3.38 222.699,30.21 320.86,75.562 147.347,68.078 270.917,177.219 358.093,312.258 87.159,134.968 137.999,296.871 137.959,468.832 0,3.726 -0.02,7.457 -0.07,11.187 l 0,0.27 0,-0.231 c -1.45,113.6722 -25.07,222.5628 -66.88,321.332 -62.724,148.219 -166.044,273.832 -296.411,362.723 -65.184,44.437 -137.184,79.68 -214.07,103.777 -76.864,24.11 -158.625,37.02 -242.719,37.008 -8.199,0 -16.418,-0.125 -24.656,-0.367 l 0.011,0 C 158.855,645.102 50.0195,618.285 -48.1367,572.945 -195.484,504.883 -319.055,395.758 -406.23,260.727 c -87.165,-134.961 -138,-296.8559 -137.965,-468.817 0,-3.738 0.023,-7.488 0.074,-11.25 l 0,0 c 1.437,-113.68 25.051,-222.59 66.867,-321.371 62.727,-148.238 166.063,-273.859 296.453,-362.758 65.192,-44.441 137.2033,-79.679 214.1018,-103.781 76.8752,-24.1 158.6442,-37.01 242.7502,-37 8.144,0 16.301,0.12 24.469,0.36 l 0.058,0 -5.457,182.8 -5.394,182.801 c -4.586,-0.141 -9.145,-0.199 -13.676,-0.199 -62.399,0.027 -120.848,12.59 -174.485,35.429 -80.3472,34.231 -149.7652,92.071 -199.3433,165.969 -49.5387,73.981 -79.2777,163.211 -80.6207,262.449 l -0.008,0.68 0.008,-0.668 c -0.028,2.18 -0.043,4.359 -0.043,6.539 0.019,66.641 13.015,129.8283 36.562,187.8595 35.281,86.9922 94.711,162.0355 168.6602,215.2815 36.9649,26.644 77.4728,47.871 120.4918,62.793 43.039,14.922 88.571,23.59 136.297,25.023 l -0.89,-0.027 0.906,0.027 c 4.605,0.137 9.187,0.203 13.754,0.203 62.375,-0.027 120.801,-12.593 174.426,-35.425 80.32,-34.231 149.726,-92.059 199.3,-165.9575 49.539,-73.97656 79.278,-163.207 80.633,-262.4255 l 0,0.039 c 0.028,-2.192 0.039,-4.371 0.039,-6.539 -0.015,-66.641 -13.011,-129.832 -36.562,-187.871 -35.281,-87 -94.723,-162.063 -168.684,-215.321 -36.969,-26.66 -77.48,-47.89 -120.504,-62.82 -43.05,-14.93 -88.59,-23.609 -136.324,-25.039 l 0.063,0 5.394,-182.801"
             style="fill:#922993;fill-opacity:1;fill-rule:nonzero;stroke:none"
             id="path3087" /><path
             d="m 293.152,-704.98 5.446,-182.79 c 92.961,2.739 181.957,24.661 262.09,61.692 120.316,55.59 220.957,144.527 291.964,254.5 70.989,109.906 112.407,241.879 112.371,381.867 0,3.039 -0.015,6.082 -0.054,9.109 l -0.008,0.391 0.008,-0.359 C 963.797,-88.0586 944.555,0.789062 910.438,81.3828 859.254,202.34 774.934,304.914 668.379,377.578 c -53.277,36.324 -112.168,65.156 -175.07,84.875 -62.883,19.723 -129.789,30.281 -198.489,30.27 -6.683,0 -13.39,-0.098 -20.117,-0.297 l 0.246,0.004 -0.219,-0.004 C 181.742,489.691 92.7266,467.762 12.5742,430.738 -107.762,375.145 -208.402,286.191 -279.406,176.219 -350.395,66.3164 -391.809,-65.6289 -391.773,-205.602 c 0,-3.027 0.019,-6.078 0.058,-9.128 1.164,-92.508 20.399,-181.36 54.512,-261.961 51.172,-120.969 135.484,-223.559 242.0428,-296.231 53.2774,-36.328 112.1719,-65.156 175.0782,-84.879 62.887,-19.73 129.797,-30.289 198.5,-30.269 6.719,0 13.453,0.101 20.199,0.3 l -1.219,-0.039 1.2,0.039 -5.446,182.79 -5.461,182.8 c -3.109,-0.09 -6.203,-0.14 -9.273,-0.14 -41.856,0.031 -80.715,8.41 -116.512,23.64 -53.59,22.84 -100.1912,61.578 -133.5466,111.321 -16.668,24.859 -30.00784,52.39 -39.3125,82.05 -9.2969,29.668 -14.5938,61.469 -15.0352,95.278 -0.0195,1.472 -0.0312,2.953 -0.0312,4.429 0.0156,45.313 8.8281,88.09 24.79294,127.4536 23.90626,59 64.32426,109.9765 114.27756,145.9257 24.965,17.9922 52.226,32.2657 81.09,42.2777 28.886,10.007 59.355,15.812 91.441,16.777 l -0.492,-0.016 0.515,0.016 c 3.086,0.09 6.157,0.137 9.215,0.137 41.844,-0.031 80.7,-8.41 116.5,-23.645 53.594,-22.8318 100.203,-61.5818 133.563,-111.31228 16.672,-24.86332 30.015,-52.38282 39.316,-82.04292 9.301,-29.6678 14.598,-61.4488 15.043,-95.2498 l 0,0.031 c 0.02,-1.5 0.028,-2.98 0.028,-4.461 -0.016,-45.34 -8.832,-88.129 -24.797,-127.5 -23.911,-59 -64.325,-109.98 -114.274,-145.918 -24.965,-17.992 -52.222,-32.262 -81.078,-42.269 -28.883,-10.012 -59.34,-15.813 -91.406,-16.782 l -0.024,0 5.461,-182.8"
             style="fill:#ac51af;fill-opacity:1;fill-rule:nonzero;stroke:none"
             id="path3089" /><path
             d="m 291.191,-554.16 5.442,-182.789 c 72.801,2.14 142.633,19.34 205.371,48.32 94.215,43.539 172.707,112.988 228.086,198.75 55.363,85.699 87.676,188.738 87.64,297.828 0,2.34 -0.011,4.68 -0.042,7.012 l 0,0.059 c -0.911,72.07 -15.926,141.5386 -42.618,204.5777 -40.035,94.6133 -106,174.9223 -189.55,231.9103 -41.778,28.484 -88.004,51.121 -137.403,66.605 -49.375,15.492 -101.929,23.778 -155.754,23.766 -5.23,0 -10.484,-0.078 -15.754,-0.238 l 0.977,0.031 -1,-0.031 C 203.793,339.488 133.973,322.277 71.25,293.285 -22.9453,249.746 -101.426,180.316 -156.805,94.5703 -212.168,8.89062 -244.492,-94.1289 -244.457,-203.199 c 0,-2.403 0.016,-4.789 0.047,-7.199 l 0,0.097 0,-0.07 c 0.902,-72.059 15.906,-141.527 42.582,-204.559 40.023,-94.621 105.9803,-174.929 189.535,-231.91 41.7735,-28.48 88,-51.121 137.398,-66.59 49.375,-15.488 101.922,-23.769 155.743,-23.761 5.265,0 10.523,0.082 15.769,0.242 l -1.847,-0.063 1.863,0.063 -5.442,182.789 -5.425,182.801 c -1.672,-0.051 -3.313,-0.071 -4.918,-0.071 -22.032,0.032 -41.989,4.371 -60.567,12.25 -27.761,11.821 -52.316,32.11 -69.996,58.469 -8.832,13.172 -15.926,27.789 -20.89,43.633 -4.961,15.848 -7.836,32.906 -8.083,51.398 l 0,0.301 0,-0.269 -0.015,2.449 c 0.019,24.699 4.785,47.75 13.426,69.078 12.914,31.93 34.957,59.6522 61.726,78.8905 13.371,9.6407 27.84,17.1914 43.024,22.461 15.207,5.2578 31.109,8.3007 48.062,8.8203 l -0.488,-0.0117 0.465,0.0117 c 1.621,0.0508 3.238,0.0703 4.851,0.0703 22.012,-0.0313 41.965,-4.3711 60.551,-12.2617 27.77,-11.8203 52.356,-32.1289 70.051,-58.5196 8.84,-13.1798 15.937,-27.8088 20.91,-43.6488 4.965,-15.863 7.84,-32.91 8.086,-51.39 l 0,0.179 0,-0.121 0.016,-2.41 c -0.016,-24.75 -4.789,-47.82 -13.43,-69.16 -12.922,-31.949 -34.957,-59.66 -61.715,-78.891 -13.367,-9.628 -27.832,-17.179 -43.012,-22.449 -15.203,-5.258 -31.105,-8.289 -48.066,-8.808 l 1.844,0.058 -1.832,-0.058 5.425,-182.801"
             style="fill:#c580c6;fill-opacity:1;fill-rule:nonzero;stroke:none"
             id="path3091" /><path
             d="m 289.348,-409.551 5.464,-182.789 c 53.446,1.57 104.868,14.25 150.887,35.52 69.137,31.98 126.371,82.691 166.77,145.211 40.386,62.449 63.996,137.738 63.961,217.211 0,1.738 -0.008,3.48 -0.032,5.207 l 0,-0.039 c -0.64,52.449 -11.589,103.3394 -31.14,149.5308 -29.336,69.3437 -77.692,128.2969 -139.172,170.2422 -30.742,20.965 -64.816,37.66 -101.258,49.082 -36.418,11.434 -75.203,17.535 -114.758,17.523 -3.859,0 -7.742,-0.058 -11.644,-0.175 l -0.508,-0.016 0.531,0.016 C 225.004,195.402 173.566,182.73 127.535,161.449 58.375,129.477 1.12891,78.7461 -39.2656,16.2109 -79.6484,-46.25 -103.238,-121.539 -103.203,-200.988 c 0,-1.723 0.012,-3.453 0.031,-5.18 l 0,-0.031 c 0.664,-52.469 11.6408,-103.371 31.215,-149.563 29.3711,-69.347 77.76169,-128.277 139.2578,-170.199 30.7461,-20.949 64.8202,-37.641 101.2582,-49.051 36.41,-11.418 75.187,-17.519 114.734,-17.5 3.805,0 7.609,0.051 11.41,0.16 l 0.223,0.012 -0.114,0 -5.464,182.789 -5.364,182.801 -0.691,-0.012 c -3,0.032 -4.844,0.5 -6.93,1.352 -3.023,1.262 -6.492,3.898 -9.156,7.879 -1.324,1.98 -2.434,4.222 -3.242,6.801 -0.805,2.601 -1.352,5.519 -1.41,9.289 l 0,-0.11 0,0.082 -0.004,0.481 c 0.015,4.968 0.91,9.117 2.523,13.148 2.383,5.988 6.797,11.41 11.317,14.61 2.254,1.621 4.441,2.718 6.504,3.429 2.089,0.711 4.027,1.102 6.488,1.18 l 1.015,0.031 -0.992,-0.031 0.664,0.012 c 2.981,-0.032 4.797,-0.493 6.864,-1.332 2.992,-1.25 6.441,-3.868 9.097,-7.848 1.324,-1.973 2.43,-4.211 3.239,-6.789 0.8,-2.59 1.347,-5.512 1.402,-9.262 l 0,0.129 0,-0.18 0.004,-0.507 c -0.016,-4.961 -0.906,-9.09 -2.52,-13.122 -2.379,-5.992 -6.804,-11.421 -11.336,-14.621 -2.254,-1.621 -4.445,-2.718 -6.504,-3.437 -2.082,-0.711 -4.007,-1.094 -6.437,-1.172 l 0.105,0 5.364,-182.801"
             style="fill:#e1bbe0;fill-opacity:1;fill-rule:nonzero;stroke:none"
             id="path3093" /><path
             d="m 62.6484,451.461 c 2.5235,6.441 5.1485,12.918 7.8125,19.281 -0.8711,-5.781 -1.7031,-11.551 -2.5,-17.355 -1.7734,-0.633 -3.5468,-1.278 -5.3125,-1.926"
             style="fill:#922993;fill-opacity:1;fill-rule:nonzero;stroke:none"
             id="path3095" /><path
             d="m 11.0117,260.621 c 10.3672,66.246 27.8516,130.125 51.6367,190.84 1.7657,0.648 3.5391,1.293 5.3125,1.926 C 60.418,398.426 56.2148,342.445 55.5742,285.73 40.2734,278.047 25.3945,269.656 11.0117,260.621"
             style="fill:#ac51af;fill-opacity:1;fill-rule:nonzero;stroke:none"
             id="path3097" /><path
             d="M 1.33984,68.9375 C 0.40625,86.0859 -0.0429688,103.375 0.00390625,120.801 0.117188,168.324 3.875,215.027 11.0117,260.621 c 14.3828,9.035 29.2617,17.426 44.5625,25.109 -0.0586,-5.144 -0.0859,-10.3 -0.0859,-15.46 0,-5.754 0.0351,-11.524 0.1094,-17.297 l 0,-0.133 c 0.3437,-27.164 1.5039,-54.145 3.4531,-80.899 C 50.2266,148.77 42.0781,125.246 34.6445,101.418 22.9023,91.2383 11.7852,80.3906 1.33984,68.9375"
             style="fill:#c580c6;fill-opacity:1;fill-rule:nonzero;stroke:none"
             id="path3099" /><path
             d="M 7.74219,0 C 4.75781,22.7109 2.60547,45.6953 1.33984,68.9375 11.7852,80.3906 22.9023,91.2383 34.6445,101.418 24.2812,68.207 15.2852,34.3594 7.74219,0"
             style="fill:#e1bbe0;fill-opacity:1;fill-rule:nonzero;stroke:none"
             id="path3101" /><path
             d="m 335.312,805.008 c -7.656,0.277 -15.324,0.469 -23.015,0.566 13.312,11.563 27,22.762 40.973,33.516 -6.165,-11.25 -12.153,-22.613 -17.958,-34.082"
             style="fill:#5f247a;fill-opacity:1;fill-rule:nonzero;stroke:none"
             id="path3103" /><path
             d="m 161.887,637.656 c 43.097,62.207 93.691,118.656 150.41,167.918 7.691,-0.097 15.359,-0.289 23.015,-0.566 -25.429,-50.235 -47.39,-102.57 -65.554,-156.641 -36.543,-1.207 -72.563,-4.832 -107.871,-10.711"
             style="fill:#7c2292;fill-opacity:1;fill-rule:nonzero;stroke:none"
             id="path3105" /><path
             d="m 67.9609,453.387 c 0.7969,5.804 1.6289,11.574 2.5,17.355 24.7305,59.121 55.4531,114.996 91.4261,166.914 35.308,5.879 71.328,9.504 107.871,10.711 -17.301,-51.496 -31.164,-104.59 -41.297,-158.902 -55.637,-5.492 -109.5,-17.824 -160.5001,-36.078"
             style="fill:#933fa5;fill-opacity:1;fill-rule:nonzero;stroke:none"
             id="path3107" /><path
             d="m 55.5742,285.73 c 0.6406,56.715 4.8438,112.696 12.3867,167.657 51.0001,18.254 104.8631,30.586 160.5001,36.078 -1.051,-5.645 -2.059,-11.274 -3.031,-16.945 -37.645,-49.817 -71.594,-102.723 -101.383,-158.215 -18.07,-6.086 -35.6954,-13.114 -52.797,-21.02 -5.2773,-2.437 -10.5,-4.957 -15.6758,-7.555"
             style="fill:#ac65b9;fill-opacity:1;fill-rule:nonzero;stroke:none"
             id="path3109" /><path
             d="m 59.0508,171.941 c -1.9492,26.754 -3.1094,53.735 -3.4531,80.899 l 0,0.133 c -0.0743,5.773 -0.1094,11.543 -0.1094,17.297 0,5.16 0.0273,10.316 0.0859,15.46 5.1758,2.598 10.3985,5.118 15.6758,7.555 17.1016,7.906 34.727,14.934 52.797,21.02 C 99.4688,268.52 77.7461,221.031 59.0508,171.941 m -3.4492,80.879 0,0"
             style="fill:#c891ce;fill-opacity:1;fill-rule:nonzero;stroke:none"
             id="path3111" /><path
             d="m 580.422,918.684 c -23.656,6.168 -47.606,11.566 -71.828,16.168 41.715,20.054 85.14,36.828 130.07,50.035 -20.344,-21.203 -39.777,-43.293 -58.242,-66.203"
             style="fill:#4c4291;fill-opacity:1;fill-rule:nonzero;stroke:none"
             id="path3113" /><path
             d="m 490.078,786.75 c -50.383,10.145 -102.117,16.336 -154.766,18.258 5.805,11.469 11.793,22.832 17.958,34.082 48.207,37.101 100.234,69.273 155.324,95.762 24.222,-4.602 48.172,-10 71.828,-16.168 -22.555,-27.985 -43.672,-57.2 -63.238,-87.512 -9.399,-14.551 -18.434,-29.36 -27.106,-44.422"
             style="fill:#653ea1;fill-opacity:1;fill-rule:nonzero;stroke:none"
             id="path3115" /><path
             d="m 383.379,644.301 c -28.297,2.996 -56.973,4.527 -85.926,4.527 -0.039,0 -0.074,0 -0.113,0 -8.199,0 -16.418,-0.125 -24.656,-0.367 l 0.011,0 c -0.976,-0.031 -1.961,-0.063 -2.937,-0.094 18.164,54.071 40.125,106.406 65.554,156.641 52.649,-1.922 104.383,-8.113 154.766,-18.258 -17.207,-29.887 -32.965,-60.762 -47.164,-92.484 -20.363,-15.993 -40.242,-32.676 -59.535,-49.965"
             style="fill:#793da2;fill-opacity:1;fill-rule:nonzero;stroke:none"
             id="path3117" /><path
             d="m 228.461,489.465 c 10.133,54.312 23.996,107.406 41.297,158.902 0.976,0.031 1.961,0.063 2.937,0.094 l -0.011,0 c 8.238,0.242 16.457,0.367 24.656,0.367 0.039,0 0.074,0 0.113,0 28.953,0 57.629,-1.531 85.926,-4.527 -52.309,-46.863 -100.567,-98.375 -144.145,-153.86 -3.593,-0.296 -7.191,-0.625 -10.773,-0.976"
             style="fill:#9558b2;fill-opacity:1;fill-rule:nonzero;stroke:none"
             id="path3119" /><path
             d="m 225.43,472.52 c 0.972,5.671 1.98,11.3 3.031,16.945 3.582,0.351 7.18,0.68 10.773,0.976 -4.664,-5.941 -9.246,-11.89 -13.804,-17.921"
             style="fill:#ae79c3;fill-opacity:1;fill-rule:nonzero;stroke:none"
             id="path3121" /><path
             d="m 865.105,978.336 c -25.675,12.914 -51.855,24.964 -78.496,36.124 26.758,2.92 53.887,4.6 81.289,4.98 3.989,0.05 7.985,0.08 11.957,0.08 15.54,0 30.969,-0.42 46.297,-1.25 -20.964,-12.46 -41.316,-25.774 -61.047,-39.934"
             style="fill:#4365b0;fill-opacity:1;fill-rule:nonzero;stroke:none"
             id="path3123" /><path
             d="m 736.734,865.004 c -34.222,14.726 -69.336,27.769 -105.23,39.019 -16.856,5.286 -33.895,10.176 -51.082,14.661 18.465,22.91 37.898,45 58.242,66.203 47.801,14.051 97.246,24.043 147.945,29.573 26.641,-11.16 52.821,-23.21 78.496,-36.124 C 818.562,944.934 775.57,906.918 736.734,865.004"
             style="fill:#5561b6;fill-opacity:1;fill-rule:nonzero;stroke:none"
             id="path3125" /><path
             d="m 553.863,771.605 c -20.996,5.754 -42.265,10.809 -63.785,15.145 8.672,15.062 17.707,29.871 27.106,44.422 19.566,30.312 40.683,59.527 63.238,87.512 17.187,-4.485 34.226,-9.375 51.082,-14.661 35.894,-11.25 71.008,-24.293 105.23,-39.019 -0.925,-1.004 -1.847,-2 -2.769,-3.008 -62.774,-24.937 -123.008,-55.269 -180.102,-90.391"
             style="fill:#6a5db4;fill-opacity:1;fill-rule:nonzero;stroke:none"
             id="path3127" /><path
             d="m 442.914,694.266 c 14.199,31.722 29.957,62.597 47.164,92.484 21.52,-4.336 42.789,-9.391 63.785,-15.145 -38.461,-23.66 -75.476,-49.484 -110.949,-77.339"
             style="fill:#7e59b2;fill-opacity:1;fill-rule:nonzero;stroke:none"
             id="path3129" /><path
             d="m 1180.83,957.832 c -4.87,3.906 -9.76,7.781 -14.68,11.621 8.16,-2.961 16.28,-6.051 24.33,-9.258 -3.23,-0.765 -6.44,-1.55 -9.65,-2.363"
             style="fill:#4786ce;fill-opacity:1;fill-rule:nonzero;stroke:none"
             id="path3131" /><path
             d="m 959.305,925.754 c -30.563,18.828 -61.989,36.383 -94.2,52.582 19.731,14.16 40.083,27.474 61.047,39.934 83.858,-4.56 164.408,-21.403 239.998,-48.817 4.92,-3.84 9.81,-7.715 14.68,-11.621 -17.59,-4.441 -34.91,-9.57 -51.93,-15.359 -57.63,-1.379 -114.25,-7.051 -169.595,-16.719"
             style="fill:#5283cb;fill-opacity:1;fill-rule:nonzero;stroke:none"
             id="path3133" /><path
             d="m 739.051,864.004 c -0.77,0.332 -1.543,0.668 -2.317,1 38.836,41.914 81.828,79.93 128.371,113.332 32.211,-16.199 63.637,-33.754 94.2,-52.582 -76.098,-13.297 -149.801,-34.152 -220.254,-61.75"
             style="fill:#627fc8;fill-opacity:1;fill-rule:nonzero;stroke:none"
             id="path3135" /><path
             d="m 733.965,861.996 c 0.922,1.008 1.844,2.004 2.769,3.008 0.774,-0.332 1.547,-0.668 2.317,-1 -1.707,-0.668 -3.387,-1.332 -5.086,-2.008"
             style="fill:#747cc6;fill-opacity:1;fill-rule:nonzero;stroke:none"
             id="path3137" /><path
             d="m 1237.22,939.906 c -12.26,0.864 -24.57,1.539 -36.92,2.024 -6.44,5.355 -12.94,10.664 -19.47,15.902 3.21,0.813 6.42,1.598 9.65,2.363 15.82,-6.3 31.4,-13.07 46.74,-20.289"
             style="fill:#5c9edb;fill-opacity:1;fill-rule:nonzero;stroke:none"
             id="path3139" /><path
             d="m 1200.3,941.93 c -14.72,0.574 -29.51,0.871 -44.37,0.871 -5.1,0 -10.2,-0.035 -15.31,-0.106 -3.92,-0.054 -7.82,-0.129 -11.72,-0.222 17.02,5.789 34.34,10.918 51.93,15.359 6.53,-5.238 13.03,-10.547 19.47,-15.902"
             style="fill:#6a9ad8;fill-opacity:1;fill-rule:nonzero;stroke:none"
             id="path3141" /></g></g></g></g></svg>
