<?xml version="1.0" encoding="UTF-8" standalone="no"?>
<svg
   xmlns:dc="http://purl.org/dc/elements/1.1/"
   xmlns:cc="http://creativecommons.org/ns#"
   xmlns:rdf="http://www.w3.org/1999/02/22-rdf-syntax-ns#"
   xmlns:svg="http://www.w3.org/2000/svg"
   xmlns="http://www.w3.org/2000/svg"
   xmlns:sodipodi="http://sodipodi.sourceforge.net/DTD/sodipodi-0.dtd"
   xmlns:inkscape="http://www.inkscape.org/namespaces/inkscape"
   version="1.0"
   width="235.000000pt"
   height="234.000000pt"
   viewBox="0 0 235.000000 234.000000"
   preserveAspectRatio="xMidYMid meet"
   id="svg8589"
   inkscape:version="0.48.3.1 r9886"
   sodipodi:docname="ETH_logo_black.svg">
  <defs
     id="defs8599" />
  <sodipodi:namedview
     pagecolor="#ffffff"
     bordercolor="#666666"
     borderopacity="1"
     objecttolerance="10"
     gridtolerance="10"
     guidetolerance="10"
     inkscape:pageopacity="0"
     inkscape:pageshadow="2"
     inkscape:window-width="1052"
     inkscape:window-height="654"
     id="namedview8597"
     showgrid="false"
     inkscape:zoom="0.80683761"
     inkscape:cx="146.875"
     inkscape:cy="146.25"
     inkscape:window-x="324"
     inkscape:window-y="207"
     inkscape:window-maximized="0"
     inkscape:current-layer="svg8589" />
  <metadata
     id="metadata8591">
Created by potrace 1.10, written by Peter Selinger 2001-2011
<rdf:RDF>
  <cc:Work
     rdf:about="">
    <dc:format>image/svg+xml</dc:format>
    <dc:type
       rdf:resource="http://purl.org/dc/dcmitype/StillImage" />
    <dc:title></dc:title>
  </cc:Work>
</rdf:RDF>
</metadata>
  <g
     transform="translate(0.000000,234.000000) scale(0.100000,-0.100000)"
     fill="#000000"
     stroke="none"
     id="g8593"
     style="fill:#ffffff;fill-opacity:1">
    <path
       d="M175 1558 c-6 -19 -165 -742 -165 -750 0 -5 153 -8 339 -8 l339 0 17 78 c9 42 19 87 22 100 l5 22 -197 0 -198 0 7 42 c4 22 9 45 12 50 3 4 90 8 194 8 171 0 189 2 194 18 6 20 36 151 36 158 0 2 -86 4 -191 4 -176 0 -190 1 -186 18 3 9 8 29 11 45 l6 27 310 0 310 0 -7 -27 c-3 -16 -32 -142 -63 -281 -40 -178 -54 -255 -46 -258 7 -3 70 -3 141 -2 l129 3 63 279 c34 153 64 281 66 283 3 2 56 2 119 1 l115 -3 -62 -278 c-44 -195 -59 -280 -51 -283 7 -3 68 -3 137 -2 l124 3 35 145 36 145 87 3 c48 1 87 1 87 -2 0 -3 -13 -69 -30 -146 -16 -77 -30 -143 -30 -145 0 -3 59 -5 130 -5 95 0 132 3 135 13 3 6 43 180 89 385 l83 372 -132 0 -133 0 -34 -137 -33 -138 -87 -3 c-67 -2 -88 0 -88 10 0 7 13 70 29 141 l28 127 -849 0 c-670 0 -849 -3 -853 -12z"
       id="path8595"
       style="fill:#ffffff;fill-opacity:1" />
  </g>
</svg>
