<?xml version="1.0" standalone="no"?>
<!DOCTYPE svg PUBLIC "-//W3C//DTD SVG 20010904//EN"
 "http://www.w3.org/TR/2001/REC-SVG-20010904/DTD/svg10.dtd">
<svg version="1.0" xmlns="http://www.w3.org/2000/svg"
 width="235.000000pt" height="234.000000pt" viewBox="0 0 235.000000 234.000000"
 preserveAspectRatio="xMidYMid meet">
<metadata>
Created by potrace 1.10, written by Peter Selinger 2001-2011
</metadata>
<g transform="translate(0.000000,234.000000) scale(0.100000,-0.100000)"
fill="#000000" stroke="none">
<path d="M175 1558 c-6 -19 -165 -742 -165 -750 0 -5 153 -8 339 -8 l339 0 17
78 c9 42 19 87 22 100 l5 22 -197 0 -198 0 7 42 c4 22 9 45 12 50 3 4 90 8
194 8 171 0 189 2 194 18 6 20 36 151 36 158 0 2 -86 4 -191 4 -176 0 -190 1
-186 18 3 9 8 29 11 45 l6 27 310 0 310 0 -7 -27 c-3 -16 -32 -142 -63 -281
-40 -178 -54 -255 -46 -258 7 -3 70 -3 141 -2 l129 3 63 279 c34 153 64 281
66 283 3 2 56 2 119 1 l115 -3 -62 -278 c-44 -195 -59 -280 -51 -283 7 -3 68
-3 137 -2 l124 3 35 145 36 145 87 3 c48 1 87 1 87 -2 0 -3 -13 -69 -30 -146
-16 -77 -30 -143 -30 -145 0 -3 59 -5 130 -5 95 0 132 3 135 13 3 6 43 180 89
385 l83 372 -132 0 -133 0 -34 -137 -33 -138 -87 -3 c-67 -2 -88 0 -88 10 0 7
13 70 29 141 l28 127 -849 0 c-670 0 -849 -3 -853 -12z"/>
</g>
</svg>
