<?xml version="1.0" encoding="UTF-8" standalone="no"?>
<!-- Created with Inkscape (http://www.inkscape.org/) -->

<svg
   xmlns:dc="http://purl.org/dc/elements/1.1/"
   xmlns:cc="http://creativecommons.org/ns#"
   xmlns:rdf="http://www.w3.org/1999/02/22-rdf-syntax-ns#"
   xmlns:svg="http://www.w3.org/2000/svg"
   xmlns="http://www.w3.org/2000/svg"
   xmlns:sodipodi="http://sodipodi.sourceforge.net/DTD/sodipodi-0.dtd"
   xmlns:inkscape="http://www.inkscape.org/namespaces/inkscape"
   id="svg5044"
   version="1.1"
   inkscape:version="0.48.3.1 r9886"
   width="194.89"
   height="161.41786"
   preserveAspectRatio="xMinYMin meet"
   viewBox="0 0 194.89 161.41786"
   xml:space="preserve"
   sodipodi:docname="igpp_logo_white.svg"><metadata
     id="metadata5050"><rdf:RDF><cc:Work
         rdf:about=""><dc:format>image/svg+xml</dc:format><dc:type
           rdf:resource="http://purl.org/dc/dcmitype/StillImage" /><dc:title /></cc:Work></rdf:RDF></metadata><defs
     id="defs5048" /><sodipodi:namedview
     pagecolor="#ffffff"
     bordercolor="#666666"
     borderopacity="1"
     objecttolerance="10"
     gridtolerance="10"
     guidetolerance="10"
     inkscape:pageopacity="0"
     inkscape:pageshadow="2"
     inkscape:window-width="1646"
     inkscape:window-height="792"
     id="namedview5046"
     showgrid="false"
     fit-margin-top="0"
     fit-margin-left="0"
     fit-margin-right="0"
     fit-margin-bottom="0"
     inkscape:zoom="1.8218662"
     inkscape:cx="-64.478132"
     inkscape:cy="96.655359"
     inkscape:window-x="7"
     inkscape:window-y="24"
     inkscape:window-maximized="0"
     inkscape:current-layer="g5052" /><g
     id="g5052"
     inkscape:groupmode="layer"
     inkscape:label="ink_ext_XXXXXX"
     transform="matrix(1.25,0,0,-1.25,0,129.53125)"><g
   id="g5054"
   transform="scale(0.1,0.1)"
   style="fill:#ffffff;fill-opacity:1"><path
     d="m 419.703,676.254 c 0,198.82 161.176,359.996 360.004,359.996 198.813,0 360.003,-161.176 360.003,-359.996 0,-198.816 -161.19,-360 -360.003,-360 -198.828,0 -360.004,161.184 -360.004,360 z m 360.004,-225 c 124.242,0 225.003,100.734 225.003,225 0,124.258 -100.761,225 -225.003,225 -124.269,0 -225,-100.742 -225,-225 0,-124.266 100.731,-225 225,-225"
     style="fill:#ffffff;fill-opacity:1;fill-rule:nonzero;stroke:none"
     id="path5056"
     inkscape:connector-curvature="0" /><path
     d="M 1004.71,0 779.707,225.004 554.707,0 1004.71,0"
     style="fill:#ffffff;fill-opacity:1;fill-rule:nonzero;stroke:none"
     id="path5058"
     inkscape:connector-curvature="0" /><path
     d="M 0,676.426 C 155.59,407.324 446.504,226.254 779.707,226.254 c 332.953,0 623.713,180.82 779.383,449.629 l 0.03,0.551 c -102.42,29 -180.11,116.941 -194.06,224.859 l -0.35,-0.039 c 0,-323.09 -261.93,-585 -585.003,-585 -323.098,0 -585.004,261.91 -585.004,585 l -0.461,0.051 C 180.312,793.562 102.883,705.727 0.703125,676.578 L 0,676.426"
     style="fill:#ffffff;fill-opacity:1;fill-rule:nonzero;stroke:none"
     id="path5060"
     inkscape:connector-curvature="0" /></g><text
   xml:space="preserve"
   style="font-size:32px;font-style:normal;font-variant:normal;font-weight:500;font-stretch:normal;line-height:125%;letter-spacing:0px;word-spacing:0px;fill:#ffffff;fill-opacity:1;stroke:none;font-family:Century Schoolbook L;-inkscape-font-specification:Century Schoolbook L Medium"
   x="37.337997"
   y="25.029289"
   id="text5062"
   sodipodi:linespacing="125%"
   transform="scale(1,-1)"><tspan
     sodipodi:role="line"
     id="tspan5064"
     x="37.337997"
     y="25.029289">IGPP</tspan></text>

</g></svg>
