<?xml version="1.0" encoding="UTF-8" standalone="no"?>
<!-- Created with Inkscape (http://www.inkscape.org/) -->

<svg
   xmlns:dc="http://purl.org/dc/elements/1.1/"
   xmlns:cc="http://creativecommons.org/ns#"
   xmlns:rdf="http://www.w3.org/1999/02/22-rdf-syntax-ns#"
   xmlns:svg="http://www.w3.org/2000/svg"
   xmlns="http://www.w3.org/2000/svg"
   xmlns:sodipodi="http://sodipodi.sourceforge.net/DTD/sodipodi-0.dtd"
   xmlns:inkscape="http://www.inkscape.org/namespaces/inkscape"
   width="226.5625"
   height="226.59375"
   id="svg6292"
   version="1.1"
   inkscape:version="0.48.3.1 r9886"
   sodipodi:docname="New document 8">
  <defs
     id="defs6294" />
  <sodipodi:namedview
     id="base"
     pagecolor="#ffffff"
     bordercolor="#666666"
     borderopacity="1.0"
     inkscape:pageopacity="0.0"
     inkscape:pageshadow="2"
     inkscape:zoom="0.35"
     inkscape:cx="113.28097"
     inkscape:cy="113.29764"
     inkscape:document-units="px"
     inkscape:current-layer="layer1"
     showgrid="false"
     fit-margin-top="0"
     fit-margin-left="0"
     fit-margin-right="0"
     fit-margin-bottom="0"
     inkscape:window-width="1614"
     inkscape:window-height="851"
     inkscape:window-x="66"
     inkscape:window-y="61"
     inkscape:window-maximized="0" />
  <metadata
     id="metadata6297">
    <rdf:RDF>
      <cc:Work
         rdf:about="">
        <dc:format>image/svg+xml</dc:format>
        <dc:type
           rdf:resource="http://purl.org/dc/dcmitype/StillImage" />
        <dc:title></dc:title>
      </cc:Work>
    </rdf:RDF>
  </metadata>
  <g
     inkscape:label="Layer 1"
     inkscape:groupmode="layer"
     id="layer1"
     transform="translate(-84.265773,-644.76593)">
    <g
       transform="translate(-162.67697,117.25983)"
       id="g6019"
       style="fill:none;stroke:none">
      <path
         inkscape:connector-curvature="0"
         d="m 537.55509,504.82298 c -49.71375,0 -90.0125,-40.30625 -90.0125,-90.0175 0,-49.72 40.29875,-90.0175 90.0125,-90.0175 49.72125,0 90.02875,40.2975 90.02875,90.0175 0,49.71125 -40.3075,90.0175 -90.02875,90.0175 z m 0.1325,-202.4475 c -62.25625,0 -112.7325,50.47125 -112.7325,112.73375 0,62.24875 50.47625,112.72 112.7325,112.72 62.25375,0 112.71125,-50.47125 112.71125,-112.72 0,-62.2625 -50.4575,-112.73375 -112.71125,-112.73375"
         style="fill:none;stroke:none"
         id="path3904" />
      <path
         inkscape:connector-curvature="0"
         d="m 537.55509,504.82298 c -49.71375,0 -90.0125,-40.30625 -90.0125,-90.0175 0,-49.72 40.29875,-90.0175 90.0125,-90.0175 49.72125,0 90.02875,40.2975 90.02875,90.0175 0,49.71125 -40.3075,90.0175 -90.02875,90.0175 z m 0.1325,-202.4475 c -62.25625,0 -112.7325,50.47125 -112.7325,112.73375 0,62.24875 50.47625,112.72 112.7325,112.72 62.25375,0 112.71125,-50.47125 112.71125,-112.72 0,-62.2625 -50.4575,-112.73375 -112.71125,-112.73375 z"
         style="fill:none;stroke:none"
         id="path3906" />
      <path
         inkscape:connector-curvature="0"
         d="m 627.53884,420.01798 c -0.8,-0.22875 -1.80625,-0.37375 -3.2075,-0.37375 -5.66875,0 -4.72375,2.46125 -10.915,2.46125 -6.185,0 -5.17875,-2.46125 -10.8475,-2.46125 -5.65875,0 -4.65375,2.46125 -10.845,2.46125 -6.18875,0 -5.18,-2.46125 -10.8475,-2.46125 -5.66875,0 -4.6575,2.46125 -10.84375,2.46125 -6.18,0 -5.17625,-2.46125 -10.845,-2.46125 -5.66125,0 -4.65625,2.46125 -10.8425,2.46125 -6.1875,0 -5.1825,-2.46125 -10.84625,-2.46125 -5.66875,0 -4.6575,2.46125 -10.84625,2.46125 -6.1875,0 -5.17625,-2.46125 -10.84,-2.46125 -5.67,0 -4.65875,2.46125 -10.84625,2.46125 -6.1825,0 -5.1775,-2.46125 -10.85125,-2.46125 -5.65875,0 -4.6575,2.46125 -10.84,2.46125 -6.18875,0 -5.1775,-2.46125 -10.84625,-2.46125 -5.67,0 -4.65375,2.46125 -10.84,2.46125 -6.18875,0 -5.1825,-2.46125 -10.85125,-2.46125 -1.415,0 -2.41375,0.145 -3.21625,0.38625"
         style="fill:none;stroke:none"
         id="path3908" />
      <path
         inkscape:connector-curvature="0"
         d="m 625.91884,432.46298 c -0.46625,-0.0525 -0.99375,-0.08 -1.5875,-0.08 -5.66875,0 -4.72375,2.46625 -10.915,2.46625 -6.185,0 -5.17875,-2.46625 -10.8475,-2.46625 -5.65875,0 -4.65375,2.46625 -10.845,2.46625 -6.18875,0 -5.18,-2.46625 -10.8475,-2.46625 -5.66875,0 -4.6575,2.46625 -10.84375,2.46625 -6.18,0 -5.17625,-2.46625 -10.845,-2.46625 -5.66125,0 -4.65625,2.46625 -10.8425,2.46625 -6.1875,0 -5.1825,-2.46625 -10.84625,-2.46625 -5.66875,0 -4.6575,2.46625 -10.84625,2.46625 -6.1875,0 -5.17625,-2.46625 -10.84,-2.46625 -5.67,0 -4.65875,2.46625 -10.84625,2.46625 -6.1825,0 -5.1775,-2.46625 -10.85125,-2.46625 -5.65875,0 -4.6575,2.46625 -10.84,2.46625 -6.18875,0 -5.1775,-2.46625 -10.84625,-2.46625 -5.67,0 -4.65375,2.46625 -10.84,2.46625 -6.18875,0 -5.1825,-2.46625 -10.85125,-2.46625 -0.57125,0 -1.08,0.0275 -1.53375,0.0713"
         style="fill:none;stroke:none"
         id="path3910" />
      <path
         inkscape:connector-curvature="0"
         d="m 622.35884,445.25548 c -3.57,0.4925 -3.58625,2.3375 -8.9425,2.3375 -6.185,0 -5.17875,-2.46 -10.8475,-2.46 -5.65875,0 -4.65375,2.46 -10.845,2.46 -6.18875,0 -5.18,-2.46 -10.8475,-2.46 -5.66875,0 -4.6575,2.46 -10.84375,2.46 -6.18,0 -5.17625,-2.46 -10.845,-2.46 -5.66125,0 -4.65625,2.46 -10.8425,2.46 -6.1875,0 -5.1825,-2.46 -10.84625,-2.46 -5.66875,0 -4.6575,2.46 -10.84625,2.46 -6.1875,0 -5.17625,-2.46 -10.84,-2.46 -5.67,0 -4.65875,2.46 -10.84625,2.46 -6.1825,0 -5.1775,-2.46 -10.85125,-2.46 -5.65875,0 -4.6575,2.46 -10.84,2.46 -6.18875,0 -5.1775,-2.46 -10.84625,-2.46 -5.67,0 -4.65375,2.46 -10.84,2.46 -5.42,0 -5.3225,-1.885 -9.00875,-2.35875"
         style="fill:none;stroke:none"
         id="path3912" />
      <path
         inkscape:connector-curvature="0"
         d="m 615.42759,460.23673 c -0.58125,0.0612 -1.2425,0.10125 -2.01125,0.10125 -6.185,0 -5.17875,-2.46125 -10.8475,-2.46125 -5.65875,0 -4.65375,2.46125 -10.845,2.46125 -6.18875,0 -5.18,-2.46125 -10.8475,-2.46125 -5.66875,0 -4.6575,2.46125 -10.84375,2.46125 -6.18,0 -5.17625,-2.46125 -10.845,-2.46125 -5.66125,0 -4.65625,2.46125 -10.8425,2.46125 -6.1875,0 -5.1825,-2.46125 -10.84625,-2.46125 -5.66875,0 -4.6575,2.46125 -10.84625,2.46125 -6.1875,0 -5.17625,-2.46125 -10.84,-2.46125 -5.67,0 -4.65875,2.46125 -10.84625,2.46125 -6.1825,0 -5.1775,-2.46125 -10.85125,-2.46125 -5.65875,0 -4.6575,2.46125 -10.84,2.46125 -6.18875,0 -5.1775,-2.46125 -10.84625,-2.46125 -5.67,0 -4.65375,2.46125 -10.84,2.46125 -0.77375,0 -1.43875,-0.04 -2.01,-0.10125"
         style="fill:none;stroke:none"
         id="path3914" />
      <path
         inkscape:connector-curvature="0"
         d="m 607.53509,471.71423 c -1.1425,-0.56625 -2.33,-1.09375 -4.96625,-1.09375 -5.65875,0 -4.65375,2.46125 -10.845,2.46125 -6.18875,0 -5.18,-2.46125 -10.8475,-2.46125 -5.66875,0 -4.6575,2.46125 -10.84375,2.46125 -6.18,0 -5.17625,-2.46125 -10.845,-2.46125 -5.66125,0 -4.65625,2.46125 -10.8425,2.46125 -6.1875,0 -5.1825,-2.46125 -10.84625,-2.46125 -5.66875,0 -4.6575,2.46125 -10.84625,2.46125 -6.1875,0 -5.17625,-2.46125 -10.84,-2.46125 -5.67,0 -4.65875,2.46125 -10.84625,2.46125 -6.1825,0 -5.1775,-2.46125 -10.85125,-2.46125 -5.65875,0 -4.6575,2.46125 -10.84,2.46125 -6.18875,0 -5.1775,-2.46125 -10.84625,-2.46125 -2.55625,0 -3.7575,0.4975 -4.86,1.05"
         style="fill:none;stroke:none"
         id="path3916" />
      <path
         inkscape:connector-curvature="0"
         d="m 592.98884,485.75173 c -0.495,0.0437 -1.8425,0.0738 -2.48375,0.0738 -6.12125,0 -5.12375,-2.46125 -10.7275,-2.46125 -5.60625,0 -4.60625,2.46125 -10.725,2.46125 -6.11,0 -5.1175,-2.46125 -10.725,-2.46125 -5.5975,0 -4.60375,2.46125 -10.72125,2.46125 -6.11875,0 -5.12375,-2.46125 -10.72625,-2.46125 -5.60625,0 -4.60625,2.46125 -10.72625,2.46125 -6.1175,0 -5.12,-2.46125 -10.72,-2.46125 -5.60625,0 -4.6075,2.46125 -10.72625,2.46125 -6.115,0 -5.12,-2.46125 -10.73,-2.46125 -5.8325,0 -4.36375,2.46 -10.24375,2.46 -0.5875,0 -0.99125,0.0888 -1.465,0.0437"
         style="fill:none;stroke:none"
         id="path3918" />
      <path
         inkscape:connector-curvature="0"
         d="m 570.75759,498.49548 c -0.505,0.0437 -1.0625,0.075 -1.705,0.075 -6.11,0 -5.1175,-2.46125 -10.725,-2.46125 -5.5975,0 -4.60375,2.46125 -10.72125,2.46125 -6.11875,0 -5.12375,-2.46125 -10.72625,-2.46125 -5.60625,0 -4.60625,2.46125 -10.72625,2.46125 -6.1175,0 -5.12,-2.46125 -10.72,-2.46125 -5.60625,0 -4.5325,2.57 -10.6525,2.57"
         style="fill:none;stroke:none"
         id="path3920" />
      <path
         inkscape:connector-curvature="0"
         d="m 433.41884,409.88173 c -0.60875,0.3325 -0.92875,0.77625 -0.955,1.4975 -0.0288,0.75875 0.45875,1.6125 1.29375,1.64375 0.74625,0.0288 1.16625,-0.69125 1.415,-1.27625 l 0.29125,-0.67375 c 0.58125,-1.3325 1.365,-2.3175 2.96,-2.2575 1.73125,0.065 2.92125,1.45125 2.8575,3.15875 -0.0575,1.54375 -1.24125,2.7025 -2.77875,2.8475 l -0.2075,-1.21125 c 1.04875,0.0525 1.83875,-0.755 1.8775,-1.77875 0.0375,-1.02375 -0.795,-1.79 -1.79375,-1.8275 -1.025,-0.0387 -1.4975,0.7675 -1.87,1.57625 l -0.3025,0.6475 c -0.50875,1.07 -1.16625,2.03375 -2.49375,1.98375 -1.5425,-0.0575 -2.415,-1.4575 -2.36125,-2.9 0.04,-1.0625 0.59125,-1.915 1.53375,-2.4 l 0.53375,0.97"
         style="fill:none;stroke:none"
         id="path3922" />
      <path
         inkscape:connector-curvature="0"
         d="m 434.71009,397.97673 c -0.6925,0.59625 -1.14375,1.48125 -1.2625,2.37125 -0.285,2.12 1.26625,3.97625 3.36125,4.2575 2.07,0.2775 4.05375,-1.09125 4.33625,-3.1975 0.125,-0.92875 -0.1075,-1.8675 -0.63875,-2.6525 l 1.39125,0.18625 c 0.32875,0.785 0.4425,1.745 0.33125,2.5725 -0.3625,2.6975 -2.80625,4.64125 -5.54,4.275 -2.7975,-0.375 -4.67875,-2.91375 -4.30625,-5.69875 0.11125,-0.8275 0.425,-1.64125 0.96,-2.2975 l 1.3675,0.18375"
         style="fill:none;stroke:none"
         id="path3924" />
      <path
         inkscape:connector-curvature="0"
         d="m 439.58509,392.24798 c 0.15375,-1.38125 -0.7475,-2.5275 -2.07875,-2.83875 -0.8875,-0.20625 -1.86625,0.0325 -2.50375,0.7025 -0.59125,0.64125 -0.81125,1.52625 -1.005,2.35125 l -0.3275,1.405 9.29125,2.17125 0.27125,-1.15875 -3.93125,-0.9175 0.11125,-0.48125 4.5725,-1.8175 0.3275,-1.405 -4.7275,1.98875 z m -4.60875,0.70375 0.0713,-0.3075 c 0.2675,-1.14625 0.8,-2.47875 2.25375,-2.13875 1.48,0.34625 1.40125,1.68 1.125,2.8625 l -0.0863,0.37 -3.36375,-0.78625"
         style="fill:none;stroke:none"
         id="path3926" />
      <path
         inkscape:connector-curvature="0"
         d="m 445.46259,386.55048 -0.35125,1.13625 -9.1175,-2.815 0.35,-1.1375 9.11875,2.81625"
         style="fill:none;stroke:none"
         id="path3928" />
      <path
         inkscape:connector-curvature="0"
         d="m 443.27509,380.60173 0.245,-0.63875 c 0.6475,-1.68875 0.47625,-3.395 -1.40125,-4.11625 -1.63125,-0.62625 -2.90375,-0.13875 -3.95625,2.6025 l -0.48875,1.27625 8.90875,3.42 0.42625,-1.11 -3.73375,-1.43375 z m -4.1825,-1.60625 0.1125,-0.295 c 0.42125,-1.09875 1.095,-2.35875 2.49,-1.8225 1.4175,0.54375 1.15875,1.85375 0.72375,2.98875 l -0.1375,0.35375 -3.18875,-1.225"
         style="fill:none;stroke:none"
         id="path3930" />
      <path
         inkscape:connector-curvature="0"
         d="m 446.46134,373.01298 0.29625,-0.615 c 0.785,-1.63125 0.755,-3.345 -1.0575,-4.21875 -1.57375,-0.7575 -2.88125,-0.37625 -4.155,2.26875 l -0.59375,1.23125 8.59625,4.14125 0.51625,-1.07125 -3.6025,-1.73625 z m -4.03625,-1.94375 0.1375,-0.285 c 0.51,-1.06125 1.285,-2.26125 2.63125,-1.6125 1.3675,0.65875 1.00125,1.94375 0.47375,3.03875 l -0.16375,0.34125 -3.07875,-1.4825"
         style="fill:none;stroke:none"
         id="path3932" />
      <path
         inkscape:connector-curvature="0"
         d="m 448.59759,361.18173 c -0.6925,0.002 -1.18625,0.24 -1.5525,0.86125 -0.3875,0.65375 -0.365,1.63625 0.35375,2.06125 0.6425,0.38 1.35375,-0.0525 1.85375,-0.44875 l 0.57625,-0.4525 c 1.14625,-0.895 2.30375,-1.38625 3.6775,-0.575 1.49125,0.8825 1.8775,2.66875 1.0075,4.13875 -0.785,1.33 -2.37875,1.785 -3.79875,1.18 l 0.39375,-1.16375 c 0.8975,0.545 1.97625,0.2125 2.4975,-0.67 0.5225,-0.8825 0.155,-1.9525 -0.705,-2.46125 -0.88375,-0.52125 -1.68375,-0.0387 -2.39625,0.495 l -0.57375,0.425 c -0.9575,0.69875 -1.99375,1.23375 -3.1375,0.5575 -1.33,-0.78625 -1.43,-2.43375 -0.695,-3.675 0.54125,-0.915 1.4325,-1.4025 2.49125,-1.38 l 0.008,1.1075"
         style="fill:none;stroke:none"
         id="path3934" />
      <path
         inkscape:connector-curvature="0"
         d="m 461.46009,356.22923 -0.7275,0.94125 -7.54875,-5.8375 0.7275,-0.94125 7.54875,5.8375"
         style="fill:none;stroke:none"
         id="path3936" />
      <path
         inkscape:connector-curvature="0"
         d="m 456.10884,346.84548 10.37375,-0.21125 -5.1975,-4.7625 0.8025,-0.8775 7.325,6.7125 -10.3725,0.21125 5.245,4.805 -0.805,0.8775 -7.37125,-6.755"
         style="fill:none;stroke:none"
         id="path3938" />
      <path
         inkscape:connector-curvature="0"
         d="m 469.55759,336.60298 c -0.66125,-0.20875 -1.2025,-0.13375 -1.7425,0.34625 -0.5675,0.50375 -0.8475,1.44625 -0.2925,2.07125 0.49625,0.55875 1.30625,0.36375 1.90125,0.13875 l 0.6875,-0.255 c 1.36625,-0.5025 2.61875,-0.61625 3.6775,0.57625 1.15125,1.29625 0.9725,3.11375 -0.305,4.24875 -1.15375,1.025 -2.81,0.9725 -3.9775,-0.0375 l 0.73125,-0.9875 c 0.6875,0.79375 1.81625,0.80625 2.5825,0.125 0.76625,-0.68125 0.74375,-1.81125 0.08,-2.55875 -0.68125,-0.76625 -1.59125,-0.55125 -2.4325,-0.26 l -0.6775,0.22875 c -1.12375,0.3725 -2.27375,0.565 -3.15625,-0.42875 -1.025,-1.15375 -0.6175,-2.7525 0.46,-3.71125 0.79625,-0.705 1.79375,-0.8975 2.79375,-0.55125 l -0.33,1.055"
         style="fill:none;stroke:none"
         id="path3940" />
      <path
         inkscape:connector-curvature="0"
         d="m 479.98759,338.17798 -0.95,0.715 -5.08125,-6.7575 -1.81125,1.36 -0.6525,-0.87 4.5725,-3.43625 0.6525,0.86875 -1.81,1.36125 5.08,6.75875"
         style="fill:none;stroke:none"
         id="path3942" />
      <path
         inkscape:connector-curvature="0"
         d="m 484.94384,334.73423 -0.99375,0.655 -5.24625,-7.97125 0.99375,-0.655 5.24625,7.97125"
         style="fill:none;stroke:none"
         id="path3944" />
      <path
         inkscape:connector-curvature="0"
         d="m 490.10759,331.60673 -1.0325,0.59 -4.19625,-7.33875 -1.9675,1.125 -0.54,-0.945 4.96625,-2.84 0.54,0.945 -1.96625,1.125 4.19625,7.33875"
         style="fill:none;stroke:none"
         id="path3946" />
      <path
         inkscape:connector-curvature="0"
         d="m 491.31009,320.18923 2.33875,5.12375 c 0.6475,1.415 1.6725,2.53375 3.3425,1.77125 1.66875,-0.7625 1.495,-2.26875 0.84875,-3.685 l -2.33875,-5.12375 1.08125,-0.49375 2.50875,5.49125 c 0.8725,1.91125 0.35375,3.915 -1.6375,4.82375 -1.9925,0.91 -3.845,-0.01 -4.7175,-1.92125 l -2.50875,-5.4925 1.0825,-0.49375"
         style="fill:none;stroke:none"
         id="path3948" />
      <path
         inkscape:connector-curvature="0"
         d="m 506.02134,324.45798 -1.12375,0.3925 -2.79625,-7.9775 -2.1375,0.75 -0.36,-1.0275 5.3975,-1.8925 0.36,1.0275 -2.1375,0.74875 2.7975,7.97875"
         style="fill:none;stroke:none"
         id="path3950" />
      <path
         inkscape:connector-curvature="0"
         d="m 511.78509,322.67923 -1.145,0.32125 -2.5825,-9.18625 1.14625,-0.32125 2.58125,9.18625"
         style="fill:none;stroke:none"
         id="path3952" />
      <path
         inkscape:connector-curvature="0"
         d="m 517.51884,311.36048 c -2.6875,0.5075 -4.49625,3.13 -3.98875,5.81625 0.52625,2.785 3.125,4.47125 5.83625,3.95875 2.71125,-0.5125 4.515,-3.03125 3.98875,-5.81625 -0.5075,-2.68625 -3.15125,-4.46625 -5.83625,-3.95875 z m 1.64,8.68 c -2.02625,0.38375 -4.055,-0.94625 -4.46,-3.085 -0.39,-2.06375 0.825,-4.085 3.02625,-4.50125 2.2025,-0.41625 4.07125,1.02125 4.46,3.08625 0.405,2.13875 -0.99875,4.1175 -3.02625,4.5"
         style="fill:none;stroke:none"
         id="path3954" />
      <path
         inkscape:connector-curvature="0"
         d="m 526.15759,309.75798 7.63625,7.0225 -0.45875,-7.035 1.1875,-0.0775 0.64625,9.915 -7.63625,-7.02375 0.46375,7.09875 -1.1875,0.0775 -0.65125,-9.9775"
         style="fill:none;stroke:none"
         id="path3956" />
      <path
         inkscape:connector-curvature="0"
         d="m 549.30634,310.18048 c -2.7175,-0.305 -5.21875,1.6675 -5.525,4.38375 -0.31625,2.8175 1.67,5.19375 4.41125,5.5025 2.7425,0.3075 5.2075,-1.5675 5.525,-4.385 0.305,-2.71625 -1.69625,-5.195 -4.41125,-5.50125 z m -0.98875,8.77875 c -2.05,-0.23 -3.5975,-2.09875 -3.35375,-4.26125 0.23375,-2.08875 1.99125,-3.66125 4.2175,-3.41 2.225,0.25 3.58875,2.17375 3.35375,4.26125 -0.24375,2.16375 -2.1675,3.64125 -4.2175,3.41"
         style="fill:none;stroke:none"
         id="path3958" />
      <path
         inkscape:connector-curvature="0"
         d="m 558.81134,313.00423 -0.57,2.6225 3.24,0.705 -0.23125,1.06375 -3.24125,-0.705 -0.99375,4.575 -1.16375,-0.2525 2.03,-9.325 4.5125,0.9825 -0.23,1.06375 -3.3525,-0.73"
         style="fill:none;stroke:none"
         id="path3960" />
      <path
         inkscape:connector-curvature="0"
         d="m 576.10509,316.82798 c -2.54375,-1 -5.4725,0.25625 -6.4725,2.8 -1.03625,2.63875 0.26625,5.44875 2.83375,6.4575 2.56875,1.00875 5.43625,-0.1625 6.4725,-2.8 0.99875,-2.545 -0.29,-5.45875 -2.83375,-6.4575 z m -3.23125,8.22125 c -1.92,-0.755 -2.93,-2.96 -2.13375,-4.98625 0.76875,-1.955 2.8725,-3.01875 4.9575,-2.19875 2.085,0.81875 2.9025,3.03 2.13375,4.985 -0.79625,2.02625 -3.0375,2.955 -4.9575,2.2"
         style="fill:none;stroke:none"
         id="path3962" />
      <path
         inkscape:connector-curvature="0"
         d="m 589.37634,325.39923 c -0.31875,-0.8575 -0.99,-1.5875 -1.78375,-2.00875 -1.8875,-1.005 -4.16875,-0.19625 -5.16,1.66875 -0.98125,1.84375 -0.39,4.18 1.4875,5.17875 0.82625,0.44 1.7875,0.54875 2.71,0.32375 l -0.66,1.24 c -0.85,0.035 -1.79,-0.1925 -2.5275,-0.585 -2.4025,-1.2775 -3.375,-4.24625 -2.07875,-6.6825 1.32625,-2.49125 4.36,-3.37125 6.84125,-2.0525 0.7375,0.3925 1.39,0.97 1.82,1.7 l -0.64875,1.2175"
         style="fill:none;stroke:none"
         id="path3964" />
      <path
         inkscape:connector-curvature="0"
         d="m 593.57884,325.84923 4.2775,2.82375 -0.6,0.90875 -3.285,-2.16875 -1.47125,2.22875 3.19,2.10625 -0.6,0.9075 -3.18875,-2.105 -1.9875,3.01 3.28625,2.16875 -0.60125,0.90875 -4.2775,-2.82375 5.2575,-7.965"
         style="fill:none;stroke:none"
         id="path3966" />
      <path
         inkscape:connector-curvature="0"
         d="m 601.06759,340.16923 -0.65875,2.545 0.99375,0.80375 2.71375,-10.59875 -9.79875,4.86875 0.99375,0.80375 2.35125,-1.17625 3.405,2.75375 z m 0.3,-1.15625 -2.63625,-2.1325 3.74625,-1.935 -1.11,4.0675"
         style="fill:none;stroke:none"
         id="path3968" />
      <path
         inkscape:connector-curvature="0"
         d="m 610.18384,338.03548 -0.325,10.37 5.02375,-4.94375 0.83375,0.8475 -7.08125,6.96875 0.325,-10.37 -5.06875,4.98875 -0.83375,-0.8475 7.12625,-7.01375"
         style="fill:none;stroke:none"
         id="path3970" />
      <path
         inkscape:connector-curvature="0"
         d="m 621.41634,350.92673 c -1.6675,-2.16625 -4.825,-2.59375 -6.99125,-0.92625 -2.24625,1.72875 -2.57375,4.80875 -0.89125,6.995 1.6825,2.18625 4.74375,2.65625 6.99,0.92625 2.1675,-1.66625 2.56,-4.82875 0.8925,-6.995 z m -7,5.38875 c -1.2575,-1.63375 -0.99125,-4.045 0.73375,-5.3725 1.665,-1.28125 4.01625,-1.11125 5.38375,0.66375 1.36625,1.775 0.93,4.09125 -0.735,5.37375 -1.725,1.3275 -4.125,0.97 -5.3825,-0.665"
         style="fill:none;stroke:none"
         id="path3972" />
      <path
         inkscape:connector-curvature="0"
         d="m 626.77759,368.12923 -0.3275,0.19375 c -2.25375,1.335 -4.92625,0.77125 -6.2875,-1.52625 -1.36125,-2.2975 -0.47625,-5.32375 1.8,-6.67125 2.3625,-1.39875 5.4225,-0.6525 6.82375,1.71 0.75375,1.27375 0.925,2.87875 0.39,4.285 l -1.1125,-0.3125 c 0.45875,-1.065 0.405,-2.3725 -0.18875,-3.375 -1.09,-1.84 -3.43375,-2.39375 -5.27375,-1.30375 -1.72125,1.02 -2.515,3.4025 -1.46375,5.1775 0.755,1.275 2.66625,1.995 4.0325,1.245 l -1.25875,-2.12375 0.9375,-0.55375 1.92875,3.255"
         style="fill:none;stroke:none"
         id="path3974" />
      <path
         inkscape:connector-curvature="0"
         d="m 628.81759,373.99923 c 0.72625,1.185 2.14125,1.53625 3.38375,0.965 0.8275,-0.38125 1.45375,-1.17 1.545,-2.09125 0.0738,-0.86875 -0.295,-1.7025 -0.64875,-2.4725 l -0.60375,-1.31 -8.66875,3.9875 0.49625,1.08125 3.66875,-1.6875 0.20625,0.44875 -2.49375,4.23875 0.6025,1.31125 2.5125,-4.47125 z m 3.2075,-3.385 0.1325,0.2875 c 0.49125,1.07 0.88875,2.4475 -0.4675,3.07125 -1.38125,0.635 -2.1375,-0.465 -2.645,-1.57 l -0.15875,-0.34375 3.13875,-1.445"
         style="fill:none;stroke:none"
         id="path3976" />
      <path
         inkscape:connector-curvature="0"
         d="m 631.38634,385.46423 -1.9075,1.80875 0.41625,1.20875 7.92,-7.55 -10.89,-1.065 0.41625,1.20875 2.6175,0.24875 1.4275,4.14 z m 0.8675,-0.82125 -1.10625,-3.20625 4.2025,0.34375 -3.09625,2.8625"
         style="fill:none;stroke:none"
         id="path3978" />
      <path
         inkscape:connector-curvature="0"
         d="m 634.62759,391.03923 0.16,0.66375 c 0.4225,1.76 1.5325,3.0675 3.4875,2.5975 1.7,-0.40875 2.47125,-1.53125 1.78375,-4.385 l -0.32,-1.33 -9.2775,2.23125 0.2775,1.1575 3.88875,-0.935 z m 4.35625,-1.0475 0.0738,0.3075 c 0.275,1.14375 0.435,2.56375 -1.0175,2.9125 -1.47625,0.355 -2.00625,-0.87125 -2.29,-2.0525 l -0.0875,-0.36875 3.32125,-0.79875"
         style="fill:none;stroke:none"
         id="path3980" />
      <path
         inkscape:connector-curvature="0"
         d="m 638.63259,403.26923 3.80875,-0.54375 0.16875,1.1775 -9.4475,1.35 -0.1675,-1.1775 4.53625,-0.64875 -0.64375,-4.4975 -4.535,0.64875 -0.16875,-1.1775 9.44625,-1.35125 0.16875,1.17875 -3.80875,0.54375 0.6425,4.4975"
         style="fill:none;stroke:none"
         id="path3982" />
      <path
         inkscape:connector-curvature="0"
         d="m 642.92509,407.15673 0.06,1.365 -3.96875,2.51875 4.17375,2.16 0.0612,1.365 -5.52375,-2.8725 -4.1475,0.1825 -0.0525,-1.18875 4.1475,-0.1825 5.25,-3.3475"
         style="fill:none;stroke:none"
         id="path3984" />
      <path
         inkscape:connector-curvature="0"
         d="m 565.80384,387.95923 0.9225,0 -0.0312,-0.0575 -0.92375,0 0.0325,0.0575"
         style="fill:none;stroke:none"
         id="path3986" />
      <path
         inkscape:connector-curvature="0"
         d="m 474.94259,406.95298 -0.9225,-0.61625 -0.0725,0.135 0.9025,0.7575 0.0925,-0.27625"
         style="fill:none;stroke:none"
         id="path3988" />
      <path
         inkscape:connector-curvature="0"
         d="m 510.72259,406.33673 -1.22125,-1.59 -6.3775,0 0,3.18625 0.85375,0.975 0,2.945 -25.48,0 0,-4.53125 -12.13375,-8.5825 -0.8575,0 0.12,0.73875 8.32125,6.99375 0.0725,-0.135 0.9225,0.61625 -0.0925,0.27625 1.13,0.95 0,3.67375 -2.695,0 1.565,-4.62375 -0.9025,-0.7575 -0.91125,1.7025 -1.7725,3.80125 -1.22125,0 -1.35,3.56 c -0.5,1.2825 -0.1,3.24375 0.80125,4.24 0.7475,-0.175 1.70375,-0.32 2.935,-0.32 5.66875,0 4.6575,2.45625 10.84625,2.45625 6.1825,0 5.18125,-2.45625 10.84,-2.45625 5.67375,0 4.66875,2.45625 10.85125,2.45625 6.1875,0 5.17625,-2.45625 10.84625,-2.45625 5.66375,0 4.6525,2.45625 10.84,2.45625 4.85875,0 5.29,-1.51125 7.99,-2.16 l -12.48,-13.415 -11.44,0"
         style="fill:none;stroke:none"
         id="path3990" />
      <path
         inkscape:connector-curvature="0"
         d="m 526.46884,386.48798 -0.18125,-0.43125 -0.41875,0.14375 0.1725,0.44 0.4275,-0.1525"
         style="fill:none;stroke:none"
         id="path3992" />
      <path
         inkscape:connector-curvature="0"
         d="m 530.02384,396.35798 c 0.0575,0 -0.1225,-0.43125 -0.1225,-0.43125 l -0.16375,0.0437 0.165,0.4175 c 0.07,-0.0175 0.11625,-0.03 0.12125,-0.03"
         style="fill:none;stroke:none"
         id="path3994" />
      <path
         inkscape:connector-curvature="0"
         d="m 588.65509,397.70173 c -0.36375,1.2875 -3.735,3.7925 -7.21875,3.9825 l -8.2225,0.3075 0,-5.25625 -0.66,-0.66 0.6325,0 0.52,-0.51375 0,-1.66125 -0.48875,-0.4875 -2.50875,0 0,-1.775 -0.555,-0.55 0,-3.25125 -0.9225,-0.91 0,-3.735 -2.2,0 0,3.1725 0.67625,0 0,0.4925 -0.4875,0.36375 0,0.68125 -0.525,0 0.0312,0.0575 -0.9225,0 -0.0325,-0.0575 -6.215,0 0,-10.7875 6.215,10.7875 0.92375,0 -6.52375,-11.45625 2.8175,-2.825 0,-0.8575 1.775,0 0,-0.73375 -4.04375,0 0,0.73375 1.56,0 0,0.585 -0.395,0.4 -2.51,0 c 0.0562,0 0,-3.0725 0,-3.0725 l 1.71375,-1.58625 0,-0.67625 -1.71375,0 0,-5.2075 3.00125,0 0.24625,-0.185 0,-0.6725 -0.18875,-0.24125 -3.37125,0 0,-4.905 -0.23625,0 0,4.905 -3.31375,0 -0.185,0.24125 0,0.6725 0.24625,0.185 3.00625,0 0,5.2075 -1.715,0 0,0.67625 1.715,1.58625 c 0,0 -0.0713,15.6275 0,15.6275 0.06,0 -1.9025,0 -1.9025,0 l -0.4975,0.3075 c 0,0 -0.0512,1.34875 0,1.34875 0.075,0 -2.38625,0 -2.38625,0 l 0,-0.4875 -0.23125,-0.43125 -3.745,0 -0.49375,0.55 0,1.84125 -2.75875,0 0,1.165 0.3075,0.3075 0,5.45375 -2.0225,0 0,-8.52125 -1.09875,-1.165 -1.655,0 -6.5525,1.4725 -0.37375,0.3075 0,2.57 0.24625,0.2475 0,5.33 -3.4325,0 c 0,0 -0.0612,-10.29625 0,-10.29625 0.0612,0 -1.6575,0 -1.6575,0 l 0,1.16875 0.4325,0.29875 0,9.3825 -7.53375,-18.79875 0,1.1725 2.64375,6.67375 0.41875,-0.14375 0.18125,0.43125 -0.4275,0.1525 3.69625,9.33 0.16375,-0.0437 c 0,0 0.18,0.43125 0.1225,0.43125 -0.005,0 -0.0512,0.0125 -0.12125,0.03 l 0.42375,1.0725 -2.0775,0.98 0,7.3475 -2.09625,0 13.04375,13.76 c 3.8225,0.44 3.66875,2.36375 9.14875,2.36375 6.18625,0 5.18125,-2.45625 10.8425,-2.45625 5.66875,0 4.665,2.45625 10.845,2.45625 6.18625,0 5.175,-2.45625 10.84375,-2.45625 5.6675,0 4.65875,2.45625 10.8475,2.45625 4.9125,0 5.295,-1.56 8.07625,-2.20125 l 5.2175,-22.18875 0.68125,-0.67625 0,-0.8575 -17.04375,1.71375"
         style="fill:none;stroke:none"
         id="path3996" />
      <path
         inkscape:connector-curvature="0"
         d="m 523.28759,398.25173 c 0,0 5.7325,-1.6275 6.615,-1.86375 l -0.165,-0.4175 -6.5125,1.73125 0,-10.05 2.81625,-1.01125 -0.1725,-0.44 -2.64375,0.9025 0,-7.57625 -0.25,-0.63375 0,-1.16375 0.25,0.625 0,-4.60625 -1.47125,-1.96 0,-3.4325 -0.37,0 0,3.7925 1.22625,1.6 0,28.30375 0.6775,0.71375 0,-4.51375"
         style="fill:none;stroke:none"
         id="path3998" />
      <path
         inkscape:connector-curvature="0"
         d="m 522.97509,378.89298 0.25,0.63375 0,-1.1725 -0.25,-0.625 0,1.16375"
         style="fill:none;stroke:none"
         id="path4000" />
      <path
         inkscape:connector-curvature="0"
         d="m 523.28759,405.78798 2.865,0 -2.865,-3.0225 0,3.0225"
         style="fill:none;stroke:none"
         id="path4002" />
      <path
         inkscape:connector-curvature="0"
         d="m 503.35384,381.37548 -0.47625,0.005 -6.73125,-7.04375 -0.0688,-0.50625 6.21125,-5.83625 0.3975,0.0387 c 2.18875,2.44 3.21,5.88375 2.46875,9.335 -0.325,1.4775 -0.99875,2.88125 -1.80125,4.0075 z m -2.34,2.385 c -1.17,0.735 -2.805,1.31625 -4.31125,1.535 -3.48375,0.53625 -6.8625,-0.70125 -9.1625,-3.04125 l -0.0113,-0.4 6.20625,-5.83375 0.51375,0.10625 6.8025,7.15625 -0.0375,0.4775 z m 21.59625,18.29125 -15.11375,-15.94375 -2.255,-2.25625 0.005,-0.58125 c 3.8025,-4.99875 3.48,-12.1975 -0.955,-16.92 l -8.04125,-8.29875 c -0.72,-0.7425 -0.17375,-2.23125 0.56,-2.94625 -1.11,-0.23875 -8.35,-2.515 -10.49,-4.43125 l 15.1,15.76 -0.015,0.40875 -6.3225,5.93 -0.46125,-0.055 -11.2775,-11.8075 c -0.72,-0.73625 -0.265,-2.30125 0.47375,-3.0175 -1.11125,-0.24375 -7.27375,-2.35375 -9.14375,-4.505 2.03875,1.99625 3.7625,8.27375 3.9275,9.4 0.76375,-0.69375 2.35125,-1.05 3.05125,-0.28375 l 11.07875,11.99625 0.0188,0.47625 -6.30625,5.92625 -0.41625,-0.0163 -14.78375,-16.0525 c 1.78,2.25375 3.59375,9.60875 3.76,10.74875 0.76625,-0.69375 2.2875,-1.1425 2.9775,-0.385 l 7.77875,8.545 c 4.43375,4.73 11.49625,5.5975 16.72625,2.115 l 0.58375,0.0387 2.2075,2.29375 16.885,18.14625 0.4475,0 0,-4.285"
         style="fill:none;stroke:none"
         id="path4004" />
      <path
         inkscape:connector-curvature="0"
         d="m 534.64259,419.75173 56.13375,60.3275 0.65,0.08 2.44125,-2.2975 -0.0175,-0.65625 -54.65375,-57.6575 c -0.49625,-0.0575 -1.0475,-0.0925 -1.6975,-0.0925 -1.2175,0 -2.11625,0.1175 -2.85625,0.29625"
         style="fill:none;stroke:none"
         id="path4006" />
      <path
         inkscape:connector-curvature="0"
         d="m 523.28759,405.78798 0,-3.0225 -0.6775,-0.71375 0,4.285 -0.4475,0 12.48,13.415 c 0.74,-0.17875 1.63875,-0.29625 2.85625,-0.29625 0.65,0 1.20125,0.035 1.6975,0.0925 l -13.04375,-13.76 -2.865,0"
         style="fill:none;stroke:none"
         id="path4008" />
      <path
         inkscape:connector-curvature="0"
         d="m 486.40134,497.96923 -3.10625,5.27 c -0.86,1.45625 -1.2175,3.06625 0.5,4.0775 1.7175,1.0125 2.9525,-0.0788 3.81125,-1.53625 l 3.10625,-5.27125 1.11375,0.65625 -3.33,5.65 c -1.16,1.96625 -3.265,2.75125 -5.315,1.54375 -2.05,-1.2075 -2.3825,-3.43125 -1.2225,-5.3975 l 3.32875,-5.65 1.11375,0.6575"
         style="fill:none;stroke:none"
         id="path4020" />
      <path
         inkscape:connector-curvature="0"
         d="m 500.92259,507.59923 c -0.40875,-0.90625 -1.19125,-1.64875 -2.08125,-2.0475 -2.12125,-0.95125 -4.5325,0.0925 -5.4725,2.1875 -0.93,2.07125 -0.115,4.56125 1.9925,5.50625 0.92875,0.41625 1.9775,0.46375 2.96125,0.1525 l -0.625,1.3925 c -0.91875,0.1 -1.95375,-0.0775 -2.7825,-0.44875 -2.6975,-1.21 -3.97,-4.3575 -2.7425,-7.09375 1.25375,-2.79875 4.48,-3.975 7.265,-2.72625 0.82875,0.3725 1.58,0.95 2.09875,1.70875 l -0.61375,1.36875"
         style="fill:none;stroke:none"
         id="path4022" />
      <path
         inkscape:connector-curvature="0"
         d="m 514.48759,511.85423 c -0.20875,-0.72125 -0.60375,-1.16625 -1.3625,-1.36375 -0.79625,-0.2075 -1.8175,0.1075 -2.045,0.985 -0.20625,0.785 0.4575,1.3975 1.02,1.8 l 0.645,0.4675 c 1.27625,0.92875 2.13625,1.99125 1.6975,3.66625 -0.475,1.82125 -2.22375,2.75625 -4.01875,2.2875 -1.6225,-0.4225 -2.57375,-1.95 -2.365,-3.61375 l 1.3325,0.0638 c -0.30125,1.1 0.3675,2.1275 1.44375,2.4075 1.0775,0.28125 2.08375,-0.42125 2.35875,-1.47125 0.28125,-1.07625 -0.46125,-1.7675 -1.23125,-2.3525 l -0.61625,-0.4725 c -1.015,-0.79 -1.88125,-1.7125 -1.51625,-3.10875 0.4225,-1.62125 2.1125,-2.2175 3.6275,-1.82125 1.11625,0.29125 1.8925,1.07625 2.18375,2.18875 l -1.15375,0.3375"
         style="fill:none;stroke:none"
         id="path4024" />
      <path
         inkscape:connector-curvature="0"
         d="m 522.78134,513.88548 -2.45,3.8725 3.64375,0.5525 -1.19375,-4.425 z m -3.15875,4.96125 -1.55875,2.39375 -1.3725,-0.20875 6.515,-9.9475 3.27625,11.43125 -1.37375,-0.20875 -0.78,-2.74625 -4.70625,-0.71375"
         style="fill:none;stroke:none"
         id="path4026" />
      <path
         inkscape:connector-curvature="0"
         d="m 530.29884,511.93673 7.53625,8.3925 0.2325,-7.66 1.29375,0.04 -0.33,10.795 -7.535,-8.3925 -0.235,7.72875 -1.2925,-0.04 0.33,-10.86375"
         style="fill:none;stroke:none"
         id="path4028" />
      <path
         inkscape:connector-curvature="0"
         d="m 551.33134,520.98173 0.44875,-0.0675 c 2.61125,-0.39125 4.72125,-1.71 4.275,-4.6875 -0.44875,-2.9925 -2.85125,-3.61875 -5.4625,-3.2275 l -0.45,0.0675 1.18875,7.915 z m -2.6425,-8.8925 2.1225,-0.31875 c 3.14125,-0.47125 6.00125,0.79625 6.51375,4.21 0.525,3.495 -1.77875,5.565 -5.015,6.05 l -2.08125,0.3125 -1.54,-10.25375"
         style="fill:none;stroke:none"
         id="path4030" />
      <path
         inkscape:connector-curvature="0"
         d="m 563.26259,519.96048 -1.25875,0.29875 -2.3875,-10.09625 1.2575,-0.2975 2.38875,10.095"
         style="fill:none;stroke:none"
         id="path4032" />
      <path
         inkscape:connector-curvature="0"
         d="m 564.67759,508.90673 5.30875,-1.67625 0.355,1.12625 -4.075,1.2875 0.8725,2.765 3.9575,-1.25 0.35625,1.12625 -3.9575,1.25 1.18,3.735 4.075,-1.2875 0.35625,1.1275 -5.3075,1.67625 -3.12125,-9.88"
         style="fill:none;stroke:none"
         id="path4034" />
      <path
         inkscape:connector-curvature="0"
         d="m 583.74384,507.04673 0.16625,0.3775 c 1.14875,2.6025 0.19625,5.41125 -2.45625,6.5825 -2.6525,1.17125 -5.79875,-0.17375 -6.95875,-2.80125 -1.205,-2.72625 -0.005,-5.93 2.7225,-7.135 1.47,-0.64875 3.2225,-0.62625 4.66875,0.13125 l -0.48,1.15875 c -1.08875,-0.63 -2.505,-0.74125 -3.66125,-0.23 -2.125,0.9375 -3.0225,3.39125 -2.085,5.51625 0.8775,1.98625 3.3425,3.15 5.3925,2.245 1.47125,-0.64875 2.49375,-2.61875 1.86125,-4.18625 l -2.45125,1.0825 -0.47625,-1.08125 3.7575,-1.66"
         style="fill:none;stroke:none"
         id="path4036" />
      <path
         inkscape:connector-curvature="0"
         d="m 594.31009,500.92548 c -1.18125,-1.95375 -3.62875,-2.7075 -5.7125,-1.4475 -2.0825,1.25875 -2.5525,3.77625 -1.3725,5.73 1.225,2.02375 3.795,2.6075 5.71375,1.4475 1.9175,-1.15875 2.595,-3.70625 1.37125,-5.73 z m 1.10625,-0.66875 c 1.595,2.63625 0.71375,5.88375 -1.8525,7.435 -2.565,1.55125 -5.85125,0.82125 -7.44375,-1.815 -1.5375,-2.54125 -0.69,-5.89875 1.8525,-7.435 2.54125,-1.53625 5.9075,-0.7275 7.44375,1.815"
         style="fill:none;stroke:none"
         id="path4038" />
    </g>
    <g
       id="g5889"
       transform="translate(-36.390477,221.57843)">
      <path
         inkscape:connector-curvature="0"
         d="m 326.75009,536.60173 c 0,51.355 -41.63125,92.98625 -92.9875,92.98625 -51.35413,0 -92.9855,-41.63125 -92.9855,-92.98625 0,-51.355 41.63137,-92.98625 92.9855,-92.98625 51.35625,0 92.9875,41.63125 92.9875,92.98625"
         style="fill:#231f20;fill-opacity:1;fill-rule:nonzero;stroke:none"
         id="path3554" />
      <path
         inkscape:connector-curvature="0"
         d="m 233.81634,626.20423 c -49.715,0 -90.01288,-40.30875 -90.01288,-90.0175 0,-49.72 40.29788,-90.0175 90.01288,-90.0175 49.72,0 90.0275,40.2975 90.0275,90.0175 0,49.70875 -40.3075,90.0175 -90.0275,90.0175 z m 0.1325,-202.4475 c -62.25763,0 -112.73325,50.47125 -112.73325,112.73375 0,62.2475 50.47562,112.72 112.73325,112.72 62.25375,0 112.71,-50.4725 112.71,-112.72 0,-62.2625 -50.45625,-112.73375 -112.71,-112.73375"
         style="fill:#ffffff;fill-opacity:1;fill-rule:nonzero;stroke:none"
         id="path3556" />
      <path
         inkscape:connector-curvature="0"
         d="m 233.81634,626.20423 c -49.715,0 -90.01288,-40.30875 -90.01288,-90.0175 0,-49.72 40.29788,-90.0175 90.01288,-90.0175 49.72,0 90.0275,40.2975 90.0275,90.0175 0,49.70875 -40.3075,90.0175 -90.0275,90.0175 z m 0.1325,-202.4475 c -62.25763,0 -112.73325,50.47125 -112.73325,112.73375 0,62.2475 50.47562,112.72 112.73325,112.72 62.25375,0 112.71,-50.4725 112.71,-112.72 0,-62.2625 -50.45625,-112.73375 -112.71,-112.73375 z"
         style="fill:none;stroke:#231f20;stroke-width:1.125;stroke-linecap:butt;stroke-linejoin:miter;stroke-miterlimit:4;stroke-opacity:1;stroke-dasharray:none"
         id="path3558" />
      <path
         inkscape:connector-curvature="0"
         d="m 325.60009,540.61548 c -0.81625,-0.2325 -1.8425,-0.38 -3.27125,-0.38 -5.78375,0 -4.82,2.50875 -11.13625,2.50875 -6.30625,0 -5.28,-2.50875 -11.06125,-2.50875 -5.77375,0 -4.7475,2.50875 -11.06375,2.50875 -6.31125,0 -5.28375,-2.50875 -11.0625,-2.50875 -5.78125,0 -4.75125,2.50875 -11.0625,2.50875 -6.30125,0 -5.28125,-2.50875 -11.0625,-2.50875 -5.77375,0 -4.74875,2.50875 -11.0575,2.50875 -6.3125,0 -5.28625,-2.50875 -11.06375,-2.50875 -5.78125,0 -4.75125,2.50875 -11.06375,2.50875 -6.31,0 -5.28,-2.50875 -11.0575,-2.50875 -5.78125,0 -4.75125,2.50875 -11.06125,2.50875 -6.3075,0 -5.28125,-2.50875 -11.06775,-2.50875 -5.7735,0 -4.7515,2.50875 -11.05763,2.50875 -6.312,0 -5.28175,-2.50875 -11.0635,-2.50875 -5.78275,0 -4.74762,2.50875 -11.05762,2.50875 -6.3115,0 -5.28463,-2.50875 -11.06738,-2.50875 -1.44287,0 -2.46137,0.1475 -3.28075,0.395"
         style="fill:none;stroke:#ffffff;stroke-width:1.81012499;stroke-linecap:butt;stroke-linejoin:miter;stroke-miterlimit:4;stroke-opacity:1;stroke-dasharray:none"
         id="path3560" />
      <path
         inkscape:connector-curvature="0"
         d="m 323.94509,553.31048 c -0.47375,-0.0538 -1.01125,-0.08 -1.61625,-0.08 -5.78375,0 -4.82,2.51375 -11.13625,2.51375 -6.30625,0 -5.28,-2.51375 -11.06125,-2.51375 -5.77375,0 -4.7475,2.51375 -11.06375,2.51375 -6.31125,0 -5.28375,-2.51375 -11.0625,-2.51375 -5.78125,0 -4.75125,2.51375 -11.0625,2.51375 -6.30125,0 -5.28125,-2.51375 -11.0625,-2.51375 -5.77375,0 -4.74875,2.51375 -11.0575,2.51375 -6.3125,0 -5.28625,-2.51375 -11.06375,-2.51375 -5.78125,0 -4.75125,2.51375 -11.06375,2.51375 -6.31,0 -5.28,-2.51375 -11.0575,-2.51375 -5.78125,0 -4.75125,2.51375 -11.06125,2.51375 -6.3075,0 -5.28125,-2.51375 -11.06775,-2.51375 -5.7735,0 -4.7515,2.51375 -11.05763,2.51375 -6.312,0 -5.28175,-2.51375 -11.0635,-2.51375 -5.78275,0 -4.74762,2.51375 -11.05762,2.51375 -6.3115,0 -5.28463,-2.51375 -11.06738,-2.51375 -0.5825,0 -1.1025,0.0263 -1.5655,0.0725"
         style="fill:none;stroke:#ffffff;stroke-width:1.81012499;stroke-linecap:butt;stroke-linejoin:miter;stroke-miterlimit:4;stroke-opacity:1;stroke-dasharray:none"
         id="path3562" />
      <path
         inkscape:connector-curvature="0"
         d="m 320.31384,566.35798 c -3.63875,0.505 -3.6575,2.385 -9.12125,2.385 -6.30625,0 -5.28,-2.51 -11.06125,-2.51 -5.77375,0 -4.7475,2.51 -11.06375,2.51 -6.31125,0 -5.28375,-2.51 -11.0625,-2.51 -5.78125,0 -4.75125,2.51 -11.0625,2.51 -6.30125,0 -5.28125,-2.51 -11.0625,-2.51 -5.77375,0 -4.74875,2.51 -11.0575,2.51 -6.3125,0 -5.28625,-2.51 -11.06375,-2.51 -5.78125,0 -4.75125,2.51 -11.06375,2.51 -6.31,0 -5.28,-2.51 -11.0575,-2.51 -5.78125,0 -4.75125,2.51 -11.06125,2.51 -6.3075,0 -5.28125,-2.51 -11.06775,-2.51 -5.7735,0 -4.7515,2.51 -11.05763,2.51 -6.312,0 -5.28175,-2.51 -11.0635,-2.51 -5.78275,0 -4.74762,2.51 -11.05762,2.51 -5.52738,0 -5.42875,-1.92375 -9.189,-2.4075"
         style="fill:none;stroke:#ffffff;stroke-width:1.81012499;stroke-linecap:butt;stroke-linejoin:miter;stroke-miterlimit:4;stroke-opacity:1;stroke-dasharray:none"
         id="path3564" />
      <path
         inkscape:connector-curvature="0"
         d="m 313.24634,581.64048 c -0.5925,0.0612 -1.27,0.1 -2.05375,0.1 -6.30625,0 -5.28,-2.5075 -11.06125,-2.5075 -5.77375,0 -4.7475,2.5075 -11.06375,2.5075 -6.31125,0 -5.28375,-2.5075 -11.0625,-2.5075 -5.78125,0 -4.75125,2.5075 -11.0625,2.5075 -6.30125,0 -5.28125,-2.5075 -11.0625,-2.5075 -5.77375,0 -4.74875,2.5075 -11.0575,2.5075 -6.3125,0 -5.28625,-2.5075 -11.06375,-2.5075 -5.78125,0 -4.75125,2.5075 -11.06375,2.5075 -6.31,0 -5.28,-2.5075 -11.0575,-2.5075 -5.78125,0 -4.75125,2.5075 -11.06125,2.5075 -6.3075,0 -5.28125,-2.5075 -11.06775,-2.5075 -5.7735,0 -4.7515,2.5075 -11.05763,2.5075 -6.312,0 -5.28175,-2.5075 -11.0635,-2.5075 -5.78275,0 -4.74762,2.5075 -11.05762,2.5075 -0.78913,0 -1.46588,-0.0388 -2.04938,-0.1"
         style="fill:none;stroke:#ffffff;stroke-width:1.81012499;stroke-linecap:butt;stroke-linejoin:miter;stroke-miterlimit:4;stroke-opacity:1;stroke-dasharray:none"
         id="path3566" />
      <path
         inkscape:connector-curvature="0"
         d="m 305.19509,593.34673 c -1.165,-0.57875 -2.375,-1.115 -5.06375,-1.115 -5.77375,0 -4.7475,2.51 -11.06375,2.51 -6.31125,0 -5.28375,-2.51 -11.0625,-2.51 -5.78125,0 -4.75125,2.51 -11.0625,2.51 -6.30125,0 -5.28125,-2.51 -11.0625,-2.51 -5.77375,0 -4.74875,2.51 -11.0575,2.51 -6.3125,0 -5.28625,-2.51 -11.06375,-2.51 -5.78125,0 -4.75125,2.51 -11.06375,2.51 -6.31,0 -5.28,-2.51 -11.0575,-2.51 -5.78125,0 -4.75125,2.51 -11.06125,2.51 -6.3075,0 -5.28125,-2.51 -11.06775,-2.51 -5.7735,0 -4.7515,2.51 -11.05763,2.51 -6.312,0 -5.28175,-2.51 -11.0635,-2.51 -2.60787,0 -3.8325,0.5075 -4.957,1.07125"
         style="fill:none;stroke:#ffffff;stroke-width:1.81012499;stroke-linecap:butt;stroke-linejoin:miter;stroke-miterlimit:4;stroke-opacity:1;stroke-dasharray:none"
         id="path3568" />
      <path
         inkscape:connector-curvature="0"
         d="m 290.82509,607.66548 c -0.51125,0.045 -1.095,0.0738 -1.7575,0.0738 -6.31125,0 -5.28375,-2.51 -11.0625,-2.51 -5.78125,0 -4.75125,2.51 -11.0625,2.51 -6.30125,0 -5.28125,-2.51 -11.0625,-2.51 -5.77375,0 -4.74875,2.51 -11.0575,2.51 -6.3125,0 -5.28625,-2.51 -11.06375,-2.51 -5.78125,0 -4.75125,2.51 -11.06375,2.51 -6.31,0 -5.28,-2.51 -11.0575,-2.51 -5.78125,0 -4.75125,2.51 -11.06125,2.51 -6.3075,0 -5.28125,-2.51 -11.06775,-2.51 -5.7735,0 -4.7515,2.51 -11.05763,2.51 -0.6055,0 -1.14412,-0.0225 -1.63187,-0.0662"
         style="fill:none;stroke:#ffffff;stroke-width:1.81012499;stroke-linecap:butt;stroke-linejoin:miter;stroke-miterlimit:4;stroke-opacity:1;stroke-dasharray:none"
         id="path3570" />
      <path
         inkscape:connector-curvature="0"
         d="m 268.70009,620.66423 c -0.52,0.0438 -1.09375,0.075 -1.7575,0.075 -6.30125,0 -5.28125,-2.50875 -11.0625,-2.50875 -5.77375,0 -4.74875,2.50875 -11.0575,2.50875 -6.3125,0 -5.28625,-2.50875 -11.06375,-2.50875 -5.78125,0 -4.75125,2.50875 -11.06375,2.50875 -6.31,0 -5.28,-2.50875 -11.0575,-2.50875 -5.78125,0 -4.75125,2.50875 -11.06125,2.50875 -0.44875,0 -0.87125,-0.009 -1.25125,-0.0412"
         style="fill:none;stroke:#ffffff;stroke-width:1.81012499;stroke-linecap:butt;stroke-linejoin:miter;stroke-miterlimit:4;stroke-opacity:1;stroke-dasharray:none"
         id="path3572" />
      <path
         inkscape:connector-curvature="0"
         d="m 129.67946,531.26298 c -0.6075,0.3325 -0.92775,0.77625 -0.95462,1.4975 -0.0288,0.75875 0.459,1.6125 1.2935,1.64375 0.74612,0.0275 1.1655,-0.69125 1.415,-1.27625 l 0.291,-0.67375 c 0.582,-1.3325 1.36625,-2.3175 2.96,-2.2575 1.73237,0.065 2.92187,1.45125 2.85787,3.15875 -0.0576,1.54375 -1.24075,2.7025 -2.77875,2.8475 l -0.208,-1.21125 c 1.04925,0.0525 1.83938,-0.755 1.87788,-1.77875 0.0381,-1.025 -0.79438,-1.79 -1.79388,-1.8275 -1.024,-0.0388 -1.49762,0.7675 -1.86962,1.57625 l -0.30275,0.6475 c -0.50888,1.07 -1.16563,2.03375 -2.49375,1.98375 -1.54288,-0.0575 -2.415,-1.4575 -2.36075,-2.9 0.0395,-1.0625 0.59075,-1.915 1.53312,-2.4 l 0.53375,0.97"
         style="fill:#231f20;fill-opacity:1;fill-rule:nonzero;stroke:none"
         id="path3574" />
      <path
         inkscape:connector-curvature="0"
         d="m 130.97196,519.35798 c -0.69337,0.59625 -1.14362,1.48125 -1.26325,2.37125 -0.28462,2.12 1.26713,3.97625 3.36188,4.2575 2.06925,0.2775 4.05362,-1.09125 4.33637,-3.1975 0.1245,-0.92875 -0.10687,-1.8675 -0.63962,-2.65375 l 1.39212,0.1875 c 0.32913,0.785 0.44288,1.745 0.3315,2.5725 -0.36187,2.6975 -2.80612,4.64125 -5.5415,4.275 -2.79737,-0.375 -4.67825,-2.91375 -4.30462,-5.69875 0.11175,-0.8275 0.42475,-1.64125 0.95987,-2.2975 l 1.36725,0.18375"
         style="fill:#231f20;fill-opacity:1;fill-rule:nonzero;stroke:none"
         id="path3576" />
      <path
         inkscape:connector-curvature="0"
         d="m 135.84646,513.62923 c 0.15275,-1.38125 -0.74862,-2.5275 -2.07962,-2.83875 -0.88775,-0.2075 -1.86575,0.0325 -2.50338,0.70125 -0.59187,0.6425 -0.8115,1.5275 -1.00437,2.3525 l -0.32813,1.405 9.29238,2.17125 0.2705,-1.15875 -3.93163,-0.91875 0.11288,-0.48 4.57075,-1.8175 0.32762,-1.405 -4.727,1.98875 z m -4.60937,0.70375 0.0718,-0.30875 c 0.26762,-1.14625 0.79975,-2.4775 2.25387,-2.1375 1.479,0.345 1.40088,1.67875 1.125,2.8625 l -0.0864,0.36875 -3.36425,-0.785"
         style="fill:#231f20;fill-opacity:1;fill-rule:nonzero;stroke:none"
         id="path3578" />
      <path
         inkscape:connector-curvature="0"
         d="m 141.72334,507.93048 -0.3515,1.1375 -9.11775,-2.81625 0.35112,-1.1375 9.11813,2.81625"
         style="fill:#231f20;fill-opacity:1;fill-rule:nonzero;stroke:none"
         id="path3580" />
      <path
         inkscape:connector-curvature="0"
         d="m 139.53584,501.98298 0.24462,-0.63875 c 0.649,-1.69 0.47713,-3.39625 -1.40175,-4.1175 -1.63087,-0.62625 -2.90237,-0.1375 -3.95462,2.60375 l -0.48975,1.27625 8.90912,3.41875 0.42588,-1.11 -3.7335,-1.4325 z m -4.18263,-1.60625 0.11338,-0.295 c 0.42187,-1.09875 1.09512,-2.35875 2.48925,-1.82375 1.418,0.54375 1.15862,1.85375 0.72362,2.98875 l -0.13575,0.355 -3.1905,-1.225"
         style="fill:#231f20;fill-opacity:1;fill-rule:nonzero;stroke:none"
         id="path3582" />
      <path
         inkscape:connector-curvature="0"
         d="m 142.72146,494.39423 0.29638,-0.615 c 0.78562,-1.63125 0.75537,-3.34625 -1.05763,-4.21875 -1.57375,-0.75875 -2.88137,-0.3775 -4.15575,2.2675 l -0.59325,1.23125 8.59663,4.1425 0.51612,-1.0725 -3.6025,-1.735 z m -4.03612,-1.945 0.13712,-0.285 c 0.51125,-1.06 1.28575,-2.26 2.63088,-1.6125 1.36862,0.66 1.0025,1.94375 0.47512,3.03875 l -0.1645,0.3425 -3.07862,-1.48375"
         style="fill:#231f20;fill-opacity:1;fill-rule:nonzero;stroke:none"
         id="path3584" />
      <path
         inkscape:connector-curvature="0"
         d="m 144.85859,482.56173 c -0.69288,0.002 -1.186,0.24 -1.55313,0.86125 -0.38625,0.65375 -0.36475,1.63625 0.3545,2.06125 0.6425,0.38 1.354,-0.0513 1.8525,-0.4475 l 0.57663,-0.4525 c 1.147,-0.89625 2.30475,-1.3875 3.67725,-0.575 1.49312,0.88125 1.878,2.6675 1.00875,4.13875 -0.7865,1.32875 -2.37888,1.78375 -3.79975,1.17875 l 0.3935,-1.16375 c 0.898,0.545 1.97712,0.21375 2.49862,-0.66875 0.522,-0.8825 0.15425,-1.9525 -0.70662,-2.4625 -0.88175,-0.52125 -1.68213,-0.0387 -2.395,0.49625 l -0.57425,0.425 c -0.957,0.6975 -1.99313,1.2325 -3.13713,0.55625 -1.32912,-0.78625 -1.42875,-2.4325 -0.69437,-3.675 0.5405,-0.915 1.43162,-1.4025 2.49125,-1.37875 l 0.007,1.10625"
         style="fill:#231f20;fill-opacity:1;fill-rule:nonzero;stroke:none"
         id="path3586" />
      <path
         inkscape:connector-curvature="0"
         d="m 157.72196,477.61048 -0.72762,0.94125 -7.54875,-5.83875 0.728,-0.94 7.54837,5.8375"
         style="fill:#231f20;fill-opacity:1;fill-rule:nonzero;stroke:none"
         id="path3588" />
      <path
         inkscape:connector-curvature="0"
         d="m 152.37034,468.22548 10.37312,-0.21125 -5.19775,-4.7625 0.80363,-0.8775 7.32575,6.7125 -10.37313,0.21125 5.24413,4.805 -0.80363,0.8775 -7.37212,-6.755"
         style="fill:#231f20;fill-opacity:1;fill-rule:nonzero;stroke:none"
         id="path3590" />
      <path
         inkscape:connector-curvature="0"
         d="m 165.81859,457.98298 c -0.66013,-0.20875 -1.20213,-0.13375 -1.74163,0.34625 -0.5675,0.50375 -0.84725,1.44625 -0.2925,2.07125 0.49563,0.55875 1.30513,0.36375 1.90138,0.13875 l 0.6875,-0.255 c 1.36525,-0.5025 2.61812,-0.61625 3.67725,0.57625 1.15137,1.29625 0.97262,3.11375 -0.30475,4.24875 -1.15425,1.025 -2.8095,0.9725 -3.978,-0.0375 l 0.7305,-0.9875 c 0.68837,0.7925 1.81737,0.80625 2.5835,0.125 0.7665,-0.68125 0.74362,-1.81125 0.079,-2.55875 -0.68013,-0.76625 -1.58975,-0.55125 -2.43163,-0.26 l -0.67725,0.22875 c -1.1245,0.3725 -2.27387,0.565 -3.15675,-0.42875 -1.02587,-1.15375 -0.61762,-2.7525 0.461,-3.71125 0.79438,-0.705 1.7925,-0.8975 2.79388,-0.55125 l -0.3315,1.055"
         style="fill:#231f20;fill-opacity:1;fill-rule:nonzero;stroke:none"
         id="path3592" />
      <path
         inkscape:connector-curvature="0"
         d="m 176.24971,459.55798 -0.95062,0.715 -5.08013,-6.7575 -1.811,1.36125 -0.65425,-0.87 4.57275,-3.4375 0.65425,0.87 -1.811,1.36125 5.08,6.7575"
         style="fill:#231f20;fill-opacity:1;fill-rule:nonzero;stroke:none"
         id="path3594" />
      <path
         inkscape:connector-curvature="0"
         d="m 181.20584,456.11423 -0.99363,0.655 -5.24662,-7.97125 0.99362,-0.655 5.24663,7.97125"
         style="fill:#231f20;fill-opacity:1;fill-rule:nonzero;stroke:none"
         id="path3596" />
      <path
         inkscape:connector-curvature="0"
         d="m 186.36934,452.98673 -1.03263,0.59125 -4.19687,-7.34 -1.96625,1.125 -0.5405,-0.945 4.96625,-2.84 0.5405,0.945 -1.96675,1.125 4.19625,7.33875"
         style="fill:#231f20;fill-opacity:1;fill-rule:nonzero;stroke:none"
         id="path3598" />
      <path
         inkscape:connector-curvature="0"
         d="m 187.57109,441.56923 2.33925,5.12375 c 0.6465,1.41625 1.67225,2.53375 3.341,1.7725 1.67,-0.7625 1.49625,-2.27 0.85,-3.68625 l -2.34,-5.1225 1.0825,-0.495 2.5075,5.49125 c 0.8725,1.9125 0.355,3.915 -1.6375,4.825 -1.99125,0.91 -3.845,-0.0113 -4.7175,-1.9225 l -2.50738,-5.49125 1.08213,-0.495"
         style="fill:#231f20;fill-opacity:1;fill-rule:nonzero;stroke:none"
         id="path3600" />
      <path
         inkscape:connector-curvature="0"
         d="m 202.28259,445.83923 -1.12375,0.3925 -2.79625,-7.9775 -2.1375,0.75 -0.36,-1.0275 5.3975,-1.8925 0.36125,1.0275 -2.1375,0.74875 2.79625,7.97875"
         style="fill:#231f20;fill-opacity:1;fill-rule:nonzero;stroke:none"
         id="path3602" />
      <path
         inkscape:connector-curvature="0"
         d="m 208.04634,444.06048 -1.145,0.32125 -2.5825,-9.18625 1.14625,-0.32125 2.58125,9.18625"
         style="fill:#231f20;fill-opacity:1;fill-rule:nonzero;stroke:none"
         id="path3604" />
      <path
         inkscape:connector-curvature="0"
         d="m 213.78009,432.74048 c -2.68625,0.50875 -4.49625,3.13 -3.9875,5.81625 0.52625,2.78625 3.125,4.47125 5.83625,3.95875 2.71,-0.5125 4.51375,-3.03 3.9875,-5.81625 -0.5075,-2.685 -3.15,-4.46625 -5.83625,-3.95875 z m 1.64125,8.68125 c -2.02625,0.3825 -4.055,-0.94625 -4.46,-3.085 -0.39,-2.065 0.825,-4.085 3.02625,-4.50125 2.2,-0.41625 4.07,1.02125 4.46,3.085 0.40375,2.14 -0.99875,4.1175 -3.02625,4.50125"
         style="fill:#231f20;fill-opacity:1;fill-rule:nonzero;stroke:none"
         id="path3606" />
      <path
         inkscape:connector-curvature="0"
         d="m 222.41884,431.13923 7.6375,7.0225 -0.46,-7.035 1.1875,-0.0775 0.6475,9.915 -7.6375,-7.02375 0.4625,7.09875 -1.18625,0.0775 -0.65125,-9.9775"
         style="fill:#231f20;fill-opacity:1;fill-rule:nonzero;stroke:none"
         id="path3608" />
      <path
         inkscape:connector-curvature="0"
         d="m 245.56759,431.56298 c -2.71625,-0.30625 -5.2175,1.66625 -5.52375,4.3825 -0.3175,2.8175 1.67,5.19375 4.41125,5.5025 2.7425,0.3075 5.2075,-1.5675 5.525,-4.38375 0.305,-2.71625 -1.69625,-5.19625 -4.4125,-5.50125 z m -0.9875,8.7775 c -2.05,-0.23125 -3.5975,-2.09875 -3.35375,-4.26125 0.235,-2.08875 1.99,-3.66125 4.21625,-3.41 2.22625,0.25 3.59,2.17375 3.355,4.2625 -0.24375,2.1625 -2.1675,3.64 -4.2175,3.40875"
         style="fill:#231f20;fill-opacity:1;fill-rule:nonzero;stroke:none"
         id="path3610" />
      <path
         inkscape:connector-curvature="0"
         d="m 255.07384,434.38548 -0.57125,2.6225 3.24125,0.705 -0.2325,1.06375 -3.24,-0.705 -0.99625,4.575 -1.16125,-0.2525 2.02875,-9.325 4.51375,0.9825 -0.23125,1.06375 -3.35125,-0.73"
         style="fill:#231f20;fill-opacity:1;fill-rule:nonzero;stroke:none"
         id="path3612" />
      <path
         inkscape:connector-curvature="0"
         d="m 272.37009,438.20923 c -2.545,-1 -5.4725,0.25625 -6.4725,2.8 -1.0375,2.63875 0.265,5.44875 2.83375,6.45875 2.5675,1.00875 5.435,-0.1625 6.47125,-2.80125 1,-2.54375 -0.28875,-5.4575 -2.8325,-6.4575 z m -3.2325,8.22125 c -1.92,-0.75375 -2.92875,-2.96 -2.1325,-4.98625 0.7675,-1.955 2.8725,-3.0175 4.9575,-2.19875 2.085,0.82 2.90125,3.03125 2.13375,4.98625 -0.7975,2.02625 -3.03875,2.95375 -4.95875,2.19875"
         style="fill:#231f20;fill-opacity:1;fill-rule:nonzero;stroke:none"
         id="path3614" />
      <path
         inkscape:connector-curvature="0"
         d="m 285.64009,446.78173 c -0.3175,-0.85625 -0.99,-1.5875 -1.7825,-2.01 -1.88875,-1.00375 -4.16875,-0.195 -5.16125,1.67 -0.98125,1.84375 -0.38875,4.18 1.4875,5.17875 0.8275,0.44 1.78625,0.54875 2.71,0.32375 l -0.66,1.24 c -0.85,0.035 -1.79,-0.1925 -2.5275,-0.585 -2.4025,-1.2775 -3.37375,-4.24625 -2.0775,-6.6825 1.325,-2.49125 4.36,-3.37125 6.84,-2.05125 0.7375,0.3925 1.39125,0.96875 1.81875,1.69875 l -0.6475,1.2175"
         style="fill:#231f20;fill-opacity:1;fill-rule:nonzero;stroke:none"
         id="path3616" />
      <path
         inkscape:connector-curvature="0"
         d="m 289.84134,447.23173 4.27875,2.82375 -0.6,0.90875 -3.285,-2.16875 -1.47125,2.22875 3.19,2.10625 -0.6,0.90875 -3.19,-2.10625 -1.98625,3.01 3.285,2.16875 -0.6,0.90875 -4.2775,-2.82375 5.25625,-7.965"
         style="fill:#231f20;fill-opacity:1;fill-rule:nonzero;stroke:none"
         id="path3618" />
      <path
         inkscape:connector-curvature="0"
         d="m 297.33009,461.55298 -0.6575,2.54375 0.99375,0.80375 2.71375,-10.59875 -9.79875,4.86875 0.99375,0.80375 2.35125,-1.17625 3.40375,2.755 z m 0.30125,-1.1575 -2.6375,-2.1325 3.74625,-1.935 -1.10875,4.0675"
         style="fill:#231f20;fill-opacity:1;fill-rule:nonzero;stroke:none"
         id="path3620" />
      <path
         inkscape:connector-curvature="0"
         d="m 306.44634,459.41923 -0.325,10.37 5.025,-4.945 0.83375,0.84875 -7.08125,6.96875 0.325,-10.37 -5.07,4.9875 -0.83375,-0.8475 7.12625,-7.0125"
         style="fill:#231f20;fill-opacity:1;fill-rule:nonzero;stroke:none"
         id="path3622" />
      <path
         inkscape:connector-curvature="0"
         d="m 317.67884,472.31048 c -1.6675,-2.16625 -4.825,-2.59375 -6.99125,-0.92625 -2.24625,1.72875 -2.575,4.80875 -0.89125,6.995 1.6825,2.18625 4.74375,2.65625 6.99,0.9275 2.16625,-1.66875 2.56,-4.83 0.8925,-6.99625 z m -7,5.38875 c -1.25875,-1.63375 -0.99,-4.045 0.735,-5.3725 1.665,-1.28125 4.015,-1.11125 5.3825,0.66375 1.36625,1.775 0.92875,4.09125 -0.735,5.37375 -1.725,1.3275 -4.12375,0.97 -5.3825,-0.665"
         style="fill:#231f20;fill-opacity:1;fill-rule:nonzero;stroke:none"
         id="path3624" />
      <path
         inkscape:connector-curvature="0"
         d="m 323.04009,489.51298 -0.32625,0.19375 c -2.255,1.335 -4.9275,0.77125 -6.28875,-1.52625 -1.36125,-2.2975 -0.475,-5.32375 1.8,-6.67125 2.36375,-1.4 5.42375,-0.6525 6.82375,1.71 0.755,1.27375 0.92625,2.88 0.39,4.285 l -1.11125,-0.3125 c 0.4575,-1.065 0.40375,-2.3725 -0.19,-3.37375 -1.09,-1.84 -3.4325,-2.395 -5.2725,-1.305 -1.72125,1.02 -2.51625,3.4025 -1.465,5.1775 0.755,1.27375 2.6675,1.995 4.0325,1.245 l -1.2575,-2.12375 0.93625,-0.555 1.92875,3.25625"
         style="fill:#231f20;fill-opacity:1;fill-rule:nonzero;stroke:none"
         id="path3626" />
      <path
         inkscape:connector-curvature="0"
         d="m 325.07884,495.38298 c 0.72625,1.185 2.1425,1.53625 3.38375,0.965 0.8275,-0.38 1.45375,-1.17 1.54625,-2.09 0.0737,-0.87 -0.29625,-1.7025 -0.65,-2.47375 l -0.60375,-1.31 -8.66875,3.9875 0.4975,1.08 3.6675,-1.68625 0.20625,0.4475 -2.49375,4.24 0.6025,1.31125 2.5125,-4.47125 z m 3.20875,-3.38375 0.13125,0.2875 c 0.4925,1.06875 0.88875,2.44625 -0.4675,3.07 -1.38,0.635 -2.13625,-0.465 -2.645,-1.56875 l -0.15875,-0.345 3.14,-1.44375"
         style="fill:#231f20;fill-opacity:1;fill-rule:nonzero;stroke:none"
         id="path3628" />
      <path
         inkscape:connector-curvature="0"
         d="m 327.64759,506.84923 -1.90625,1.8075 0.41625,1.20875 7.92,-7.55 -10.89,-1.06375 0.4175,1.2075 2.615,0.25 1.4275,4.14 z m 0.86875,-0.8225 -1.10625,-3.20625 4.2025,0.345 -3.09625,2.86125"
         style="fill:#231f20;fill-opacity:1;fill-rule:nonzero;stroke:none"
         id="path3630" />
      <path
         inkscape:connector-curvature="0"
         d="m 330.89009,512.42298 0.16,0.665 c 0.4225,1.76 1.53125,3.0675 3.4875,2.5975 1.69875,-0.40875 2.47,-1.53125 1.7825,-4.38625 l -0.31875,-1.32875 -9.27875,2.23125 0.27875,1.15625 3.88875,-0.935 z m 4.35625,-1.0475 0.0738,0.3075 c 0.275,1.145 0.43375,2.565 -1.0175,2.91375 -1.4775,0.355 -2.00625,-0.87125 -2.29,-2.0525 l -0.09,-0.37 3.32375,-0.79875"
         style="fill:#231f20;fill-opacity:1;fill-rule:nonzero;stroke:none"
         id="path3632" />
      <path
         inkscape:connector-curvature="0"
         d="m 334.89384,524.65298 3.80875,-0.54375 0.16875,1.1775 -9.44625,1.35 -0.16875,-1.1775 4.535,-0.64875 -0.6425,-4.4975 -4.53625,0.64875 -0.1675,-1.1775 9.44625,-1.35125 0.16875,1.17875 -3.80875,0.54375 0.6425,4.4975"
         style="fill:#231f20;fill-opacity:1;fill-rule:nonzero;stroke:none"
         id="path3634" />
      <path
         inkscape:connector-curvature="0"
         d="m 339.18509,528.54048 0.06,1.365 -3.96875,2.51875 4.175,2.16 0.06,1.365 -5.52375,-2.8725 -4.1475,0.1825 -0.0512,-1.18875 4.14625,-0.1825 5.25,-3.3475"
         style="fill:#231f20;fill-opacity:1;fill-rule:nonzero;stroke:none"
         id="path3636" />
      <path
         inkscape:connector-curvature="0"
         d="m 262.06509,509.34048 0.9225,0 -0.0325,-0.0563 -0.9225,0 0.0325,0.0563"
         style="fill:#231f20;fill-opacity:1;fill-rule:nonzero;stroke:none"
         id="path3638" />
      <path
         inkscape:connector-curvature="0"
         d="m 171.20334,528.33423 -0.92288,-0.615 -0.0722,0.13375 0.90188,0.7575 0.0932,-0.27625"
         style="fill:#231f20;fill-opacity:1;fill-rule:nonzero;stroke:none"
         id="path3640" />
      <path
         inkscape:connector-curvature="0"
         d="m 206.98384,527.71923 -1.22125,-1.59125 -6.37625,0 0,3.18625 0.8525,0.97625 0,2.94375 -25.48025,0 0,-4.53125 -12.13338,-8.5825 -0.85637,0 0.11812,0.73875 8.32125,6.99375 0.0722,-0.13375 0.92288,0.615 -0.0932,0.27625 1.13037,0.95 0,3.67375 -2.69387,0 1.5635,-4.62375 -0.90188,-0.7575 -0.91212,1.7025 -1.771,3.80125 -1.22163,0 -1.34862,3.56 c -0.5015,1.28375 -0.10163,3.2425 0.79925,4.23875 0.74712,-0.17625 1.70512,-0.32 2.93612,-0.32 5.66838,0 4.65763,2.45625 10.84513,2.45625 6.18312,0 5.18125,-2.45625 10.84187,-2.45625 5.67288,0 4.66663,2.45625 10.85038,2.45625 6.18625,0 5.17625,-2.45625 10.845,-2.45625 5.665,0 4.65375,2.45625 10.84125,2.45625 4.85875,0 5.29,-1.50875 7.98875,-2.16 l -12.47875,-13.4125 -11.44,0"
         style="fill:#ffffff;fill-opacity:1;fill-rule:nonzero;stroke:none"
         id="path3642" />
      <path
         inkscape:connector-curvature="0"
         d="m 222.72884,507.86923 -0.18,-0.43125 -0.42,0.14375 0.175,0.44 0.425,-0.1525"
         style="fill:#231f20;fill-opacity:1;fill-rule:nonzero;stroke:none"
         id="path3644" />
      <path
         inkscape:connector-curvature="0"
         d="m 226.28509,517.73923 c 0.0563,0 -0.12375,-0.43125 -0.12375,-0.43125 l -0.16375,0.0437 0.165,0.4175 c 0.07,-0.0175 0.1175,-0.03 0.1225,-0.03"
         style="fill:#231f20;fill-opacity:1;fill-rule:nonzero;stroke:none"
         id="path3646" />
      <path
         inkscape:connector-curvature="0"
         d="m 284.91634,519.08423 c -0.36375,1.28625 -3.735,3.79125 -7.22,3.98125 l -8.2225,0.3075 0,-5.25625 -0.65875,-0.65875 0.6325,0 0.52,-0.515 0,-1.66 -0.48875,-0.48875 -2.51,0 0,-1.775 -0.55375,-0.54875 0,-3.2525 -0.9225,-0.91 0,-3.735 -2.20125,0 0,3.1725 0.6775,0 0,0.4925 -0.48875,0.365 0,0.68125 -0.525,0 0.0325,0.0563 -0.9225,0 -0.0325,-0.0563 -6.215,0 0,-10.78875 6.215,10.78875 0.9225,0 -6.5225,-11.4575 2.81625,-2.825 0,-0.85625 1.77625,0 0,-0.735 -4.04375,0 0,0.735 1.56,0 0,0.58375 -0.395,0.4 -2.51,0 c 0.0563,0 0,-3.07125 0,-3.07125 l 1.71375,-1.5875 0,-0.67625 -1.71375,0 0,-5.2075 3,0 0.2475,-0.185 0,-0.6725 -0.18875,-0.24125 -3.37125,0 0,-4.905 -0.23625,0 0,4.905 -3.31375,0 -0.185,0.24125 0,0.6725 0.24625,0.185 3.005,0 0,5.2075 -1.71375,0 0,0.67625 1.71375,1.5875 c 0,0 -0.07,15.62625 0,15.62625 0.0613,0 -1.90125,0 -1.90125,0 l -0.49875,0.3075 c 0,0 -0.0513,1.34875 0,1.34875 0.0763,0 -2.385,0 -2.385,0 l 0,-0.4875 -0.2325,-0.43125 -3.74375,0 -0.49375,0.55 0,1.84125 -2.75875,0 0,1.165 0.3075,0.3075 0,5.45375 -2.02125,0 0,-8.52125 -1.1,-1.165 -1.6575,0 -6.55125,1.4725 -0.37375,0.3075 0,2.57125 0.24625,0.24625 0,5.33 -3.4325,0 c 0,0 -0.0613,-10.29625 0,-10.29625 0.0625,0 -1.65625,0 -1.65625,0 l 0,1.16875 0.43,0.29875 0,9.3825 -7.53125,-18.79875 0,1.1725 2.6425,6.67375 0.42,-0.14375 0.18,0.43125 -0.425,0.1525 3.69375,9.33 0.16375,-0.0437 c 0,0 0.18,0.43125 0.12375,0.43125 -0.005,0 -0.0525,0.0125 -0.1225,0.03 l 0.425,1.0725 -2.07875,0.98 0,7.3475 -2.095,0 13.0425,13.76125 c 3.8225,0.44 3.67125,2.36125 9.15,2.36125 6.18625,0 5.18,-2.45625 10.84125,-2.45625 5.66875,0 4.66625,2.45625 10.845,2.45625 6.1875,0 5.17625,-2.45625 10.845,-2.45625 5.665,0 4.65875,2.45625 10.8475,2.45625 4.9125,0 5.295,-1.56 8.07625,-2.2025 l 5.2175,-22.18625 0.68125,-0.67625 0,-0.85625 -17.04375,1.71375"
         style="fill:#ffffff;fill-opacity:1;fill-rule:nonzero;stroke:none"
         id="path3648" />
      <path
         inkscape:connector-curvature="0"
         d="m 219.54759,519.63298 c 0,0 5.73375,-1.62625 6.615,-1.86375 l -0.165,-0.4175 -6.51125,1.7325 0,-10.05125 2.8175,-1.01125 -0.175,-0.44 -2.6425,0.9025 0,-7.57625 -0.25125,-0.6325 0,-1.165 0.25125,0.625 0,-4.60625 -1.4725,-1.96 0,-3.4325 -0.36875,0 0,3.7925 1.22625,1.6 0,28.30375 0.67625,0.71375 0,-4.51375"
         style="fill:#ffffff;fill-opacity:1;fill-rule:nonzero;stroke:none"
         id="path3650" />
      <path
         inkscape:connector-curvature="0"
         d="m 219.23509,500.27548 0.25125,0.6325 0,-1.1725 -0.25125,-0.625 0,1.165"
         style="fill:#231f20;fill-opacity:1;fill-rule:nonzero;stroke:none"
         id="path3652" />
      <path
         inkscape:connector-curvature="0"
         d="m 219.54759,527.16923 2.86625,0 -2.86625,-3.0225 0,3.0225"
         style="fill:#231f20;fill-opacity:1;fill-rule:nonzero;stroke:none"
         id="path3654" />
      <path
         inkscape:connector-curvature="0"
         d="m 199.61509,502.75673 -0.47625,0.005 -6.7325,-7.04375 -0.0687,-0.50625 6.2125,-5.835 0.39625,0.0375 c 2.18875,2.44 3.21,5.885 2.46875,9.335 -0.32375,1.4775 -0.9975,2.88125 -1.8,4.0075 z m -2.34125,2.38625 c -1.16875,0.73375 -2.805,1.315 -4.31125,1.53375 -3.48238,0.5375 -6.86025,-0.70125 -9.1615,-3.04 l -0.0108,-0.4 6.205,-5.83375 0.51412,0.105 6.80188,7.1575 -0.0375,0.4775 z m 21.5975,18.29 -15.1125,-15.94375 -2.2575,-2.25625 0.005,-0.58125 c 3.80375,-4.9975 3.48,-12.1975 -0.955,-16.92 l -8.04,-8.3 c -0.72125,-0.74125 -0.175,-2.23 0.56,-2.945 -1.11125,-0.2375 -8.35088,-2.515 -10.4905,-4.43 l 15.09925,15.76 -0.0138,0.4075 -6.32375,5.93 -0.46,-0.0537 -11.27738,-11.80875 c -0.72025,-0.73625 -0.26512,-2.30125 0.47313,-3.0175 -1.11125,-0.24375 -7.27388,-2.35375 -9.143,-4.505 2.0375,1.99625 3.76162,8.275 3.92675,9.40125 0.76362,-0.695 2.3505,-1.05125 3.05075,-0.285 l 11.07912,11.99625 0.0195,0.47625 -6.30712,5.9275 -0.4165,-0.0175 -14.78325,-16.0525 c 1.77987,2.25375 3.59375,9.61 3.76075,10.74875 0.76562,-0.6925 2.28712,-1.1425 2.97712,-0.385 l 7.77825,8.545 c 4.43363,4.73 11.49563,5.5975 16.72563,2.11625 l 0.585,0.0375 2.2075,2.29375 16.885,18.1475 0.4475,0 0,-4.28625"
         style="fill:#ffffff;fill-opacity:1;fill-rule:nonzero;stroke:none"
         id="path3656" />
      <path
         inkscape:connector-curvature="0"
         d="m 230.90259,541.13173 56.135,60.32875 0.65,0.0775 2.44125,-2.295 -0.0175,-0.65625 -54.655,-57.65625 c -0.495,-0.0588 -1.0475,-0.095 -1.69625,-0.095 -1.21875,0 -2.1175,0.11875 -2.8575,0.29625"
         style="fill:#ffffff;fill-opacity:1;fill-rule:nonzero;stroke:none"
         id="path3658" />
      <path
         inkscape:connector-curvature="0"
         d="m 219.54759,527.16923 0,-3.0225 -0.67625,-0.71375 0,4.28625 -0.4475,0 12.47875,13.4125 c 0.74,-0.1775 1.63875,-0.29625 2.8575,-0.29625 0.64875,0 1.20125,0.0362 1.69625,0.095 l -13.0425,-13.76125 -2.86625,0"
         style="fill:#231f20;fill-opacity:1;fill-rule:nonzero;stroke:none"
         id="path3660" />
      <path
         inkscape:connector-curvature="0"
         d="m 182.23559,619.63673 -3.10688,5.26875 c -0.85937,1.45625 -1.21687,3.06625 0.50038,4.07875 1.71787,1.0125 2.95175,-0.08 3.81112,-1.53625 l 3.1055,-5.27125 1.11463,0.655 -3.33,5.65125 c -1.15963,1.96625 -3.26563,2.75125 -5.315,1.54375 -2.04975,-1.20875 -2.38275,-3.43125 -1.22313,-5.3975 l 3.32863,-5.65 1.11475,0.6575"
         style="fill:#231f20;fill-opacity:1;fill-rule:nonzero;stroke:none"
         id="path4040" />
      <path
         inkscape:connector-curvature="0"
         d="m 196.75634,629.26673 c -0.40875,-0.9075 -1.19125,-1.65 -2.08125,-2.04875 -2.12125,-0.95125 -4.53325,0.0925 -5.47313,2.18875 -0.92875,2.07 -0.11475,4.56 1.99313,5.505 0.92875,0.4175 1.9775,0.46375 2.96125,0.1525 l -0.625,1.39375 c -0.91875,0.1 -1.95375,-0.0788 -2.7825,-0.45 -2.69775,-1.21 -3.96975,-4.3575 -2.74325,-7.0925 1.25487,-2.8 4.48075,-3.975 7.26575,-2.72625 0.82875,0.37125 1.58,0.95 2.09875,1.70875 l -0.61375,1.36875"
         style="fill:#231f20;fill-opacity:1;fill-rule:nonzero;stroke:none"
         id="path4042" />
      <path
         inkscape:connector-curvature="0"
         d="m 210.32009,633.52048 c -0.20875,-0.72125 -0.60375,-1.165 -1.3625,-1.3625 -0.79625,-0.20875 -1.8175,0.1075 -2.045,0.98375 -0.20625,0.785 0.4575,1.39875 1.02,1.80125 l 0.645,0.4675 c 1.27625,0.92875 2.13625,1.99 1.6975,3.66625 -0.475,1.82125 -2.22375,2.755 -4.01875,2.2875 -1.6225,-0.42375 -2.5725,-1.95 -2.365,-3.61375 l 1.3325,0.0637 c -0.30125,1.09875 0.3675,2.1275 1.44375,2.4075 1.0775,0.28125 2.08375,-0.4225 2.35875,-1.47125 0.28125,-1.0775 -0.46125,-1.7675 -1.23125,-2.3525 l -0.61625,-0.4725 c -1.015,-0.79125 -1.88125,-1.71375 -1.51625,-3.10875 0.4225,-1.6225 2.1125,-2.21875 3.6275,-1.8225 1.11625,0.2925 1.8925,1.07625 2.18375,2.18875 l -1.15375,0.3375"
         style="fill:#231f20;fill-opacity:1;fill-rule:nonzero;stroke:none"
         id="path4044" />
      <path
         inkscape:connector-curvature="0"
         d="m 218.61384,635.55298 -2.45,3.87125 3.64375,0.5525 -1.19375,-4.42375 z m -3.15875,4.96125 -1.55875,2.39375 -1.3725,-0.20875 6.515,-9.9475 3.27625,11.43 -1.37375,-0.2075 -0.78,-2.7475 -4.70625,-0.7125"
         style="fill:#231f20;fill-opacity:1;fill-rule:nonzero;stroke:none"
         id="path4046" />
      <path
         inkscape:connector-curvature="0"
         d="m 226.15384,633.60548 7.535,8.39375 0.23375,-7.66125 1.2925,0.0412 -0.33,10.79375 -7.53375,-8.3925 -0.235,7.72875 -1.29375,-0.0388 0.33125,-10.865"
         style="fill:#231f20;fill-opacity:1;fill-rule:nonzero;stroke:none"
         id="path4048" />
      <path
         inkscape:connector-curvature="0"
         d="m 247.18384,642.64673 0.45,-0.0675 c 2.61125,-0.39125 4.72125,-1.71 4.275,-4.68875 -0.45,-2.99 -2.8525,-3.6175 -5.46375,-3.22625 l -0.44875,0.0675 1.1875,7.915 z m -2.64125,-8.89125 2.12125,-0.32 c 3.1425,-0.47125 6.0025,0.795 6.51375,4.21 0.525,3.495 -1.77875,5.565 -5.015,6.05125 l -2.08125,0.3125 -1.53875,-10.25375"
         style="fill:#231f20;fill-opacity:1;fill-rule:nonzero;stroke:none"
         id="path4050" />
      <path
         inkscape:connector-curvature="0"
         d="m 259.09634,641.62798 -1.25875,0.29875 -2.3875,-10.0975 1.2575,-0.29625 2.38875,10.095"
         style="fill:#231f20;fill-opacity:1;fill-rule:nonzero;stroke:none"
         id="path4052" />
      <path
         inkscape:connector-curvature="0"
         d="m 260.51134,630.57423 5.3075,-1.6775 0.35625,1.1275 -4.075,1.28625 0.8725,2.765 3.9575,-1.25 0.35625,1.1275 -3.9575,1.25 1.18,3.735 4.075,-1.2875 0.35625,1.12625 -5.3075,1.6775 -3.12125,-9.88"
         style="fill:#231f20;fill-opacity:1;fill-rule:nonzero;stroke:none"
         id="path4054" />
      <path
         inkscape:connector-curvature="0"
         d="m 279.57759,628.71298 0.16625,0.37875 c 1.14875,2.60125 0.19625,5.41 -2.45625,6.5825 -2.6525,1.17 -5.79875,-0.17375 -6.95875,-2.80125 -1.205,-2.72625 -0.005,-5.93 2.7225,-7.13625 1.47,-0.64875 3.2225,-0.62625 4.66875,0.1325 l -0.48,1.15875 c -1.08875,-0.63125 -2.505,-0.74125 -3.66125,-0.23125 -2.125,0.9375 -3.0225,3.3925 -2.085,5.5175 0.8775,1.985 3.3425,3.15 5.3925,2.24375 1.47125,-0.64875 2.49375,-2.6175 1.86125,-4.18625 l -2.45125,1.08375 -0.4775,-1.0825 3.75875,-1.66"
         style="fill:#231f20;fill-opacity:1;fill-rule:nonzero;stroke:none"
         id="path4056" />
      <path
         inkscape:connector-curvature="0"
         d="m 290.14259,622.59298 c -1.18125,-1.955 -3.62875,-2.7075 -5.7125,-1.44875 -2.0825,1.25875 -2.5525,3.7775 -1.37125,5.73125 1.22375,2.02375 3.79375,2.6075 5.7125,1.4475 1.9175,-1.16 2.595,-3.70625 1.37125,-5.73 z m 1.10625,-0.66875 c 1.595,2.635 0.71375,5.88375 -1.8525,7.43375 -2.565,1.55125 -5.85125,0.82125 -7.44375,-1.81375 -1.5375,-2.54125 -0.69,-5.89875 1.8525,-7.435 2.54125,-1.5375 5.9075,-0.72875 7.44375,1.815"
         style="fill:#231f20;fill-opacity:1;fill-rule:nonzero;stroke:none"
         id="path4058" />
    </g>
  </g>
</svg>
