<?xml version="1.0" encoding="UTF-8" standalone="no"?>
<!-- Created with Inkscape (http://www.inkscape.org/) -->

<svg
   xmlns:dc="http://purl.org/dc/elements/1.1/"
   xmlns:cc="http://creativecommons.org/ns#"
   xmlns:rdf="http://www.w3.org/1999/02/22-rdf-syntax-ns#"
   xmlns:svg="http://www.w3.org/2000/svg"
   xmlns="http://www.w3.org/2000/svg"
   xmlns:sodipodi="http://sodipodi.sourceforge.net/DTD/sodipodi-0.dtd"
   xmlns:inkscape="http://www.inkscape.org/namespaces/inkscape"
   width="226.5625"
   height="226.59375"
   preserveAspectRatio="xMinYMin meet"
   viewBox="0 0 226.5625 226.59375"
   id="svg4786"
   version="1.1"
   inkscape:version="0.48.3.1 r9886"
   sodipodi:docname="sio_logo_color.svg">
  <defs
     id="defs4788" />
  <sodipodi:namedview
     id="base"
     pagecolor="#000000"
     bordercolor="#666666"
     borderopacity="1.0"
     inkscape:pageopacity="0"
     inkscape:pageshadow="2"
     inkscape:zoom="1.979899"
     inkscape:cx="113.28125"
     inkscape:cy="139.41549"
     inkscape:document-units="px"
     inkscape:current-layer="layer1"
     showgrid="false"
     inkscape:window-width="818"
     inkscape:window-height="720"
     inkscape:window-x="440"
     inkscape:window-y="118"
     inkscape:window-maximized="0"
     fit-margin-top="0"
     fit-margin-left="0"
     fit-margin-right="0"
     fit-margin-bottom="0" />
  <metadata
     id="metadata4791">
    <rdf:RDF>
      <cc:Work
         rdf:about="">
        <dc:format>image/svg+xml</dc:format>
        <dc:type
           rdf:resource="http://purl.org/dc/dcmitype/StillImage" />
        <dc:title></dc:title>
      </cc:Work>
    </rdf:RDF>
  </metadata>
  <g
     inkscape:label="Layer 1"
     inkscape:groupmode="layer"
     id="layer1"
     transform="translate(-261.71875,-419.0625)">
    <path
       inkscape:connector-curvature="0"
       id="path3620"
       style="fill:#007eb2;fill-opacity:1;fill-rule:nonzero;stroke:none"
       d="m 297.3925,538.62418 c 6.31125,0 5.27625,-2.51025 11.0575,-2.51025 5.7825,0 4.7525,2.51025 11.065,2.51025 6.305,0 5.2825,-2.51025 11.05625,-2.51025 5.78625,0 4.76125,2.51025 11.0675,2.51025 6.31125,0 5.28,-2.51025 11.06125,-2.51025 5.77875,0 4.74875,2.51025 11.05875,2.51025 6.3125,0 5.2825,-2.51025 11.06375,-2.51025 5.77875,0 4.75,2.51025 11.0625,2.51025 6.31125,0 5.285,-2.51025 11.05875,-2.51025 5.78125,0 4.76125,2.51025 11.0625,2.51025 6.31,0 5.28,-2.51025 11.0625,-2.51025 5.7775,0 4.7525,2.51025 11.0625,2.51025 6.315,0 5.28875,-2.51025 11.0625,-2.51025 5.78125,0 4.75625,2.51025 11.0625,2.51025 6.31625,0 5.3525,-2.51025 11.135,-2.51025 1.11375,0 1.9775,0.0914 2.69,0.24275 0.0537,-1.28762 0.0987,-2.57625 0.0987,-3.8775 0,-51.35262 -40.90125,-92.98637 -91.3525,-92.98637 -50.4525,0 -91.35125,41.63375 -91.35125,92.98637 0,1.30613 0.045,2.6025 0.0962,3.896 0.72625,-0.16362 1.60125,-0.26125 2.75375,-0.26125 5.7825,0 4.755,2.51025 11.06625,2.51025" />
    <path
       inkscape:connector-curvature="0"
       id="path3622"
       style="fill:#176fc1;fill-opacity:1;fill-rule:nonzero;stroke:none"
       d="m 463.39125,536.11393 c -5.7825,0 -4.81875,2.51025 -11.135,2.51025 -6.30625,0 -5.28125,-2.51025 -11.0625,-2.51025 -5.77375,0 -4.7475,2.51025 -11.0625,2.51025 -6.31,0 -5.285,-2.51025 -11.0625,-2.51025 -5.7825,0 -4.7525,2.51025 -11.0625,2.51025 -6.30125,0 -5.28125,-2.51025 -11.0625,-2.51025 -5.77375,0 -4.7475,2.51025 -11.05875,2.51025 -6.3125,0 -5.28375,-2.51025 -11.0625,-2.51025 -5.78125,0 -4.75125,2.51025 -11.06375,2.51025 -6.31,0 -5.28,-2.51025 -11.05875,-2.51025 -5.78125,0 -4.75,2.51025 -11.06125,2.51025 -6.30625,0 -5.28125,-2.51025 -11.0675,-2.51025 -5.77375,0 -4.75125,2.51025 -11.05625,2.51025 -6.3125,0 -5.2825,-2.51025 -11.065,-2.51025 -5.78125,0 -4.74625,2.51025 -11.0575,2.51025 -6.31125,0 -5.28375,-2.51025 -11.06625,-2.51025 -1.1525,0 -2.0275,0.0976 -2.75375,0.26125 2.0075,49.54638 42.08625,89.09275 91.255,89.09275 49.17375,0 89.2575,-39.559 91.25375,-89.11125 -0.7125,-0.15137 -1.57625,-0.24275 -2.69,-0.24275" />
    <path
       inkscape:connector-curvature="0"
       id="path3624"
       style="fill:none;stroke:#ffffff;stroke-width:1.81124997;stroke-linecap:butt;stroke-linejoin:miter;stroke-miterlimit:4;stroke-opacity:1;stroke-dasharray:none"
       d="m 463.39125,536.11393 c -5.7825,0 -4.81875,2.51025 -11.135,2.51025 -6.30625,0 -5.28125,-2.51025 -11.0625,-2.51025 -5.77375,0 -4.7475,2.51025 -11.0625,2.51025 -6.31,0 -5.285,-2.51025 -11.0625,-2.51025 -5.7825,0 -4.7525,2.51025 -11.0625,2.51025 -6.30125,0 -5.28125,-2.51025 -11.0625,-2.51025 -5.77375,0 -4.7475,2.51025 -11.05875,2.51025 -6.3125,0 -5.28375,-2.51025 -11.0625,-2.51025 -5.78125,0 -4.75125,2.51025 -11.06375,2.51025 -6.31,0 -5.28,-2.51025 -11.05875,-2.51025 -5.78125,0 -4.75,2.51025 -11.06125,2.51025 -6.30625,0 -5.28125,-2.51025 -11.0675,-2.51025 -5.77375,0 -4.75125,2.51025 -11.05625,2.51025 -6.3125,0 -5.2825,-2.51025 -11.065,-2.51025 -5.78125,0 -4.74625,2.51025 -11.0575,2.51025 -6.31125,0 -5.28375,-2.51025 -11.06625,-2.51025 -1.1525,0 -2.0275,0.0976 -2.75375,0.26125 2.0075,49.54638 42.08625,89.09275 91.255,89.09275 49.17375,0 89.2575,-39.559 91.25375,-89.11125 -0.7125,-0.15137 -1.57625,-0.24275 -2.69,-0.24275 z" />
    <path
       inkscape:connector-curvature="0"
       id="path3626"
       style="fill:none;stroke:#ffffff;stroke-width:1.81012499;stroke-linecap:butt;stroke-linejoin:miter;stroke-miterlimit:4;stroke-opacity:1;stroke-dasharray:none"
       d="m 465.00875,549.19018 c -0.475,-0.0563 -1.0125,-0.0796 -1.6175,-0.0796 -5.7825,0 -4.81875,2.51225 -11.135,2.51225 -6.30625,0 -5.28125,-2.51225 -11.0625,-2.51225 -5.77375,0 -4.7475,2.51225 -11.0625,2.51225 -6.31,0 -5.285,-2.51225 -11.0625,-2.51225 -5.7825,0 -4.7525,2.51225 -11.0625,2.51225 -6.30125,0 -5.28125,-2.51225 -11.0625,-2.51225 -5.77375,0 -4.7475,2.51225 -11.05875,2.51225 -6.3125,0 -5.28375,-2.51225 -11.0625,-2.51225 -5.78125,0 -4.75125,2.51225 -11.06375,2.51225 -6.31,0 -5.28,-2.51225 -11.05875,-2.51225 -5.78125,0 -4.75,2.51225 -11.06125,2.51225 -6.30625,0 -5.28125,-2.51225 -11.0675,-2.51225 -5.77375,0 -4.75125,2.51225 -11.05625,2.51225 -6.3125,0 -5.2825,-2.51225 -11.065,-2.51225 -5.78125,0 -4.74625,2.51225 -11.0575,2.51225 -6.31125,0 -5.28375,-2.51225 -11.06625,-2.51225 -0.58375,0 -1.10375,0.0234 -1.565,0.0697" />
    <path
       inkscape:connector-curvature="0"
       id="path3628"
       style="fill:none;stroke:#ffffff;stroke-width:1.81012499;stroke-linecap:butt;stroke-linejoin:miter;stroke-miterlimit:4;stroke-opacity:1;stroke-dasharray:none"
       d="m 461.3775,562.23793 c -3.63875,0.5025 -3.6575,2.38488 -9.12125,2.38488 -6.30625,0 -5.28125,-2.50988 -11.0625,-2.50988 -5.77375,0 -4.7475,2.50988 -11.0625,2.50988 -6.31,0 -5.285,-2.50988 -11.0625,-2.50988 -5.7825,0 -4.7525,2.50988 -11.0625,2.50988 -6.30125,0 -5.28125,-2.50988 -11.0625,-2.50988 -5.77375,0 -4.7475,2.50988 -11.05875,2.50988 -6.3125,0 -5.28375,-2.50988 -11.0625,-2.50988 -5.78125,0 -4.75125,2.50988 -11.06375,2.50988 -6.31,0 -5.28,-2.50988 -11.05875,-2.50988 -5.78125,0 -4.75,2.50988 -11.06125,2.50988 -6.30625,0 -5.28125,-2.50988 -11.0675,-2.50988 -5.77375,0 -4.75125,2.50988 -11.05625,2.50988 -6.3125,0 -5.2825,-2.50988 -11.065,-2.50988 -5.78125,0 -4.74625,2.50988 -11.0575,2.50988 -5.5275,0 -5.4275,-1.92388 -9.18875,-2.40725" />
    <path
       inkscape:connector-curvature="0"
       id="path3630"
       style="fill:none;stroke:#ffffff;stroke-width:1.81012499;stroke-linecap:butt;stroke-linejoin:miter;stroke-miterlimit:4;stroke-opacity:1;stroke-dasharray:none"
       d="m 454.30875,577.52018 c -0.59125,0.0615 -1.26875,0.10013 -2.0525,0.10013 -6.30625,0 -5.28125,-2.50875 -11.0625,-2.50875 -5.77375,0 -4.7475,2.50875 -11.0625,2.50875 -6.31,0 -5.285,-2.50875 -11.0625,-2.50875 -5.7825,0 -4.7525,2.50875 -11.0625,2.50875 -6.30125,0 -5.28125,-2.50875 -11.0625,-2.50875 -5.77375,0 -4.7475,2.50875 -11.05875,2.50875 -6.3125,0 -5.28375,-2.50875 -11.0625,-2.50875 -5.78125,0 -4.75125,2.50875 -11.06375,2.50875 -6.31,0 -5.28,-2.50875 -11.05875,-2.50875 -5.78125,0 -4.75,2.50875 -11.06125,2.50875 -6.30625,0 -5.28125,-2.50875 -11.0675,-2.50875 -5.77375,0 -4.75125,2.50875 -11.05625,2.50875 -6.3125,0 -5.2825,-2.50875 -11.065,-2.50875 -5.78125,0 -4.74625,2.50875 -11.0575,2.50875 -0.78875,0 -1.465,-0.0386 -2.0475,-0.10013" />
    <path
       inkscape:connector-curvature="0"
       id="path3632"
       style="fill:none;stroke:#ffffff;stroke-width:1.81012499;stroke-linecap:butt;stroke-linejoin:miter;stroke-miterlimit:4;stroke-opacity:1;stroke-dasharray:none"
       d="m 446.25875,589.22768 c -1.16625,-0.57862 -2.375,-1.11612 -5.065,-1.11612 -5.77375,0 -4.7475,2.50725 -11.0625,2.50725 -6.31,0 -5.285,-2.50725 -11.0625,-2.50725 -5.7825,0 -4.7525,2.50725 -11.0625,2.50725 -6.30125,0 -5.28125,-2.50725 -11.0625,-2.50725 -5.77375,0 -4.7475,2.50725 -11.05875,2.50725 -6.3125,0 -5.28375,-2.50725 -11.0625,-2.50725 -5.78125,0 -4.75125,2.50725 -11.06375,2.50725 -6.31,0 -5.28,-2.50725 -11.05875,-2.50725 -5.78125,0 -4.75,2.50725 -11.06125,2.50725 -6.30625,0 -5.28125,-2.50725 -11.0675,-2.50725 -5.77375,0 -4.75125,2.50725 -11.05625,2.50725 -6.3125,0 -5.2825,-2.50725 -11.065,-2.50725 -2.6075,0 -3.83,0.50725 -4.95625,1.07125" />
    <path
       inkscape:connector-curvature="0"
       id="path3634"
       style="fill:none;stroke:#ffffff;stroke-width:1.81012499;stroke-linecap:butt;stroke-linejoin:miter;stroke-miterlimit:4;stroke-opacity:1;stroke-dasharray:none"
       d="m 431.88875,603.54418 c -0.51125,0.0434 -1.095,0.0746 -1.7575,0.0746 -6.31,0 -5.285,-2.50975 -11.0625,-2.50975 -5.7825,0 -4.7525,2.50975 -11.0625,2.50975 -6.30125,0 -5.28125,-2.50975 -11.0625,-2.50975 -5.77375,0 -4.7475,2.50975 -11.05875,2.50975 -6.3125,0 -5.28375,-2.50975 -11.0625,-2.50975 -5.78125,0 -4.75125,2.50975 -11.06375,2.50975 -6.31,0 -5.28,-2.50975 -11.05875,-2.50975 -5.78125,0 -4.75,2.50975 -11.06125,2.50975 -6.30625,0 -5.28125,-2.50975 -11.0675,-2.50975 -5.77375,0 -4.75125,2.50975 -11.05625,2.50975 -0.60625,0 -1.145,-0.021 -1.6325,-0.0659" />
    <path
       inkscape:connector-curvature="0"
       id="path3636"
       style="fill:none;stroke:#ffffff;stroke-width:1.81012499;stroke-linecap:butt;stroke-linejoin:miter;stroke-miterlimit:4;stroke-opacity:1;stroke-dasharray:none"
       d="m 409.76375,616.54418 c -0.52,0.0434 -1.09375,0.0736 -1.7575,0.0736 -6.30125,0 -5.28125,-2.51025 -11.0625,-2.51025 -5.77375,0 -4.7475,2.51025 -11.05875,2.51025 -6.3125,0 -5.28375,-2.51025 -11.0625,-2.51025 -5.78125,0 -4.75125,2.51025 -11.06375,2.51025 -6.31,0 -5.28,-2.51025 -11.05875,-2.51025 -5.78125,0 -4.75,2.51025 -11.06125,2.51025 -0.4475,0 -0.87,-0.007 -1.25,-0.04" />
    <path
       inkscape:connector-curvature="0"
       id="path3638"
       style="fill:#231f20;fill-opacity:1;fill-rule:nonzero;stroke:none"
       d="m 403.1275,505.21781 0.9225,0 -0.0312,-0.055 -0.9225,0 0.0312,0.055" />
    <path
       inkscape:connector-curvature="0"
       id="path3640"
       style="fill:#231f20;fill-opacity:1;fill-rule:nonzero;stroke:none"
       d="m 312.26625,524.21256 -0.92375,-0.61475 -0.07,0.13387 0.90125,0.75725 0.0925,-0.27637" />
    <path
       inkscape:connector-curvature="0"
       id="path3642"
       style="fill:#ffffff;fill-opacity:1;fill-rule:nonzero;stroke:none"
       d="m 348.0475,523.59781 -1.2225,-1.59275 -6.375,0 0,3.1865 0.85125,0.97612 0,2.94525 -25.48,0 0,-4.53125 -12.1325,-8.58262 -0.85625,0 0.1175,0.7375 8.3225,6.99512 0.07,-0.13387 0.92375,0.61475 -0.0925,0.27637 1.13,0.94875 0,3.67525 -2.6925,0 1.5625,-4.624 -0.90125,-0.75725 -0.91375,1.70113 -1.77,3.80125 -1.2225,0 -1.3475,3.56012 c -0.5025,1.28363 -0.1025,3.24513 0.7975,4.24113 0.7475,-0.17625 1.7075,-0.31975 2.9375,-0.31975 5.66875,0 4.65875,2.456 10.845,2.456 6.18375,0 5.18,-2.456 10.8425,-2.456 5.6725,0 4.665,2.456 10.84875,2.456 6.18625,0 5.17625,-2.456 10.845,-2.456 5.665,0 4.655,2.456 10.8425,2.456 4.85875,0 5.28875,-1.50875 7.9875,-2.16113 l -12.47875,-13.41262 -11.43875,0" />
    <path
       inkscape:connector-curvature="0"
       id="path3644"
       style="fill:#231f20;fill-opacity:1;fill-rule:nonzero;stroke:none"
       d="m 363.79125,503.74656 -0.17875,-0.43 -0.42,0.14375 0.175,0.44 0.42375,-0.15375" />
    <path
       inkscape:connector-curvature="0"
       id="path3646"
       style="fill:#231f20;fill-opacity:1;fill-rule:nonzero;stroke:none"
       d="m 367.3475,513.61656 c 0.0575,0 -0.1225,-0.43 -0.1225,-0.43 l -0.16375,0.045 0.165,0.4175 c 0.0687,-0.02 0.1175,-0.0325 0.12125,-0.0325" />
    <path
       inkscape:connector-curvature="0"
       id="path3648"
       style="fill:#ffffff;fill-opacity:1;fill-rule:nonzero;stroke:none"
       d="m 425.97875,514.96156 c -0.36375,1.2875 -3.735,3.7925 -7.21875,3.9825 l -8.2225,0.3075 0,-5.25625 -0.65875,-0.65875 0.63125,0 0.52,-0.515 0,-1.66125 -0.4875,-0.4875 -2.51,0 0,-1.775 -0.55375,-0.55 0,-3.25125 -0.92375,-0.91125 0,-3.735 -2.2,0 0,3.17375 0.6775,0 0,0.49125 -0.48875,0.36625 0,0.68125 -0.525,0 0.0312,0.055 -0.9225,0 -0.0312,-0.055 -6.21625,0 0,-10.78875 6.21625,10.78875 0.9225,0 -6.52375,-11.4575 2.81625,-2.825 0,-0.8575 1.77625,0 0,-0.735 -4.0425,0 0,0.735 1.56,0 0,0.58375 -0.39625,0.4 -2.50875,0 c 0.0562,0 0,-3.07125 0,-3.07125 l 1.71375,-1.58625 0,-0.67625 -1.71375,0 0,-5.2075 3,0 0.24625,-0.18625 0,-0.67125 -0.1875,-0.24125 -3.37125,0 0,-4.905 -0.2375,0 0,4.905 -3.3125,0 -0.18625,0.24125 0,0.67125 0.2475,0.18625 3.005,0 0,5.2075 -1.71375,0 0,0.67625 1.71375,1.58625 c 0,0 -0.0712,15.6275 0,15.6275 0.0613,0 -1.9025,0 -1.9025,0 l -0.4975,0.3075 c 0,0 -0.0512,1.3475 0,1.3475 0.0763,0 -2.385,0 -2.385,0 l 0,-0.4875 -0.23375,-0.43 -3.74375,0 -0.4925,0.55 0,1.84 -2.75875,0 0,1.165 0.3075,0.3075 0,5.45375 -2.0225,0 0,-8.52 -1.09875,-1.165 -1.6575,0 -6.5525,1.4725 -0.37375,0.3075 0,2.57125 0.2475,0.24625 0,5.33 -3.4325,0 c 0,0 -0.0613,-10.29625 0,-10.29625 0.0613,0 -1.65625,0 -1.65625,0 l 0,1.1675 0.43,0.3 0,9.3825 -7.53125,-18.79875 0,1.17125 2.6425,6.675 0.42,-0.14375 0.17875,0.43 -0.42375,0.15375 3.69375,9.33125 0.16375,-0.045 c 0,0 0.18,0.43 0.1225,0.43 -0.004,0 -0.0525,0.0125 -0.12125,0.0325 l 0.425,1.07125 -2.08,0.97875 0,7.3485 -2.095,0 13.0425,13.76025 c 3.82375,0.44 3.6725,2.36375 9.15,2.36375 6.1875,0 5.18125,-2.456 10.84125,-2.456 5.66875,0 4.6675,2.456 10.84625,2.456 6.18625,0 5.17625,-2.456 10.845,-2.456 5.665,0 4.6575,2.456 10.8475,2.456 4.91125,0 5.295,-1.56 8.075,-2.20263 l 5.2175,-22.18737 0.68125,-0.67625 0,-0.8575 -17.04375,1.71375" />
    <path
       inkscape:connector-curvature="0"
       id="path3650"
       style="fill:#ffffff;fill-opacity:1;fill-rule:nonzero;stroke:none"
       d="m 360.61125,515.51156 c 0,0 5.73375,-1.62625 6.615,-1.8625 l -0.165,-0.4175 -6.51125,1.73 0,-10.05125 2.8175,-1.01 -0.175,-0.44 -2.6425,0.90125 0,-7.57625 -0.25125,-0.63125 0,-1.165 0.25125,0.625 0,-4.6075 -1.4725,-1.96 0,-3.4325 -0.36875,0 0,3.79375 1.225,1.59875 0,28.30375 0.6775,0.715 0,-4.51375" />
    <path
       inkscape:connector-curvature="0"
       id="path3652"
       style="fill:#231f20;fill-opacity:1;fill-rule:nonzero;stroke:none"
       d="m 360.29875,496.15406 0.25125,0.63125 0,-1.17125 -0.25125,-0.625 0,1.165" />
    <path
       inkscape:connector-curvature="0"
       id="path3654"
       style="fill:#ffffff;fill-opacity:1;fill-rule:nonzero;stroke:none"
       d="m 360.61125,523.04756 2.865,0 -2.865,-3.02225 0,3.02225" />
    <path
       inkscape:connector-curvature="0"
       id="path3656"
       style="fill:#ffffff;fill-opacity:1;fill-rule:nonzero;stroke:none"
       d="m 340.67875,498.63406 -0.47625,0.008 -6.7325,-7.04375 -0.0688,-0.5075 6.2125,-5.835 0.39625,0.0362 c 2.1875,2.44125 3.21,5.88625 2.46875,9.33625 -0.325,1.47625 -0.99875,2.88125 -1.8,4.00625 z m -2.34125,2.3875 c -1.16875,0.7325 -2.805,1.31375 -4.31125,1.53375 -3.4825,0.53625 -6.86,-0.70125 -9.1625,-3.04 l -0.01,-0.4 6.205,-5.835 0.51375,0.1075 6.80125,7.155 -0.0362,0.47875 z m 21.59625,18.28875 -15.11125,-15.9425 -2.25875,-2.25625 0.005,-0.58125 c 3.80375,-5 3.48125,-12.19625 -0.95375,-16.92125 l -8.04,-8.2975 c -0.72125,-0.7425 -0.17625,-2.23125 0.56,-2.9475 -1.11125,-0.23625 -8.35125,-2.51375 -10.49125,-4.43125 l 15.09875,15.7625 -0.0125,0.4075 -6.32375,5.93 -0.46,-0.0537 -11.2775,-11.80875 c -0.72,-0.735 -0.26625,-2.3025 0.47375,-3.0175 -1.1125,-0.245 -7.275,-2.35375 -9.14375,-4.505 2.0375,1.9975 3.76125,8.27375 3.92625,9.4 0.765,-0.69375 2.35125,-1.05 3.05125,-0.28375 l 11.07875,11.9975 0.02,0.47375 -6.3075,5.9275 -0.41625,-0.0175 -14.78375,-16.0525 c 1.78125,2.25375 3.59375,9.61 3.7625,10.75 0.765,-0.69375 2.28625,-1.1425 2.975,-0.385 l 7.77875,8.54375 c 4.43375,4.7325 11.49625,5.59875 16.72625,2.1175 l 0.585,0.0362 2.20625,2.295 16.885,18.1475 0.4475,0 0,-4.2875" />
    <path
       inkscape:connector-curvature="0"
       id="path3658"
       style="fill:#ffffff;fill-opacity:1;fill-rule:nonzero;stroke:none"
       d="m 371.965,537.01043 56.13625,60.33013 0.64875,0.0771 2.44125,-2.29487 -0.0162,-0.65875 -54.65625,-57.65625 c -0.4925,-0.0561 -1.0475,-0.0922 -1.69625,-0.0922 -1.2175,0 -2.1175,0.11712 -2.8575,0.29487" />
    <path
       inkscape:connector-curvature="0"
       id="path3660"
       style="fill:#4b87ce;fill-opacity:1;fill-rule:nonzero;stroke:none"
       d="m 360.61125,523.04756 0,-3.02225 -0.6775,-0.715 0,4.2875 -0.4475,0 12.47875,13.41262 c 0.74,-0.17775 1.64,-0.29487 2.8575,-0.29487 0.64875,0 1.20375,0.0361 1.69625,0.0922 l -13.0425,-13.76025 -2.865,0" />
    <path
       inkscape:connector-curvature="0"
       id="path3662"
       style="fill:#ffffff;fill-opacity:1;fill-rule:nonzero;stroke:none"
       d="m 374.88125,622.08418 c -49.7175,0 -90.015,-40.30762 -90.015,-90.02 0,-49.71887 40.2975,-90.01762 90.015,-90.01762 49.71875,0 90.02625,40.29875 90.02625,90.01762 0,49.71238 -40.3075,90.02 -90.02625,90.02 z m 0.13125,-202.44887 c -62.25875,0 -112.735,50.47125 -112.735,112.7335 0,62.249 50.47625,112.72025 112.735,112.72025 62.25375,0 112.71,-50.47125 112.71,-112.72025 0,-62.26225 -50.45625,-112.7335 -112.71,-112.7335" />
    <path
       inkscape:connector-curvature="0"
       id="path3664"
       style="fill:none;stroke:#176fc1;stroke-width:1.125;stroke-linecap:butt;stroke-linejoin:miter;stroke-miterlimit:4;stroke-opacity:1;stroke-dasharray:none"
       d="m 374.88125,622.08418 c -49.7175,0 -90.015,-40.30762 -90.015,-90.02 0,-49.71887 40.2975,-90.01762 90.015,-90.01762 49.71875,0 90.02625,40.29875 90.02625,90.01762 0,49.71238 -40.3075,90.02 -90.02625,90.02 z m 0.13125,-202.44887 c -62.25875,0 -112.735,50.47125 -112.735,112.7335 0,62.249 50.47625,112.72025 112.735,112.72025 62.25375,0 112.71,-50.47125 112.71,-112.72025 0,-62.26225 -50.45625,-112.7335 -112.71,-112.7335 z" />
    <path
       inkscape:connector-curvature="0"
       id="path3666"
       style="fill:#176fc1;fill-opacity:1;fill-rule:nonzero;stroke:none"
       d="m 270.7425,527.14518 c -0.6075,0.33013 -0.9275,0.77488 -0.955,1.49663 -0.0275,0.75725 0.45875,1.61225 1.29375,1.6435 0.74625,0.0274 1.16625,-0.69238 1.415,-1.27638 l 0.2925,-0.67375 c 0.58125,-1.3335 1.36375,-2.31737 2.95875,-2.25737 1.7325,0.065 2.9225,1.45125 2.8575,3.15725 -0.0575,1.544 -1.24,2.70262 -2.77875,2.84912 l -0.2075,-1.21137 c 1.04875,0.0512 1.83875,-0.755 1.8775,-1.77988 0.0388,-1.02387 -0.79375,-1.79 -1.7925,-1.82762 -1.02625,-0.0376 -1.49875,0.76762 -1.87,1.57762 l -0.30375,0.646 c -0.50875,1.07138 -1.165,2.03375 -2.49375,1.98388 -1.5425,-0.0576 -2.41375,-1.4575 -2.36,-2.89888 0.0387,-1.0625 0.59,-1.915 1.5325,-2.39987 l 0.53375,0.97112" />
    <path
       inkscape:connector-curvature="0"
       id="path3668"
       style="fill:#176fc1;fill-opacity:1;fill-rule:nonzero;stroke:none"
       d="m 272.03375,515.23781 c -0.6925,0.59625 -1.14375,1.48125 -1.2625,2.37125 -0.285,2.12 1.26625,3.97512 3.36125,4.25637 2.07,0.27875 4.05375,-1.09037 4.3375,-3.19762 0.12375,-0.92875 -0.1075,-1.86625 -0.64,-2.6525 l 1.39125,0.1875 c 0.33,0.785 0.44375,1.74375 0.3325,2.5725 -0.3625,2.69612 -2.80625,4.64137 -5.54125,4.27375 -2.7975,-0.375 -4.67875,-2.9125 -4.305,-5.6975 0.11125,-0.82875 0.425,-1.64125 0.95875,-2.2975 l 1.3675,0.18375" />
    <path
       inkscape:connector-curvature="0"
       id="path3670"
       style="fill:#176fc1;fill-opacity:1;fill-rule:nonzero;stroke:none"
       d="m 276.91,509.50906 c 0.15375,-1.38 -0.74875,-2.52625 -2.08,-2.8375 -0.88625,-0.2075 -1.86625,0.0312 -2.5025,0.70125 -0.5925,0.6425 -0.8125,1.52625 -1.005,2.3525 l -0.32875,1.405 9.2925,2.17 0.27125,-1.1575 -3.93125,-0.91875 0.11125,-0.48125 4.57125,-1.8175 0.32875,-1.405 -4.7275,1.98875 z m -4.61,0.705 0.0725,-0.30875 c 0.2675,-1.14625 0.79875,-2.4775 2.2525,-2.1375 1.48,0.345 1.4025,1.67875 1.12625,2.8625 l -0.0875,0.36875 -3.36375,-0.785" />
    <path
       inkscape:connector-curvature="0"
       id="path3672"
       style="fill:#176fc1;fill-opacity:1;fill-rule:nonzero;stroke:none"
       d="m 282.78625,503.81156 -0.3525,1.1375 -9.11625,-2.81625 0.35,-1.13625 9.11875,2.815" />
    <path
       inkscape:connector-curvature="0"
       id="path3674"
       style="fill:#176fc1;fill-opacity:1;fill-rule:nonzero;stroke:none"
       d="m 280.6,497.86406 0.24375,-0.63875 c 0.64875,-1.69 0.47625,-3.39625 -1.4025,-4.11625 -1.63,-0.62625 -2.90125,-0.1375 -3.95375,2.6025 l -0.49,1.2775 8.90875,3.41875 0.42625,-1.11125 -3.7325,-1.4325 z m -4.18375,-1.605 0.11375,-0.29625 c 0.42125,-1.09875 1.095,-2.35875 2.48875,-1.82375 1.41875,0.545 1.16,1.855 0.72375,2.98875 l -0.13625,0.355 -3.19,-1.22375" />
    <path
       inkscape:connector-curvature="0"
       id="path3676"
       style="fill:#176fc1;fill-opacity:1;fill-rule:nonzero;stroke:none"
       d="m 283.78375,490.27406 0.29625,-0.615 c 0.785,-1.63 0.75375,-3.34625 -1.05875,-4.21875 -1.57375,-0.7575 -2.88,-0.3775 -4.155,2.26875 l -0.59375,1.23125 8.59625,4.1425 0.51625,-1.0725 -3.60125,-1.73625 z m -4.0375,-1.94375 0.1375,-0.285 c 0.51125,-1.06 1.28625,-2.26 2.63125,-1.6125 1.36875,0.66 1.0025,1.94375 0.475,3.03875 l -0.165,0.34125 -3.07875,-1.4825" />
    <path
       inkscape:connector-curvature="0"
       id="path3678"
       style="fill:#176fc1;fill-opacity:1;fill-rule:nonzero;stroke:none"
       d="m 285.92,478.44531 c -0.69375,10e-4 -1.1875,0.24 -1.555,0.86125 -0.385,0.6525 -0.36375,1.63625 0.35625,2.06125 0.64125,0.38 1.35375,-0.0525 1.8525,-0.44875 l 0.57625,-0.4525 c 1.14625,-0.895 2.305,-1.3875 3.67625,-0.575 1.49375,0.8825 1.87875,2.66875 1.00875,4.13875 -0.785,1.32875 -2.3775,1.785 -3.79875,1.18 l 0.39375,-1.16375 c 0.8975,0.545 1.97625,0.2125 2.4975,-0.67 0.5225,-0.8825 0.155,-1.9525 -0.705,-2.46125 -0.8825,-0.5225 -1.68375,-0.0387 -2.39625,0.49625 l -0.57375,0.42375 c -0.9575,0.69875 -1.99375,1.23375 -3.1375,0.5575 -1.32875,-0.78625 -1.42875,-2.43375 -0.69375,-3.67625 0.54,-0.91375 1.43125,-1.4025 2.49125,-1.37875 l 0.007,1.1075" />
    <path
       inkscape:connector-curvature="0"
       id="path3680"
       style="fill:#176fc1;fill-opacity:1;fill-rule:nonzero;stroke:none"
       d="m 298.7825,473.49531 -0.7275,0.94 -7.54875,-5.8375 0.7275,-0.94125 7.54875,5.83875" />
    <path
       inkscape:connector-curvature="0"
       id="path3682"
       style="fill:#176fc1;fill-opacity:1;fill-rule:nonzero;stroke:none"
       d="m 293.4275,464.11156 10.3725,-0.2125 -5.1975,-4.7625 0.80375,-0.87625 7.32625,6.71 -10.37375,0.2125 5.245,4.805 -0.80375,0.8775 -7.3725,-6.75375" />
    <path
       inkscape:connector-curvature="0"
       id="path3684"
       style="fill:#176fc1;fill-opacity:1;fill-rule:nonzero;stroke:none"
       d="m 306.875,453.86781 c -0.65875,-0.21 -1.2025,-0.13375 -1.74,0.34625 -0.5675,0.50375 -0.8475,1.4475 -0.29375,2.07125 0.49625,0.5575 1.305,0.36375 1.9025,0.13875 l 0.6875,-0.255 c 1.36375,-0.5025 2.6175,-0.61625 3.67625,0.575 1.1525,1.29625 0.9725,3.11375 -0.30375,4.25 -1.15375,1.025 -2.80875,0.9725 -3.97875,-0.0375 l 0.73125,-0.98875 c 0.68875,0.79375 1.81625,0.8075 2.58375,0.12625 0.76625,-0.68125 0.7425,-1.81125 0.0788,-2.56 -0.68125,-0.765 -1.59,-0.55 -2.43125,-0.25875 l -0.6775,0.22875 c -1.125,0.3725 -2.275,0.565 -3.1575,-0.42875 -1.02625,-1.15375 -0.6175,-2.7525 0.46125,-3.71125 0.79375,-0.705 1.79125,-0.89875 2.79375,-0.55125 l -0.3325,1.055" />
    <path
       inkscape:connector-curvature="0"
       id="path3686"
       style="fill:#176fc1;fill-opacity:1;fill-rule:nonzero;stroke:none"
       d="m 317.30625,455.44156 -0.95125,0.715 -5.08,-6.7575 -1.81125,1.36125 -0.655,-0.86875 4.5725,-3.43875 0.655,0.87 -1.81,1.36125 5.08,6.7575" />
    <path
       inkscape:connector-curvature="0"
       id="path3688"
       style="fill:#176fc1;fill-opacity:1;fill-rule:nonzero;stroke:none"
       d="m 322.26125,451.99781 -0.99375,0.655 -5.24625,-7.97125 0.99375,-0.655 5.24625,7.97125" />
    <path
       inkscape:connector-curvature="0"
       id="path3690"
       style="fill:#176fc1;fill-opacity:1;fill-rule:nonzero;stroke:none"
       d="m 327.425,448.86906 -1.0325,0.59125 -4.1975,-7.33875 -1.96625,1.12375 -0.54125,-0.94375 4.96625,-2.84 0.54125,0.945 -1.9675,1.12375 4.1975,7.33875" />
    <path
       inkscape:connector-curvature="0"
       id="path3692"
       style="fill:#176fc1;fill-opacity:1;fill-rule:nonzero;stroke:none"
       d="m 328.625,437.45281 2.34,5.1225 c 0.64625,1.41625 1.6725,2.53375 3.3425,1.77125 1.66875,-0.7625 1.495,-2.26875 0.8475,-3.685 l -2.34,-5.12375 1.0825,-0.49375 2.5075,5.49125 c 0.8725,1.91125 0.355,3.91375 -1.635,4.825 -1.9925,0.90875 -3.84625,-0.0113 -4.71875,-1.9225 l -2.50875,-5.49125 1.0825,-0.49375" />
    <path
       inkscape:connector-curvature="0"
       id="path3694"
       style="fill:#176fc1;fill-opacity:1;fill-rule:nonzero;stroke:none"
       d="m 343.335,441.72156 -1.1225,0.3925 -2.7975,-7.9775 -2.1375,0.75 -0.36125,-1.0275 5.4,-1.8925 0.36,1.02625 -2.13875,0.75 2.7975,7.97875" />
    <path
       inkscape:connector-curvature="0"
       id="path3696"
       style="fill:#176fc1;fill-opacity:1;fill-rule:nonzero;stroke:none"
       d="m 349.1,439.94281 -1.145,0.3225 -2.58375,-9.1875 1.145,-0.32125 2.58375,9.18625" />
    <path
       inkscape:connector-curvature="0"
       id="path3698"
       style="fill:#176fc1;fill-opacity:1;fill-rule:nonzero;stroke:none"
       d="m 354.83125,428.62281 c -2.685,0.5075 -4.495,3.13 -3.98625,5.81625 0.52625,2.785 3.125,4.47125 5.83625,3.9575 2.71125,-0.5125 4.51375,-3.03 3.9875,-5.81625 -0.50875,-2.685 -3.15,-4.465 -5.8375,-3.9575 z m 1.6425,8.68 c -2.02625,0.38375 -4.055,-0.945 -4.46,-3.085 -0.39125,-2.065 0.825,-4.085 3.025,-4.50125 2.20125,-0.41625 4.07,1.02125 4.46125,3.085 0.40375,2.14 -0.99875,4.1175 -3.02625,4.50125" />
    <path
       inkscape:connector-curvature="0"
       id="path3700"
       style="fill:#176fc1;fill-opacity:1;fill-rule:nonzero;stroke:none"
       d="m 363.47125,427.01906 7.6375,7.0225 -0.45875,-7.035 1.18625,-0.0762 0.6475,9.9125 -7.6375,-7.02125 0.46375,7.0975 -1.1875,0.0775 -0.65125,-9.9775" />
    <path
       inkscape:connector-curvature="0"
       id="path3702"
       style="fill:#176fc1;fill-opacity:1;fill-rule:nonzero;stroke:none"
       d="m 386.61875,427.44156 c -2.7175,-0.305 -5.21875,1.6675 -5.52375,4.38375 -0.31625,2.8175 1.67,5.1925 4.4125,5.50125 2.7425,0.3075 5.2075,-1.5675 5.5225,-4.385 0.30625,-2.71625 -1.695,-5.195 -4.41125,-5.5 z m -0.9875,8.7775 c -2.05,-0.23 -3.5975,-2.0975 -3.35375,-4.26125 0.235,-2.0875 1.99,-3.66125 4.2175,-3.41 2.225,0.25 3.58875,2.17375 3.35375,4.26125 -0.2425,2.1625 -2.16625,3.64125 -4.2175,3.41" />
    <path
       inkscape:connector-curvature="0"
       id="path3704"
       style="fill:#176fc1;fill-opacity:1;fill-rule:nonzero;stroke:none"
       d="m 396.12625,430.26406 -0.57125,2.62125 3.24,0.705 -0.23125,1.0625 -3.24,-0.70375 -0.995,4.575 -1.16375,-0.2525 2.03,-9.325 4.51375,0.9825 -0.2325,1.06375 -3.35,-0.72875" />
    <path
       inkscape:connector-curvature="0"
       id="path3706"
       style="fill:#176fc1;fill-opacity:1;fill-rule:nonzero;stroke:none"
       d="m 413.4225,434.08406 c -2.54625,-1 -5.4725,0.25625 -6.4725,2.8 -1.03625,2.64 0.26625,5.45 2.8325,6.45875 2.56875,1.00875 5.43625,-0.1625 6.4725,-2.80125 1,-2.545 -0.28875,-5.4575 -2.8325,-6.4575 z m -3.23125,8.22125 c -1.92125,-0.75375 -2.93,-2.95875 -2.13375,-4.985 0.7675,-1.955 2.87125,-3.01875 4.95625,-2.2 2.085,0.82 2.9025,3.03125 2.13375,4.98625 -0.795,2.02625 -3.03625,2.95375 -4.95625,2.19875" />
    <path
       inkscape:connector-curvature="0"
       id="path3708"
       style="fill:#176fc1;fill-opacity:1;fill-rule:nonzero;stroke:none"
       d="m 426.69375,442.65656 c -0.3175,-0.8575 -0.99,-1.58875 -1.78375,-2.01 -1.88875,-1.00375 -4.1675,-0.19625 -5.16,1.67 -0.98125,1.84375 -0.38875,4.18 1.4875,5.17875 0.8275,0.43875 1.7875,0.54875 2.71,0.32375 l -0.66,1.24 c -0.85,0.035 -1.79,-0.19375 -2.52625,-0.585 -2.4025,-1.2775 -3.37625,-4.24625 -2.07875,-6.6825 1.325,-2.4925 4.35875,-3.3725 6.83875,-2.0525 0.7375,0.3925 1.3925,0.96875 1.82,1.69875 l -0.6475,1.21875" />
    <path
       inkscape:connector-curvature="0"
       id="path3710"
       style="fill:#176fc1;fill-opacity:1;fill-rule:nonzero;stroke:none"
       d="m 430.895,443.10656 4.27875,2.8225 -0.6,0.90875 -3.285,-2.1675 -1.47,2.22875 3.18875,2.105 -0.59875,0.9075 -3.19,-2.10375 -1.9875,3.01 3.28625,2.1675 -0.6,0.90875 -4.2775,-2.8225 5.255,-7.965" />
    <path
       inkscape:connector-curvature="0"
       id="path3712"
       style="fill:#176fc1;fill-opacity:1;fill-rule:nonzero;stroke:none"
       d="m 438.38625,457.42656 -0.6575,2.54375 0.99375,0.80375 2.71375,-10.6 -9.79875,4.87 0.99375,0.80375 2.35125,-1.175 3.40375,2.75375 z m 0.3,-1.1575 -2.63625,-2.1325 3.74625,-1.935 -1.11,4.0675" />
    <path
       inkscape:connector-curvature="0"
       id="path3714"
       style="fill:#176fc1;fill-opacity:1;fill-rule:nonzero;stroke:none"
       d="m 447.5025,455.29156 -0.32375,10.37 5.025,-4.945 0.83375,0.84875 -7.08,6.96875 0.32375,-10.37 -5.07,4.98875 -0.83375,-0.84875 7.125,-7.0125" />
    <path
       inkscape:connector-curvature="0"
       id="path3716"
       style="fill:#176fc1;fill-opacity:1;fill-rule:nonzero;stroke:none"
       d="m 458.73625,468.18281 c -1.6675,-2.1675 -4.825,-2.59625 -6.99,-0.9275 -2.2475,1.72875 -2.575,4.80875 -0.89125,6.995 1.6825,2.18625 4.74375,2.65625 6.99125,0.92625 2.165,-1.6675 2.5575,-4.82875 0.89,-6.99375 z m -6.99875,5.38875 c -1.26,-1.635 -0.99125,-4.045 0.73375,-5.37375 1.665,-1.28125 4.01625,-1.11125 5.3825,0.66375 1.36625,1.77375 0.93125,4.09125 -0.73375,5.3725 -1.725,1.32875 -4.12375,0.9725 -5.3825,-0.6625" />
    <path
       inkscape:connector-curvature="0"
       id="path3718"
       style="fill:#176fc1;fill-opacity:1;fill-rule:nonzero;stroke:none"
       d="m 464.1,485.38406 -0.3275,0.195 c -2.25375,1.335 -4.9275,0.77125 -6.2875,-1.52625 -1.36125,-2.29875 -0.47625,-5.32375 1.79875,-6.67125 2.36375,-1.4 5.42375,-0.65375 6.82375,1.70875 0.75375,1.275 0.925,2.88 0.39,4.285 l -1.11125,-0.3125 c 0.4575,-1.065 0.40375,-2.3725 -0.19,-3.37375 -1.09,-1.84 -3.43375,-2.39375 -5.2725,-1.30375 -1.72125,1.01875 -2.51625,3.4025 -1.46375,5.1775 0.75375,1.27375 2.6675,1.995 4.03125,1.24375 l -1.2575,-2.1225 0.9375,-0.555 1.92875,3.255" />
    <path
       inkscape:connector-curvature="0"
       id="path3720"
       style="fill:#176fc1;fill-opacity:1;fill-rule:nonzero;stroke:none"
       d="m 466.14,491.25406 c 0.72625,1.185 2.14125,1.53625 3.38375,0.965 0.8275,-0.38125 1.45375,-1.17 1.54625,-2.09125 0.0725,-0.86875 -0.29625,-1.7025 -0.65125,-2.4725 l -0.6025,-1.31 -8.67,3.9875 0.49875,1.08125 3.66625,-1.6875 0.20625,0.4475 -2.4925,4.24125 0.60375,1.31 2.51125,-4.47125 z m 3.2075,-3.38375 0.1325,0.28625 c 0.4925,1.07 0.88875,2.4475 -0.4675,3.07125 -1.38,0.635 -2.1375,-0.465 -2.645,-1.57 l -0.15875,-0.34375 3.13875,-1.44375" />
    <path
       inkscape:connector-curvature="0"
       id="path3722"
       style="fill:#176fc1;fill-opacity:1;fill-rule:nonzero;stroke:none"
       d="m 468.70875,502.72031 -1.90625,1.81 0.4175,1.2075 7.91875,-7.55125 -10.89,-1.06375 0.41625,1.20875 2.615,0.24875 1.42875,4.14 z m 0.8675,-0.82125 -1.105,-3.20625 4.2025,0.34375 -3.0975,2.8625" />
    <path
       inkscape:connector-curvature="0"
       id="path3724"
       style="fill:#176fc1;fill-opacity:1;fill-rule:nonzero;stroke:none"
       d="m 472.985,508.04656 0.0875,0.36875 c 0.285,1.18125 0.815,2.4075 2.29,2.05375 1.4525,-0.35125 1.2925,-1.77 1.01875,-2.91375 l -0.075,-0.3075 -3.32125,0.79875 z m -4.92375,1.1825 -0.2775,-1.155 9.27875,-2.23125 0.32,1.3275 c 0.68625,2.855 -0.085,3.97875 -1.7825,4.38625 -1.9575,0.47125 -3.06625,-0.8375 -3.48875,-2.59625 l -0.16,-0.66625 -3.89,0.935" />
    <path
       inkscape:connector-curvature="0"
       id="path3726"
       style="fill:#176fc1;fill-opacity:1;fill-rule:nonzero;stroke:none"
       d="m 475.95625,520.52656 3.80875,-0.545 0.16875,1.17637 -9.4475,1.351 -0.16875,-1.17725 4.53625,-0.64737 -0.64375,-4.499 -4.535,0.64875 -0.1675,-1.1775 9.445,-1.35125 0.16875,1.1775 -3.80875,0.545 0.64375,4.49875" />
    <path
       inkscape:connector-curvature="0"
       id="path3728"
       style="fill:#176fc1;fill-opacity:1;fill-rule:nonzero;stroke:none"
       d="m 480.24625,524.41031 0.0613,1.36625 -3.9675,2.51762 4.1725,2.16013 0.0612,1.36625 -5.52375,-2.87413 -4.14625,0.18263 -0.0525,-1.18888 4.14625,-0.18125 5.24875,-3.34862" />
    <path
       inkscape:connector-curvature="0"
       id="path3926"
       style="fill:#176fc1;fill-opacity:1;fill-rule:nonzero;stroke:none"
       d="m 324.1625,615.00406 -3.10625,5.27 c -0.86,1.45612 -1.2175,3.0665 0.5,4.07775 1.7175,1.01362 2.9525,-0.0791 3.81125,-1.53525 l 3.10625,-5.2715 1.11375,0.65537 -3.33,5.65138 c -1.16,1.96475 -3.265,2.75087 -5.315,1.54237 -2.05,-1.20887 -2.3825,-3.43012 -1.2225,-5.39737 l 3.32875,-5.65038 1.11375,0.65763" />
    <path
       inkscape:connector-curvature="0"
       id="path3928"
       style="fill:#176fc1;fill-opacity:1;fill-rule:nonzero;stroke:none"
       d="m 338.68375,624.63543 c -0.40875,-0.90775 -1.19125,-1.65137 -2.08125,-2.04887 -2.12125,-0.95263 -4.5325,0.0924 -5.4725,2.1875 -0.93,2.06987 -0.115,4.56012 1.9925,5.50637 0.92875,0.416 1.9775,0.46338 2.96125,0.15238 l -0.625,1.39262 c -0.91875,0.1 -1.95375,-0.0776 -2.7825,-0.44875 -2.6975,-1.21 -3.97,-4.3575 -2.7425,-7.09375 1.25375,-2.79887 4.48,-3.97362 7.265,-2.72662 0.82875,0.37262 1.58,0.95025 2.09875,1.709 l -0.61375,1.37012" />
    <path
       inkscape:connector-curvature="0"
       id="path3930"
       style="fill:#176fc1;fill-opacity:1;fill-rule:nonzero;stroke:none"
       d="m 352.24875,628.88881 c -0.20875,-0.72113 -0.60375,-1.166 -1.3625,-1.36375 -0.79625,-0.2075 -1.8175,0.108 -2.04625,0.98537 -0.205,0.78463 0.45875,1.3975 1.02125,1.80125 l 0.645,0.46638 c 1.27625,0.92962 2.13625,1.99212 1.6975,3.66597 -0.475,1.8213 -2.22375,2.75635 -4.01875,2.2876 -1.6225,-0.42236 -2.57375,-1.95018 -2.365,-3.61282 l 1.3325,0.064 c -0.30125,1.09864 0.3675,2.12646 1.44375,2.40625 1.0775,0.28125 2.08375,-0.42139 2.35875,-1.47119 0.28125,-1.07769 -0.46125,-1.76756 -1.23125,-2.35106 l -0.61625,-0.47413 c -1.015,-0.791 -1.88125,-1.71237 -1.5175,-3.10737 0.42375,-1.62263 2.11375,-2.21875 3.62875,-1.82238 1.11625,0.29113 1.8925,1.07625 2.18375,2.1885 l -1.15375,0.33738" />
    <path
       inkscape:connector-curvature="0"
       id="path3932"
       style="fill:#176fc1;fill-opacity:1;fill-rule:nonzero;stroke:none"
       d="m 360.5425,630.92156 -2.45,3.87111 3.64375,0.55274 -1.19375,-4.42385 z m -3.15875,4.96145 -1.55875,2.39209 -1.3725,-0.20704 6.515,-9.94925 3.27625,11.43021 -1.37375,-0.20752 -0.78,-2.74609 -4.70625,-0.7124" />
    <path
       inkscape:connector-curvature="0"
       id="path3934"
       style="fill:#176fc1;fill-opacity:1;fill-rule:nonzero;stroke:none"
       d="m 368.06,628.97143 7.53625,8.39253 0.2325,-7.66015 1.2925,0.0405 -0.32875,10.79495 -7.535,-8.39258 -0.235,7.72852 -1.2925,-0.04 0.33,-10.86373" />
    <path
       inkscape:connector-curvature="0"
       id="path3936"
       style="fill:#176fc1;fill-opacity:1;fill-rule:nonzero;stroke:none"
       d="m 389.0925,638.0168 0.44875,-0.0679 c 2.61125,-0.39111 4.72125,-1.70996 4.275,-4.68847 -0.44875,-2.99027 -2.85125,-3.61764 -5.4625,-3.22652 l -0.45,0.0679 1.18875,7.91499 z m -2.6425,-8.89262 2.1225,-0.31887 c 3.14125,-0.47113 6.00125,0.795 6.51375,4.21 0.525,3.49514 -1.77875,5.56496 -5.015,6.05129 l -2.08125,0.3125 -1.54,-10.25492" />
    <path
       inkscape:connector-curvature="0"
       id="path3938"
       style="fill:#176fc1;fill-opacity:1;fill-rule:nonzero;stroke:none"
       d="m 401.02375,636.99531 -1.25875,0.29882 -2.3875,-10.0962 1.2575,-0.29787 2.38875,10.09525" />
    <path
       inkscape:connector-curvature="0"
       id="path3940"
       style="fill:#176fc1;fill-opacity:1;fill-rule:nonzero;stroke:none"
       d="m 402.43875,625.94156 5.3075,-1.67625 0.35625,1.126 -4.075,1.28662 0.8725,2.76613 3.9575,-1.25 0.35625,1.1265 -3.9575,1.25 1.18,3.73481 4.075,-1.28619 0.35625,1.12505 -5.3075,1.67725 -3.12125,-9.87992" />
    <path
       inkscape:connector-curvature="0"
       id="path3942"
       style="fill:#176fc1;fill-opacity:1;fill-rule:nonzero;stroke:none"
       d="m 421.505,624.08168 0.16625,0.3775 c 1.14875,2.6025 0.19625,5.40963 -2.45625,6.5825 -2.6525,1.17088 -5.79875,-0.17387 -6.95875,-2.80125 -1.205,-2.72662 -0.005,-5.93012 2.7225,-7.13525 1.47,-0.6485 3.2225,-0.626 4.66875,0.13138 l -0.48,1.16012 c -1.08875,-0.63137 -2.505,-0.74262 -3.66125,-0.23237 -2.125,0.93837 -3.0225,3.3935 -2.085,5.517 0.8775,1.98637 3.3425,3.15037 5.3925,2.24512 1.47125,-0.64837 2.49375,-2.61862 1.86125,-4.186 l -2.45125,1.0825 -0.4775,-1.0825 3.75875,-1.65875" />
    <path
       inkscape:connector-curvature="0"
       id="path3944"
       style="fill:#176fc1;fill-opacity:1;fill-rule:nonzero;stroke:none"
       d="m 432.07125,617.96018 c -1.18125,-1.95362 -3.62875,-2.7075 -5.7125,-1.44725 -2.0825,1.25875 -2.5525,3.77638 -1.3725,5.72988 1.225,2.024 3.795,2.6075 5.71375,1.44737 1.9175,-1.15975 2.595,-3.70612 1.37125,-5.73 z m 1.10625,-0.6685 c 1.595,2.63625 0.71375,5.88375 -1.8525,7.43513 -2.565,1.55125 -5.85125,0.82075 -7.44375,-1.815 -1.5375,-2.5415 -0.69,-5.89888 1.8525,-7.43413 2.54125,-1.5385 5.9075,-0.7285 7.44375,1.814" />
  </g>
</svg>
