<?xml version="1.0" encoding="UTF-8" standalone="no"?>
<!-- Created with Inkscape (http://www.inkscape.org/) -->

<svg
   xmlns:dc="http://purl.org/dc/elements/1.1/"
   xmlns:cc="http://creativecommons.org/ns#"
   xmlns:rdf="http://www.w3.org/1999/02/22-rdf-syntax-ns#"
   xmlns:svg="http://www.w3.org/2000/svg"
   xmlns="http://www.w3.org/2000/svg"
   xmlns:sodipodi="http://sodipodi.sourceforge.net/DTD/sodipodi-0.dtd"
   xmlns:inkscape="http://www.inkscape.org/namespaces/inkscape"
   id="svg3178"
   version="1.1"
   inkscape:version="0.48.3.1 r9886"
   width="18143.336"
   height="9967.2266"
   preserveAspectRatio="xMinYMin meet"
   viewBox="0 0 18143.336 9967.2266"
   xml:space="preserve"
   sodipodi:docname="tlt_logo.svg"><metadata
     id="metadata3184"><rdf:RDF><cc:Work
         rdf:about=""><dc:format>image/svg+xml</dc:format><dc:type
           rdf:resource="http://purl.org/dc/dcmitype/StillImage" /><dc:title /></cc:Work></rdf:RDF></metadata><defs
     id="defs3182"><inkscape:perspective
       sodipodi:type="inkscape:persp3d"
       inkscape:vp_x="0 : 0.5 : 1"
       inkscape:vp_y="0 : 1000 : 0"
       inkscape:vp_z="1 : 0.5 : 1"
       inkscape:persp3d-origin="0.5 : 0.33333333 : 1"
       id="perspective3186" /><clipPath
       clipPathUnits="userSpaceOnUse"
       id="clipPath3196"><path
         d="M 0,1497 0,0 l 2657.24,0 0,1497 L 0,1497 z"
         id="path3198"
         inkscape:connector-curvature="0" /></clipPath></defs><sodipodi:namedview
     pagecolor="#ffffff"
     bordercolor="#666666"
     borderopacity="1"
     objecttolerance="10"
     gridtolerance="10"
     guidetolerance="10"
     inkscape:pageopacity="0"
     inkscape:pageshadow="2"
     inkscape:window-width="1280"
     inkscape:window-height="776"
     id="namedview3180"
     showgrid="false"
     inkscape:zoom="0.044637003"
     inkscape:cx="8753.6451"
     inkscape:cy="3573.0519"
     inkscape:window-x="0"
     inkscape:window-y="24"
     inkscape:window-maximized="1"
     inkscape:current-layer="g3188"
     fit-margin-top="0"
     fit-margin-left="0"
     fit-margin-right="0"
     fit-margin-bottom="0"
     showguides="true"
     inkscape:guide-bbox="true"><sodipodi:guide
       orientation="1,0"
       position="6272.712,3853.3054"
       id="guide3903" /></sodipodi:namedview><g
     id="g3188"
     inkscape:groupmode="layer"
     inkscape:label="tlt_logo"
     transform="matrix(1.25,0,0,-1.25,-25.546875,9982.7344)"
     style="display:inline"><flowRoot
   xml:space="preserve"
   id="flowRoot4175"
   style="font-size:40px;font-style:normal;font-variant:normal;font-weight:500;font-stretch:normal;line-height:125%;letter-spacing:0px;word-spacing:0px;fill:#8e9499;fill-opacity:1;stroke:none;font-family:Century Schoolbook L;-inkscape-font-specification:Century Schoolbook L Medium"
   transform="matrix(0.8,0,0,-0.8,18.263804,7988.9157)"><flowRegion
     id="flowRegion4177"><rect
       id="rect4179"
       width="4054.9319"
       height="1814.6379"
       x="-3114.0083"
       y="3656.4868"
       style="fill:#8e9499;fill-opacity:1" /></flowRegion><flowPara
     id="flowPara4181" /></flowRoot>





<g
   id="g6320"
   transform="translate(-111.67885,-385.51834)"><g
     id="g6233"><rect
       x="4895.4375"
       y="-2928.699"
       width="9215.6973"
       height="1030.6099"
       id="rect3356"
       style="fill:none"
       transform="scale(1,-1)" /><g
       style="font-size:11.14990044px;fill:#abadad;fill-opacity:1;font-family:DIN-Medium"
       id="text3354"
       transform="matrix(52.819285,0,0,-52.819285,259.70008,7914.1002)"><path
         d="m 87.732433,81.389776 6.876135,0 0,0.925529 -2.885473,0 0,7.202792 -1.10519,0 0,-7.202792 -2.885472,0 0,-0.925529"
         style="font-size:11.14990044px;fill:#abadad;fill-opacity:1;font-family:DIN-Medium"
         id="path3135-3"
         inkscape:connector-curvature="0" /><path
         d="m 95.675648,81.389776 1.099746,0 0,3.331904 3.996106,0 0,-3.331904 1.09975,0 0,8.128321 -1.09975,0 0,-3.870888 -3.996106,0 0,3.870888 -1.099746,0 0,-8.128321"
         style="font-size:11.14990044px;fill:#abadad;fill-opacity:1;font-family:DIN-Medium"
         id="path3137-9"
         inkscape:connector-curvature="0" /><path
         d="m 104.05985,81.389776 5.13941,0 0,0.925529 -4.03966,0 0,2.406375 3.87088,0 0,0.925529 -3.87088,0 0,2.945359 4.13765,0 0,0.925529 -5.2374,0 0,-8.128321"
         style="font-size:11.14990044px;fill:#abadad;fill-opacity:1;font-family:DIN-Medium"
         id="path3139-5"
         inkscape:connector-curvature="0" /></g><g
       id="g6227"
       style="fill:#c5a478;fill-opacity:1"><path
         d="m 5025.44,2951.1563 130.6971,0 0,-856.0014 470.3805,0 0,-109.993 -601.0776,0 0,965.9944"
         style="font-size:25.08720016px;fill:#c5a478;fill-opacity:1;font-family:DIN-Medium"
         id="path3108"
         inkscape:connector-curvature="0" /><path
         d="m 5763.0375,2951.1563 130.6976,0 0,-965.9944 -130.6976,0 0,965.9944"
         style="font-size:25.08720016px;fill:#c5a478;fill-opacity:1;font-family:DIN-Medium"
         id="path3110"
         inkscape:connector-curvature="0" /><path
         d="m 6153.8353,2951.1563 555.1391,0 0,-109.9926 -424.442,0 0,-284.6868 383.0333,0 0,-109.9925 -383.0333,0 0,-461.3225 -130.6971,0 0,965.9944"
         style="font-size:25.08720016px;fill:#c5a478;fill-opacity:1;font-family:DIN-Medium"
         id="path3112"
         inkscape:connector-curvature="0" /><path
         d="m 6917.3137,2951.1563 610.7827,0 0,-109.9926 -480.0856,0 0,-285.9809 460.028,0 0,-109.9924 -460.028,0 0,-350.0355 491.7317,0 0,-109.993 -622.4288,0 0,965.9944"
         style="font-size:25.08720016px;fill:#c5a478;fill-opacity:1;font-family:DIN-Medium"
         id="path3114"
         inkscape:connector-curvature="0" /></g><g
       id="g6217"
       style="fill:#f28c70;fill-opacity:1"><path
         d="m 7867.6108,2951.1563 817.1809,0 0,-109.9926 -342.9186,0 0,-856.0018 -131.3442,0 0,856.0018 -342.9181,0 0,109.9926"
         style="font-size:25.08720016px;fill:#f28c70;fill-opacity:1;font-family:DIN-Medium"
         id="path3116"
         inkscape:connector-curvature="0" /><path
         d="m 8811.6066,2951.1563 610.7827,0 0,-109.9926 -480.0856,0 0,-285.9809 460.028,0 0,-109.9924 -460.028,0 0,-350.0355 491.7317,0 0,-109.993 -622.4288,0 0,965.9944"
         style="font-size:25.08720016px;fill:#f28c70;fill-opacity:1;font-family:DIN-Medium"
         id="path3118"
         inkscape:connector-curvature="0" /><path
         d="m 10373.502,2876.7496 0,-137.8143 c -43.997,40.9768 -91.014,71.6022 -141.049,91.8762 -49.605,20.2723 -102.445,30.4088 -158.519,30.4097 -110.4244,-9e-4 -194.9674,-33.8613 -253.6301,-101.5815 -58.6627,-67.2903 -87.9943,-164.7737 -87.9943,-292.4511 0,-127.2465 29.3316,-224.7303 87.9943,-292.4509 58.6627,-67.2897 143.2057,-100.9345 253.6301,-100.9345 56.074,0 108.914,10.1365 158.519,30.4096 50.035,20.2731 97.052,50.8983 141.049,91.8765 l 0,-136.5204 c -45.723,-31.0567 -94.249,-54.3494 -145.578,-69.8778 -50.899,-15.5283 -104.817,-23.2922 -161.754,-23.2928 -146.2262,6e-4 -261.3945,44.6445 -345.5065,133.9323 -84.1121,89.7194 -126.1679,212.0055 -126.1679,366.858 0,155.2834 42.0558,277.569 126.1679,366.8579 84.112,89.7186 199.2803,134.5783 345.5065,134.5793 57.799,-10e-4 112.149,-7.7652 163.048,-23.2926 51.329,-15.0979 99.424,-37.9591 144.284,-68.5836"
         style="font-size:25.08720016px;fill:#f28c70;fill-opacity:1;font-family:DIN-Medium"
         id="path3120"
         inkscape:connector-curvature="0" /><path
         d="m 10442.733,2951.1563 817.181,0 0,-109.9926 -342.919,0 0,-856.0018 -131.344,0 0,856.0018 -342.918,0 0,109.9926"
         style="font-size:25.08720016px;fill:#f28c70;fill-opacity:1;font-family:DIN-Medium"
         id="path3122"
         inkscape:connector-curvature="0" /><path
         d="m 11778.82,2862.5152 c -94.896,-9e-4 -170.381,-35.371 -226.455,-106.1105 -55.644,-70.7411 -83.466,-167.1466 -83.465,-289.2161 0,-121.6392 27.821,-217.8289 83.465,-288.5687 56.074,-70.7409 131.559,-106.1108 226.455,-106.1108 94.895,0 169.949,35.3699 225.161,106.1108 55.643,70.7398 83.465,166.9295 83.466,288.5687 0,122.0695 -27.823,218.475 -83.466,289.2161 -55.212,70.7395 -130.266,106.1096 -225.161,106.1105 m 0,106.1106 c 135.442,-10e-4 243.709,-45.5077 324.802,-136.5203 81.092,-90.5829 121.638,-212.2217 121.639,-364.9169 0,-152.2648 -40.547,-273.9034 -121.639,-364.9169 -81.093,-90.5819 -189.36,-135.8728 -324.802,-135.8734 -135.873,6e-4 -244.572,45.2915 -326.095,135.8734 -81.093,90.5819 -121.64,212.2211 -121.64,364.9169 0,152.6952 40.547,274.334 121.64,364.9169 81.523,91.0126 190.222,136.5193 326.095,136.5203"
         style="font-size:25.08720016px;fill:#f28c70;fill-opacity:1;font-family:DIN-Medium"
         id="path3125"
         inkscape:connector-curvature="0" /><path
         d="m 12429.718,2951.1563 175.988,0 428.324,-808.1223 0,808.1223 126.815,0 0,-965.9944 -175.988,0 -428.324,808.1227 0,-808.1227 -126.815,0 0,965.9944"
         style="font-size:25.08720016px;fill:#f28c70;fill-opacity:1;font-family:DIN-Medium"
         id="path3127-0"
         inkscape:connector-curvature="0" /><path
         d="m 13420.946,2951.1563 130.697,0 0,-965.9944 -130.697,0 0,965.9944"
         style="font-size:25.08720016px;fill:#f28c70;fill-opacity:1;font-family:DIN-Medium"
         id="path3129-9"
         inkscape:connector-curvature="0" /><path
         d="m 14535.107,2876.7496 0,-137.8143 c -43.998,40.9768 -91.015,71.6022 -141.05,91.8762 -49.605,20.2723 -102.444,30.4088 -158.518,30.4097 -110.425,-9e-4 -194.968,-33.8613 -253.631,-101.5815 -58.662,-67.2903 -87.994,-164.7737 -87.994,-292.4511 0,-127.2465 29.332,-224.7303 87.994,-292.4509 58.663,-67.2897 143.206,-100.9345 253.631,-100.9345 56.074,0 108.913,10.1365 158.518,30.4096 50.035,20.2731 97.052,50.8983 141.05,91.8765 l 0,-136.5204 c -45.724,-31.0567 -94.25,-54.3494 -145.578,-69.8778 -50.9,-15.5283 -104.818,-23.2922 -161.755,-23.2928 -146.226,6e-4 -261.394,44.6445 -345.506,133.9323 -84.112,89.7194 -126.168,212.0055 -126.168,366.858 0,155.2834 42.056,277.569 126.168,366.8579 84.112,89.7186 199.28,134.5783 345.506,134.5793 57.8,-10e-4 112.149,-7.7652 163.048,-23.2926 51.329,-15.0979 99.424,-37.9591 144.285,-68.5836"
         style="font-size:25.08720016px;fill:#f28c70;fill-opacity:1;font-family:DIN-Medium"
         id="path3131-4"
         inkscape:connector-curvature="0" /></g></g><g
     id="g6254"><g
       id="g5762"
       style="fill:#c5a478;fill-opacity:1"
       transform="translate(-0.83974808,2.34749)"><path
         inkscape:connector-curvature="0"
         d="m 3027.7621,4115.2668 c 10.1857,69.4723 27.2865,136.8176 50.7895,200.9459 20.2913,55.5671 45.4242,109.0073 74.795,159.7755 4.3019,8.5611 9.0795,16.5772 13.9265,24.0481 30.9953,50.7896 66.2338,98.3247 105.2505,142.68 5.9051,6.9526 11.7729,13.3601 18.1803,19.7943 39.5405,43.2705 83.3561,83.3507 130.9286,119.1503 l 205.205,-281.6246 c -155.5003,-119.674 -255.4281,-307.7996 -255.4281,-518.3701 0,-57.6993 7.4709,-114.3513 21.9158,-167.2732 L 3050.223,3703.2374 c -14.9633,57.7154 -25.6353,117.5898 -29.9105,178.5224 -1.0688,9.0581 -1.6299,17.6406 -2.1536,26.7201 l -0.5398,0 c -0.5237,18.6613 -1.0634,37.3868 -1.0634,56.0908 0,42.2071 2.688,83.8958 8.032,124.5211 0.5237,9.0795 1.5872,17.6406 3.1744,26.175"
         style="fill:#c5a478;fill-opacity:1;fill-rule:nonzero;stroke:none"
         id="path3272-3" /><path
         inkscape:connector-curvature="0"
         d="m 3025.1114,3694.719 -929.8597,-301.4135 c -37.4295,123.4309 -63.0648,251.6874 -75.8797,383.7008 l 974.2204,102.0601 c 4.7989,-63.5832 15.487,-125.0394 31.519,-184.3474"
         style="fill:#c5a478;fill-opacity:1;fill-rule:nonzero;stroke:none"
         id="path3276-1" /><path
         inkscape:connector-curvature="0"
         d="m 3270.9364,4680.6696 -731.0674,657.8597 c 87.0915,95.6471 183.8289,182.7546 288.0587,260.2429 l 578.1964,-795.1688 C 3357.5042,4766.719 3312.08,4725.57 3270.9364,4680.6696"
         style="fill:#c5a478;fill-opacity:1;fill-rule:nonzero;stroke:none"
         id="path3278-9" /><path
         inkscape:connector-curvature="0"
         d="m 2521.71,5318.735 731.046,-658.378 c -40.6038,-45.9426 -76.9699,-95.1076 -109.0126,-146.9606 l -851.8477,492.195 c 66.2765,111.6794 143.2251,216.4543 229.8143,313.1436"
         style="fill:#c5a478;fill-opacity:1;fill-rule:nonzero;stroke:none"
         id="path3282-5" /><path
         inkscape:connector-curvature="0"
         d="m 2204.7828,1542.6656 c -164.6012,120.7589 -316.3394,257.0314 -453.6754,407.2091 l 746.5331,671.7381 c 88.7214,-99.9278 187.0407,-191.3213 293.3975,-272.4809 l -586.2552,-806.4663"
         style="fill:#c5a478;fill-opacity:1;fill-rule:nonzero;stroke:none"
         id="path3284-5" /><path
         inkscape:connector-curvature="0"
         d="m 2117.1515,4627.7745 c 42.2071,123.9759 96.2138,242.6292 160.8604,354.2872 l 852.3714,-492.7134 c -30.4769,-52.3768 -56.1122,-107.3988 -76.9646,-164.5799 l -936.2672,303.0061"
         style="fill:#c5a478;fill-opacity:1;fill-rule:nonzero;stroke:none"
         id="path3288-1" /><path
         inkscape:connector-curvature="0"
         d="m 2479.4815,2642.4705 -746.5811,-672.2832 c -135.1824,151.2412 -255.968,316.3607 -359.6313,492.7134 l 875.8958,505.5712 c 66.2552,-116.5424 143.2251,-225.5712 230.3166,-326.0014"
         style="fill:#c5a478;fill-opacity:1;fill-rule:nonzero;stroke:none"
         id="path3290-0" /><path
         inkscape:connector-curvature="0"
         d="m 2023.6312,4221.0624 c 16.0534,130.9499 44.9004,258.6827 84.9806,381.0554 l 936.2672,-303.0007 c -20.2913,-58.2658 -34.7362,-118.6586 -43.837,-180.6332 l -977.4108,102.5785"
         style="fill:#c5a478;fill-opacity:1;fill-rule:nonzero;stroke:none"
         id="path3294-2" /><path
         inkscape:connector-curvature="0"
         d="M 2236.3446,2991.4138 1359.909,2485.8854 c -101.5364,176.3527 -185.9772,363.3934 -250.6506,558.9686 l 968.8764,314.2338 c 40.6253,-128.7749 94.0655,-251.6874 158.2098,-367.674"
         style="fill:#c5a478;fill-opacity:1;fill-rule:nonzero;stroke:none"
         id="path3296-3" /><path
         inkscape:connector-curvature="0"
         d="m 2020.9591,4194.3423 976.9085,-102.5785 c -5.344,-41.6887 -8.0321,-83.8958 -8.0321,-127.1931 0,-19.7675 0.5398,-39.535 2.127,-58.7842 l -975.2839,-102.0601 c -4.799,57.181 -7.4549,114.8964 -7.4549,173.1409 0,73.2078 3.7408,145.8971 11.7354,217.475"
         style="fill:#c5a478;fill-opacity:1;fill-rule:nonzero;stroke:none"
         id="path3298-2" /><path
         inkscape:connector-curvature="0"
         d="M 2070.1188,3385.2895 1100.74,3070.532 c -61.4722,191.2999 -104.76949,390.6373 -127.20904,596.3821 l 1019.12094,106.8804 c 13.36,-133.6005 39.535,-263.4656 77.4669,-388.505"
         style="fill:#c5a478;fill-opacity:1;fill-rule:nonzero;stroke:none"
         id="path3300-5" /><path
         inkscape:connector-curvature="0"
         d="m 1731.8369,1932.2341 c 137.8811,-151.7595 291.2705,-289.6406 456.9352,-410.9446 L 1668.7935,805.70905 c -215.8878,158.19372 -414.7014,337.21845 -594.2498,534.94725 l 657.2932,591.5778"
         style="fill:#c5a478;fill-opacity:1;fill-rule:nonzero;stroke:none"
         id="path3302-4" /><path
         inkscape:connector-curvature="0"
         d="m 1713.1542,1952.5467 -656.7695,-591.5778 c -177.43757,198.7922 -335.63129,415.7702 -471.35874,647.1449 l 765.27984,441.4269 c 104.1871,-177.9613 226.0521,-344.6894 362.8484,-496.994"
         style="fill:#c5a478;fill-opacity:1;fill-rule:nonzero;stroke:none"
         id="path3308-3" /><path
         inkscape:connector-curvature="0"
         d="m 1356.6919,5513.8023 898.3407,-518.8775 c -65.7368,-113.3093 -120.7642,-233.5498 -163.5377,-359.1343 l -984.3634,319.0541 c 64.1496,196.1202 148.024,383.161 249.5604,558.9577"
         style="fill:#c5a478;fill-opacity:1;fill-rule:nonzero;stroke:none"
         id="path3310-9" /><path
         inkscape:connector-curvature="0"
         d="M 1336.3793,2472.5253 571.66591,2031.6436 c -132.53814,230.8563 -242.63353,476.1362 -327.03166,733.173 l 838.98885,272.0053 c 65.7155,-197.6914 150.7175,-386.3353 252.7562,-564.2966"
         style="fill:#c5a478;fill-opacity:1;fill-rule:nonzero;stroke:none"
         id="path3312-0" /><path
         inkscape:connector-curvature="0"
         d="m 2083.4788,4610.1338 c -41.1436,-123.9759 -70.0173,-253.3226 -86.028,-386.378 L 973.00725,4331.6996 c 21.37609,205.7662 64.10685,405.6273 125.58455,597.4456 l 984.887,-319.0114"
         style="fill:#c5a478;fill-opacity:1;fill-rule:nonzero;stroke:none"
         id="path3314-4" /><path
         inkscape:connector-curvature="0"
         d="m 1982.5036,3976.8673 c 0,-59.3293 2.6559,-118.1135 7.4549,-176.3527 L 970.88033,3693.6342 c -10.70942,102.0548 -16.05344,205.1997 -16.05344,309.4295 0,102.0601 4.82031,202.5331 14.9686,301.9158 L 1994.239,4197.0357 c -7.9946,-72.1443 -11.7354,-145.8972 -11.7354,-220.1684"
         style="fill:#c5a478;fill-opacity:1;fill-rule:nonzero;stroke:none"
         id="path3316-6" /></g><g
       id="g5732"
       style="fill:#f28c70;fill-opacity:1"
       transform="translate(-0.83974808,2.34749)"><g
         style="fill:#f28c70;fill-opacity:1"
         id="g5687"><path
           id="path3232-9"
           style="fill:#f28c70;fill-opacity:1;fill-rule:nonzero;stroke:none"
           d="m 4425.7687,1969.6422 202.0254,-951.7541 c -196.163,-41.17037 -399.2144,-63.06483 -607.1075,-64.12829 l 0,977.41079 c 3.2171,0 5.9051,0 9.0795,0 135.2304,0 267.7675,13.3601 396.0026,38.4716"
           inkscape:connector-curvature="0" /><path
           id="path3234-2"
           style="fill:#f28c70;fill-opacity:1;fill-rule:nonzero;stroke:none"
           d="M 4222.1508,2926.7671 4419.901,1995.844 c -126.1082,-25.1383 -256.5344,-37.9533 -390.1349,-37.9533 -3.1744,0 -5.8624,0 -9.0795,0 l 0,953.8865 c 6.9525,-0.5238 14.4235,-0.5238 21.3761,-0.5238 61.4776,0 121.8704,5.328 180.0881,15.5137"
           inkscape:connector-curvature="0" /><path
           id="path3242-3"
           style="fill:#f28c70;fill-opacity:1;fill-rule:nonzero;stroke:none"
           d="m 3596.9217,2004.9235 198.7923,935.7221 c 64.1282,-15.5084 130.3887,-25.1116 198.2525,-27.7622 l 0,-954.4476 c -136.2512,2.1269 -268.7883,18.159 -397.0448,46.4877"
           inkscape:connector-curvature="0" /><path
           id="path3250-4"
           style="fill:#f28c70;fill-opacity:1;fill-rule:nonzero;stroke:none"
           d="m 3993.9665,953.75981 c -207.8557,0.51837 -410.9446,22.43955 -607.0702,63.03809 l 204.1416,961.9238 c 130.3835,-28.847 265.0475,-44.8791 402.9286,-47.006 l 0,-977.95589"
           inkscape:connector-curvature="0" /><path
           id="path3256-1"
           style="fill:#f28c70;fill-opacity:1;fill-rule:nonzero;stroke:none"
           d="m 3571.2651,2010.2675 c -131.4683,30.4556 -257.5979,73.7528 -377.8384,128.7749 l 390.6587,877.4883 c 59.3026,-28.8738 121.865,-52.334 186.517,-69.4509 l -199.3373,-936.8123"
           inkscape:connector-curvature="0" /><path
           id="path3258-8"
           style="fill:#f28c70;fill-opacity:1;fill-rule:nonzero;stroke:none"
           d="m 4135.0593,3336.6482 81.2291,-383.6847 c -56.6359,-9.662 -114.8804,-14.99 -174.2257,-14.99 -6.9526,0 -14.4236,0 -21.3761,0.5238 -9.0795,0 -17.6406,0 -26.7201,1.1062 -66.2392,2.6506 -130.3835,11.7301 -192.9085,27.2438 -8.5558,2.1269 -17.0955,4.2806 -25.133,6.4289 -63.0434,17.0955 -123.4148,39.535 -181.1302,67.8209 -8.0374,3.7569 -16.0535,7.5351 -23.5297,11.7943 -57.1971,29.3921 -110.6373,64.1282 -160.3207,103.6686 -7.4709,5.3441 -14.4235,10.6881 -21.3974,16.5505 -48.0749,40.0801 -92.9539,84.4409 -132.5104,132.5371 -6.4128,6.9312 -12.2966,13.9051 -17.1009,20.8577 -39.0113,48.0962 -73.2291,99.9278 -102.5998,154.9766 -3.7569,7.4709 -8.0161,14.9632 -11.2118,22.4395 -28.3447,55.0488 -50.7842,112.7642 -68.4248,173.1356 l 343.0808,111.1824 c 82.8537,-266.6774 331.3507,-460.6707 624.7268,-460.6707 37.4081,0 74.2765,3.2118 109.5524,9.0795"
           inkscape:connector-curvature="0" /><path
           id="path3260-6"
           style="fill:#f28c70;fill-opacity:1;fill-rule:nonzero;stroke:none"
           d="M 3560.577,3028.3249 3169.4,2150.2755 c -120.7802,56.6573 -234.5918,125.5845 -340.9753,204.6814 l 566.4877,779.7033 c 51.2919,-40.6199 106.8804,-76.4462 165.6646,-106.3353"
           inkscape:connector-curvature="0" /><path
           id="path3264-4"
           style="fill:#f28c70;fill-opacity:1;fill-rule:nonzero;stroke:none"
           d="m 2807.07,2370.9889 c -105.2719,79.6152 -202.5491,169.9452 -289.6406,268.8096 l 719.2946,647.6901 c 41.7047,-49.7048 87.6526,-95.1503 137.336,-136.2512 l -566.99,-780.2485"
           inkscape:connector-curvature="0" /><path
           id="path3270-1"
           style="fill:#f28c70;fill-opacity:1;fill-rule:nonzero;stroke:none"
           d="m 3219.6445,3308.3409 -720.3741,-648.2565 c -85.5043,99.4309 -161.9505,206.835 -227.1209,321.7475 l 842.2017,486.2899 c 29.9372,-56.6573 65.7155,-110.0975 105.2933,-159.7809"
           inkscape:connector-curvature="0" /><path
           id="path3274-8"
           style="fill:#f28c70;fill-opacity:1;fill-rule:nonzero;stroke:none"
           d="m 2259.3078,3004.7738 c -63.5831,114.3781 -115.9599,236.2271 -156.04,362.8751 l 929.3359,301.4135 c 17.6193,-62.5625 41.149,-121.8704 69.996,-178.501 l -843.2919,-485.7876"
           inkscape:connector-curvature="0" /></g><g
         style="fill:#f28c70;fill-opacity:1"
         id="g5714"><path
           id="path3262-5"
           style="fill:#f28c70;fill-opacity:1;fill-rule:nonzero;stroke:none"
           d="m 2777.1382,6793.6954 c 185.4535,82.2979 379.9652,145.8918 582.4983,189.7127 l 215.3694,-1011.6232 c -130.3888,-29.9265 -255.9733,-72.1443 -375.6901,-125.0501 l -422.1776,946.9606"
           inkscape:connector-curvature="0" /><path
           id="path3236-8"
           style="fill:#f28c70;fill-opacity:1;fill-rule:nonzero;stroke:none"
           d="m 4410.8215,5959.4937 -203.0942,-954.426 c -53.9639,9.0795 -109.531,13.3601 -165.6646,13.3601 -6.9526,0 -14.4236,0 -21.3761,-0.5398 l 0,977.945 c 3.2171,0 5.9051,0 9.0795,0 130.4261,0 257.5978,-12.2912 381.0554,-36.3393"
           inkscape:connector-curvature="0" /><path
           id="path3240-4"
           style="fill:#f28c70;fill-opacity:1;fill-rule:nonzero;stroke:none"
           d="m 4818.0092,7875.3253 -183.2839,-861.9906 c -198.2472,41.6833 -403.495,64.1282 -614.0387,65.197 l 0,880.6947 c 273.1062,-1.0688 539.7675,-29.3921 797.3226,-83.9011"
           inkscape:connector-curvature="0" /><path
           id="path3244-7"
           style="fill:#f28c70;fill-opacity:1;fill-rule:nonzero;stroke:none"
           d="m 3809.6191,4992.2314 -203.6179,958.7118 c 125.0448,27.2545 254.9258,42.2178 387.9653,44.3554 l 0,-978.5008 c -63.0435,-2.1269 -125.0395,-10.6666 -184.3474,-24.5664"
           inkscape:connector-curvature="0" /><path
           id="path3246-3"
           style="fill:#f28c70;fill-opacity:1;fill-rule:nonzero;stroke:none"
           d="m 3600.6572,5977.1289 -215.348,1011.6233 c 196.6439,40.6145 400.2618,62.525 608.6573,63.0594 l 0,-1029.7929 c -134.664,-2.1376 -266.1376,-17.6353 -393.3093,-44.8898"
           inkscape:connector-curvature="0" /><path
           id="path3248-5"
           style="fill:#f28c70;fill-opacity:1;fill-rule:nonzero;stroke:none"
           d="m 3379.9651,7014.9379 -182.7815,860.9218 c 257.5818,53.9746 523.7141,82.2979 796.7829,83.3667 l 0,-880.6947 c -210.004,-0.5344 -415.7489,-22.4449 -614.0014,-63.5938"
           inkscape:connector-curvature="0" /><path
           id="path3252-6"
           style="fill:#f28c70;fill-opacity:1;fill-rule:nonzero;stroke:none"
           d="m 4202.3833,4979.4111 -74.8163,-351.6366 c -33.1276,5.344 -67.324,8.016 -102.0601,8.016 -140.008,0 -270.3915,-44.3607 -377.2719,-119.7221 l -204.6814,281.6246 c 47.5511,34.7575 98.8644,65.7368 152.3046,91.9385 8.0161,3.7355 16.0321,7.4923 24.5879,11.2064 53.9425,24.5932 110.5999,44.3607 169.4055,59.8691 4.2752,0.5237 7.9946,1.5872 12.2752,2.6506 4.2752,1.0902 8.5558,2.1537 13.36,2.6934 57.7155,13.3601 117.5845,21.8998 178.4797,24.5932 9.0795,0.5237 17.6406,0.5237 26.7201,0.5237 6.9525,0.5398 14.4235,0.5398 21.3761,0.5398 54.5036,0 107.9438,-4.2806 160.3206,-12.2966"
           inkscape:connector-curvature="0" /><path
           id="path3254-1"
           style="fill:#f28c70;fill-opacity:1;fill-rule:nonzero;stroke:none"
           d="m 3210.0039,5822.1523 c 118.1082,52.3714 242.1055,94.0548 370.362,123.4469 l 204.1203,-959.2569 c -60.3714,-14.9686 -119.1557,-35.7783 -174.7442,-61.4349 l -399.7381,897.2449"
           inkscape:connector-curvature="0" /><path
           id="path3266-2"
           style="fill:#f28c70;fill-opacity:1;fill-rule:nonzero;stroke:none"
           d="m 2766.4715,6818.2779 -358.0708,803.2064 c 242.6292,107.9492 498.0574,191.8504 763.1476,248.497 l 182.7655,-860.9219 c -204.1576,-43.8209 -400.8016,-107.9492 -587.8423,-190.7815"
           inkscape:connector-curvature="0" /><path
           id="path3268-9"
           style="fill:#f28c70;fill-opacity:1;fill-rule:nonzero;stroke:none"
           d="m 2849.8222,5614.2699 c 104.7535,76.4195 216.9566,142.151 335.6099,196.66 l 399.7381,-897.2503 c -55.5885,-26.7201 -107.9653,-58.2659 -157.67,-94.0655 l -577.678,794.6558"
           inkscape:connector-curvature="0" /><path
           id="path3280-1"
           style="fill:#f28c70;fill-opacity:1;fill-rule:nonzero;stroke:none"
           d="m 2833.7901,5636.1804 -610.8056,840.0801 c 165.1249,119.1717 342.5197,222.3113 529.5605,306.7468 l 422.1777,-947.4949 c -120.2405,-55.5779 -234.5705,-122.3781 -340.9326,-199.332"
           inkscape:connector-curvature="0" /><path
           id="path3286-4"
           style="fill:#f28c70;fill-opacity:1;fill-rule:nonzero;stroke:none"
           d="m 2207.4762,6497.6366 -516.7829,710.7548 c 215.3908,157.1143 447.8557,291.7836 693.1356,402.4048 l 358.0494,-803.2064 c -189.1677,-85.5043 -367.6954,-189.1783 -534.4021,-309.9532"
           inkscape:connector-curvature="0" /><path
           id="path3292-3"
           style="fill:#f28c70;fill-opacity:1;fill-rule:nonzero;stroke:none"
           d="m 2519.5617,5356.6883 -771.6714,695.2569 c 137.336,150.7014 289.1009,288.0428 453.7021,408.2833 l 610.8216,-840.0802 c -106.3567,-78.0227 -204.1362,-166.7335 -292.8523,-263.46"
           inkscape:connector-curvature="0" /><path
           id="path3304-5"
           style="fill:#f28c70;fill-opacity:1;fill-rule:nonzero;stroke:none"
           d="m 1729.71,6031.638 771.6873,-695.2624 c -87.6312,-97.8009 -165.6646,-204.1362 -232.4649,-317.4241 L 1370.052,5537.316 c 103.145,177.4215 223.9252,342.5517 359.658,494.322"
           inkscape:connector-curvature="0" /><path
           id="path3306-9"
           style="fill:#f28c70;fill-opacity:1;fill-rule:nonzero;stroke:none"
           d="m 2186.0787,6482.1389 c -166.183,-121.8436 -319.5778,-260.2538 -457.9559,-412.5584 l -653.5791,588.3767 c 179.5484,197.7288 378.362,376.7535 594.2498,534.9366 l 517.2852,-710.7549"
           inkscape:connector-curvature="0" /><path
           id="path3434-9"
           style="fill:#f28c70;fill-opacity:1;stroke:#ffffff;stroke-width:0.5;stroke-linecap:butt;stroke-linejoin:miter;stroke-miterlimit:4;stroke-opacity:1;stroke-dasharray:none"
           d="m 3804.2751,4953.7598 -2.1483,9.5978 -5.344,26.2018 -203.6179,958.7118 -5.8678,26.1857 -214.8243,1011.6233 -5.3654,26.1857 -182.7388,860.3874 -3.2171,14.4288"
           inkscape:connector-curvature="0" /></g></g><g
       id="g5669"
       style="fill:#abadad;fill-opacity:1"
       transform="translate(-0.83974808,2.34749)"><path
         inkscape:connector-curvature="0"
         d="m 4921.1755,4542.7885 c -35.3026,53.9853 -75.8797,104.7749 -120.7855,151.7862 l 717.6915,646.0815 c 89.7796,-97.2558 169.4055,-203.0514 238.3433,-315.8423 l -835.2493,-482.0254"
         style="fill:#abadad;fill-opacity:1;fill-rule:nonzero;stroke:none"
         id="path3218-9" /><path
         inkscape:connector-curvature="0"
         d="m 6935.3159,4935.0557 842.7522,273.0634 c 81.2291,-250.6239 137.3413,-512.4809 166.1991,-781.8142 l -882.298,-92.4516 c -22.4448,207.3266 -65.197,408.2511 -126.6533,601.2024"
         style="fill:#abadad;fill-opacity:1;fill-rule:nonzero;stroke:none"
         id="path3200-1" /><path
         inkscape:connector-curvature="0"
         d="M 7770.0521,5233.7758 6926.7655,4960.707 c -64.6626,197.7074 -149.0982,386.362 -250.6346,563.7833 l 766.8671,442.485 c 132.5317,-230.8617 242.6185,-476.1523 327.0541,-733.1995"
         style="fill:#abadad;fill-opacity:1;fill-rule:nonzero;stroke:none"
         id="path3202-1" /><path
         inkscape:connector-curvature="0"
         d="m 6662.2365,5547.4696 c -103.1397,178.4903 -224.4489,345.2238 -361.2559,498.0628 l 657.3146,591.5832 c 177.9559,-198.7976 335.6046,-415.2305 470.8083,-646.6266 l -766.867,-443.0194"
         style="fill:#abadad;fill-opacity:1;fill-rule:nonzero;stroke:none"
         id="path3204-5" /><path
         inkscape:connector-curvature="0"
         d="m 7035.2491,4331.1599 -973.6806,-102.6052 c -16.5665,135.7542 -47.0274,267.2011 -89.2452,393.8757 l 937.3413,304.0642 c 61.4563,-191.3213 103.6741,-390.0922 125.5845,-595.3347"
         style="fill:#abadad;fill-opacity:1;fill-rule:nonzero;stroke:none"
         id="path3206-7" /><path
         inkscape:connector-curvature="0"
         d="m 5826.4315,6478.3981 519.4389,714.4957 c 215.8985,-158.1831 414.696,-337.7422 594.2552,-535.471 l -657.3147,-591.5831 c -137.8757,152.3046 -290.7147,290.7147 -456.3794,412.5584"
         style="fill:#abadad;fill-opacity:1;fill-rule:nonzero;stroke:none"
         id="path3212-2" /><path
         inkscape:connector-curvature="0"
         d="m 6263.0381,6048.2044 -743.8878,-669.6056 c -91.3828,97.2609 -192.3955,185.4373 -301.4028,263.46 l 593.1864,814.9632 c 164.0614,-120.7748 315.8316,-258.1162 452.1042,-408.8176"
         style="fill:#abadad;fill-opacity:1;fill-rule:nonzero;stroke:none"
         id="path3216-9" /><path
         inkscape:connector-curvature="0"
         d="m 5196.3714,5657.0221 c -109.0073,75.8851 -226.0574,141.6165 -348.9487,195.5911 l 413.6221,927.7221 c 187.03,-84.4355 363.9171,-188.1095 527.9786,-307.8156 l -592.652,-815.4976"
         style="fill:#abadad;fill-opacity:1;fill-rule:nonzero;stroke:none"
         id="path3220-2" /><path
         inkscape:connector-curvature="0"
         d="m 5499.3774,5360.4291 -718.2313,-646.0655 c -45.4241,44.8577 -95.1075,85.483 -148.5477,122.3461 l 569.6782,783.4386 c 107.4041,-76.9539 207.3213,-163.527 297.1008,-259.7192"
         style="fill:#abadad;fill-opacity:1;fill-rule:nonzero;stroke:none"
         id="path3222-6" /><path
         inkscape:connector-curvature="0"
         d="m 4610.1588,4850.6148 c -53.4402,35.2759 -110.0975,64.6466 -169.4054,89.2398 l 395.4575,888.1761 c 121.3093,-52.9058 236.7029,-117.5684 344.1498,-192.3847 l -570.2019,-785.0312"
         style="fill:#abadad;fill-opacity:1;fill-rule:nonzero;stroke:none"
         id="path3224-1" /><path
         inkscape:connector-curvature="0"
         d="m 4823.9197,5862.7669 c -121.8704,50.7682 -249.5658,90.8483 -381.5792,118.1028 l 212.6974,1000.9352 c 201.988,-43.8209 397.0663,-108.4836 581.9748,-190.7815 l -413.093,-928.2565"
         style="fill:#abadad;fill-opacity:1;fill-rule:nonzero;stroke:none"
         id="path3226-2" /><path
         inkscape:connector-curvature="0"
         d="m 4812.6866,5837.65 -395.479,-888.7159 c -58.7629,22.9846 -120.2405,40.0802 -183.8236,51.853 l 203.0941,953.8969 c 130.3835,-26.7201 255.968,-65.7314 376.2085,-117.034"
         style="fill:#abadad;fill-opacity:1;fill-rule:nonzero;stroke:none"
         id="path3228-3" /><path
         inkscape:connector-curvature="0"
         d="m 4898.1695,4529.4284 -326.5036,-188.6493 c -94.0441,143.7702 -243.6981,247.9787 -418.4423,282.1697 l 74.8163,351.642 c 61.996,-11.2332 121.304,-28.3287 178.501,-50.2232 8.0161,-2.672 16.0107,-5.8891 23.5084,-9.1062 57.7154,-23.503 112.7428,-52.35 164.5958,-86.0227 7.4763,-4.2805 14.9473,-9.0795 22.4449,-14.4235 51.8317,-35.2812 99.9493,-75.3614 144.3046,-118.6586 6.9312,-6.9259 12.8203,-13.3601 18.6881,-19.7676 44.3554,-45.4028 83.3507,-94.6052 118.0868,-146.9606"
         style="fill:#abadad;fill-opacity:1;fill-rule:nonzero;stroke:none"
         id="path3230-5" /><path
         inkscape:connector-curvature="0"
         d="M 4629.3813,6987.149 4416.1441,5985.6794 c -125.0394,24.0481 -254.3647,36.8737 -386.378,36.8737 -3.1744,0 -5.8624,0 -9.0795,0 l 0,1029.2585 c 208.4168,-1.0688 412.0347,-23.5137 608.6947,-64.6626"
         style="fill:#abadad;fill-opacity:1;fill-rule:nonzero;stroke:none"
         id="path3238-3" /><path
         inkscape:connector-curvature="0"
         d="m 5793.2986,5014.6708 859.853,496.4595 c 100.4676,-175.8181 184.3688,-362.8589 248.497,-558.9791 l -937.8757,-304.0908 c -44.8898,128.2565 -102.0708,251.1903 -170.4743,366.6104"
         style="fill:#abadad;fill-opacity:1;fill-rule:nonzero;stroke:none"
         id="path3208-1" /><path
         inkscape:connector-curvature="0"
         d="m 5779.4041,5038.1739 c -70.0066,114.3781 -150.7014,221.7983 -241.5497,320.652 l 743.3533,669.0712 c 135.2038,-151.2358 255.4443,-316.366 358.0495,-493.2531 l -859.8531,-496.4701"
         style="fill:#abadad;fill-opacity:1;fill-rule:nonzero;stroke:none"
         id="path3214-3" /></g></g></g></g></svg>